<svg class="{{ .class }}" viewBox="0 0 23 23" fill="none" xmlns="http://www.w3.org/2000/svg">
<path d="M8.05703 9.45773C7.82375 9.27305 7.48463 9.31085 7.29779 9.54197L5.13779 12.242C4.98011 12.4396 4.98011 12.7193 5.13779 12.917L7.29779 15.617C7.40471 15.7509 7.56239 15.82 7.72007 15.82C7.83779 15.82 7.95767 15.7811 8.05703 15.7023C8.28923 15.5154 8.32703 15.1763 8.14127 14.943L6.25127 12.58L8.14127 10.217C8.32811 9.98477 8.29031 9.64457 8.05703 9.45773Z" fill="currentColor"/>
<path d="M14.9432 15.7022C15.0426 15.7811 15.1614 15.8199 15.2802 15.8199C15.4389 15.8199 15.5955 15.7508 15.7025 15.6169L17.8625 12.9169C18.0201 12.7193 18.0201 12.4395 17.8625 12.2419L15.7025 9.54191C15.5156 9.30971 15.1765 9.27191 14.9432 9.45767C14.711 9.64451 14.6732 9.98363 14.859 10.2169L16.749 12.5799L14.859 14.943C14.6721 15.1752 14.7099 15.5154 14.9432 15.7022Z" fill="currentColor"/>
<path d="M10.2889 17.4237C10.3321 17.4345 10.3764 17.4399 10.4196 17.4399C10.6615 17.4399 10.8819 17.2768 10.9423 17.0306L13.1023 8.39059C13.1747 8.10115 12.9987 7.80847 12.7092 7.73611C12.4176 7.66483 12.126 7.83979 12.0547 8.12923L9.89474 16.7692C9.82346 17.0576 9.9995 17.3514 10.2889 17.4237Z" fill="currentColor"/>
<path d="M21.7592 2.85995H10.6439L8.64154 0.857631C8.54002 0.757191 8.40286 0.699951 8.25922 0.699951H1.23922C0.941139 0.699951 0.699219 0.941871 0.699219 1.23995V21.7599C0.699219 22.058 0.941139 22.2999 1.23922 22.2999H21.7592C22.0573 22.2999 22.2992 22.058 22.2992 21.7599V3.39995C22.2992 3.10187 22.0573 2.85995 21.7592 2.85995ZM21.2192 21.2199H1.77922V1.77995H8.03566L10.038 3.78227C10.1395 3.88271 10.2767 3.93995 10.4192 3.93995H21.2192V21.2199Z" fill="currentColor"/>
</svg>