<svg class="{{ .class }}" viewBox="0 0 21 21" fill="none" xmlns="http://www.w3.org/2000/svg">
<path d="M20.5625 20.125H20.125V8.31251C20.125 8.07101 19.929 7.875 19.6875 7.875H14V0.437514C14 0.196014 13.804 0 13.5625 0H1.3125C1.071 0 0.874986 0.196014 0.874986 0.437514V20.125H0.437514C0.196014 20.125 0 20.321 0 20.5625C0 20.804 0.196014 21 0.437514 21H20.5625C20.804 21 21 20.804 21 20.5625C21 20.321 20.804 20.125 20.5625 20.125ZM8.74999 20.125H6.12499V17.5H8.74999V20.125ZM13.125 20.125H9.62501V17.0625C9.62501 16.821 9.429 16.625 9.1875 16.625H5.68751C5.44601 16.625 5.25 16.821 5.25 17.0625V20.125H1.75001V0.874986H13.125V20.125ZM19.25 20.125H14V8.74999H19.25V20.125Z" fill="currentColor"/>
<path d="M3.93751 6.12499H6.56251C6.80401 6.12499 7.00003 5.92897 7.00003 5.68747V3.06247C7.00003 2.82101 6.80401 2.625 6.56251 2.625H3.93751C3.69601 2.625 3.5 2.82101 3.5 3.06251V5.68751C3.5 5.92901 3.69601 6.12499 3.93751 6.12499ZM4.37503 3.49999H6.12504V5.25H4.37503V3.49999Z" fill="currentColor"/>
<path d="M8.31251 6.12503H10.9375C11.179 6.12503 11.375 5.92901 11.375 5.68751V3.06251C11.375 2.82101 11.179 2.625 10.9375 2.625H8.31251C8.07101 2.62504 7.875 2.82105 7.875 3.06255V5.68756C7.875 5.92906 8.07101 6.12503 8.31251 6.12503ZM8.74999 3.50003H10.5V5.25004H8.74999V3.50003Z" fill="currentColor"/>
<path d="M3.93751 10.5H6.56251C6.80401 10.5 7.00003 10.304 7.00003 10.0625V7.43751C7.00003 7.19601 6.80401 7 6.56251 7H3.93751C3.69601 7 3.5 7.19601 3.5 7.43751V10.0625C3.5 10.304 3.69601 10.5 3.93751 10.5ZM4.37503 7.87503H6.12504V9.62504H4.37503V7.87503Z" fill="currentColor"/>
<path d="M8.31251 10.5H10.9375C11.179 10.5 11.375 10.304 11.375 10.0625V7.43751C11.375 7.19601 11.179 7 10.9375 7H8.31251C8.07101 7 7.875 7.19601 7.875 7.43751V10.0625C7.875 10.304 8.07101 10.5 8.31251 10.5ZM8.74999 7.87503H10.5V9.62504H8.74999V7.87503Z" fill="currentColor"/>
<path d="M15.3125 14H17.9375C18.179 14 18.375 13.804 18.375 13.5625V10.9375C18.375 10.696 18.179 10.5 17.9375 10.5H15.3125C15.071 10.5 14.875 10.696 14.875 10.9375V13.5625C14.875 13.8041 15.071 14 15.3125 14ZM15.75 11.375H17.5V13.125H15.75V11.375Z" fill="currentColor"/>
<path d="M15.3125 18.375H17.9375C18.179 18.375 18.375 18.179 18.375 17.9375V15.3125C18.375 15.071 18.179 14.875 17.9375 14.875H15.3125C15.071 14.875 14.875 15.071 14.875 15.3125V17.9375C14.875 18.179 15.071 18.375 15.3125 18.375ZM15.75 15.75H17.5V17.5H15.75V15.75Z" fill="currentColor"/>
<path d="M3.93751 14.875H6.56251C6.80401 14.875 7.00003 14.679 7.00003 14.4375V11.8125C7.00003 11.571 6.80401 11.375 6.56251 11.375H3.93751C3.69601 11.375 3.5 11.571 3.5 11.8125V14.4375C3.5 14.679 3.69601 14.875 3.93751 14.875ZM4.37503 12.25H6.12504V14H4.37503V12.25Z" fill="currentColor"/>
<path d="M8.31251 14.875H10.9375C11.179 14.875 11.375 14.679 11.375 14.4375V11.8125C11.375 11.571 11.179 11.375 10.9375 11.375H8.31251C8.07101 11.375 7.875 11.571 7.875 11.8125V14.4375C7.875 14.679 8.07101 14.875 8.31251 14.875ZM8.74999 12.25H10.5V14H8.74999V12.25Z" fill="currentColor"/>
</svg>
