<svg class="{{ .class }}" viewBox="0 0 27 23" fill="none" xmlns="http://www.w3.org/2000/svg">
<path d="M24.9275 10.1078C24.3527 9.52767 23.6777 9.05307 22.9395 8.70502C24.7693 7.03861 24.9012 4.20678 23.2348 2.37689C21.5684 0.54701 18.7365 0.415174 16.9066 2.08158C15.5883 3.28392 15.1084 5.14545 15.6832 6.83295C14.3279 6.07357 12.6773 6.07357 11.3221 6.83295C12.1236 4.49154 10.8686 1.94447 8.52715 1.14291C6.18574 0.341346 3.63867 1.59642 2.83711 3.93783C2.2623 5.6306 2.74219 7.4974 4.06582 8.69974C1.58203 9.88099 0.00527344 12.3701 0 15.1122C0 16.0035 0.722461 16.7312 1.61895 16.7312H7.49356C6.79219 17.8492 6.42305 19.1464 6.42305 20.4701C6.42305 21.3613 7.14551 22.0837 8.04199 22.089H18.9633C19.8545 22.089 20.577 21.3665 20.577 20.4701C20.577 19.1464 20.2078 17.8544 19.5064 16.7312H25.3811C26.2723 16.7312 27 16.0087 27 15.1122C27.0053 13.2349 26.2564 11.4314 24.9275 10.1078ZM19.923 1.97084C21.8162 1.97084 23.3508 3.50541 23.3508 5.39857C23.3508 7.29174 21.8162 8.82631 19.923 8.82631C18.0299 8.82631 16.4953 7.29174 16.4953 5.39857C16.4953 3.50541 18.0299 1.97084 19.923 1.97084ZM13.5 7.32338C15.3932 7.32338 16.9277 8.85795 16.9277 10.7511C16.9277 12.6443 15.3932 14.1788 13.5 14.1788C11.6068 14.1788 10.0723 12.6443 10.0723 10.7511C10.0723 8.85795 11.6068 7.32338 13.5 7.32338ZM3.64922 5.39857C3.64922 3.50541 5.18379 1.97084 7.07695 1.97084C8.97012 1.97084 10.5047 3.50541 10.5047 5.39857C10.5047 7.29174 8.97012 8.82631 7.07695 8.82631C5.18379 8.82631 3.64922 7.29174 3.64922 5.39857ZM1.61895 15.6765C1.30781 15.6765 1.05469 15.4234 1.05469 15.1175C1.05469 12.5494 2.68418 10.266 5.10469 9.42748C6.34395 10.0392 7.79941 10.0392 9.04395 9.42748C9.09668 9.44857 9.14941 9.46439 9.20215 9.48549C8.71172 11.1361 9.2127 12.9185 10.4836 14.0734C9.65566 14.4636 8.91211 15.012 8.29512 15.6818L1.61895 15.6765ZM19.5223 20.4648C19.5223 20.7759 19.2691 21.029 18.9633 21.029H8.04199C7.73086 21.029 7.47773 20.7759 7.47773 20.4648C7.47773 17.8966 9.10723 15.6132 11.533 14.7747C12.7775 15.3865 14.2277 15.3865 15.4723 14.7747C17.8928 15.6132 19.5223 17.8966 19.5223 20.4648ZM25.7818 15.5078C25.6764 15.6132 25.534 15.6712 25.3863 15.6712H18.7049C18.0826 14.9962 17.3391 14.4531 16.5164 14.0628C17.7926 12.9079 18.2883 11.1255 17.7979 9.47494C17.8506 9.45385 17.9033 9.43803 17.9561 9.41693C19.1953 10.0287 20.6508 10.0287 21.8953 9.41693C24.3211 10.2607 25.9506 12.5441 25.9506 15.1122C25.9453 15.2599 25.8873 15.4076 25.7818 15.5078Z" fill="currentColor"/>
</svg>
