<svg width="37" height="36" viewBox="0 0 37 36" fill="none" xmlns="http://www.w3.org/2000/svg" class="svg-inline--fa fa-heart fa-w-16 fa-2x {{ .class }}">
<path fill-rule="evenodd" clip-rule="evenodd" d="M18.238 36C28.1792 36 36.238 27.9411 36.238 18C36.238 8.05887 28.1792 0 18.238 0C8.29691 0 0.238037 8.05887 0.238037 18C0.238037 27.9411 8.29691 36 18.238 36ZM22.4149 9.00005C24.2793 9.3031 26.069 9.82761 27.7221 10.5503C27.7469 10.5503 27.7594 10.5619 27.7718 10.5736C30.7174 14.6414 32.1716 19.2221 31.6248 24.5021C31.6248 24.5254 31.6123 24.5487 31.5875 24.5604C29.3503 26.0989 27.2001 27.0314 25.0623 27.6492C25.025 27.6608 24.9877 27.6492 24.9504 27.6375C24.4657 26.9964 24.0183 26.3204 23.6205 25.6094C23.6081 25.5744 23.6205 25.5162 23.6703 25.5045C24.3787 25.2481 25.0623 24.9567 25.7086 24.5954C25.7707 24.572 25.7707 24.5021 25.721 24.4671C25.6527 24.4147 25.5843 24.3652 25.5159 24.3156C25.4476 24.2661 25.3792 24.2165 25.3109 24.1641C25.286 24.1408 25.2487 24.1408 25.2239 24.1524C20.998 25.9824 16.3869 25.9824 12.1114 24.1524C12.0865 24.1408 12.0492 24.1408 12.0244 24.1641C11.956 24.2107 11.8876 24.2603 11.8193 24.3098C11.7509 24.3593 11.6826 24.4089 11.6142 24.4555C11.5769 24.4905 11.5769 24.5604 11.6266 24.5837C12.2854 24.9334 12.9565 25.2364 13.665 25.4928C13.7147 25.5045 13.7396 25.5511 13.7147 25.5977C13.3294 26.3087 12.882 26.9848 12.3848 27.6258C12.3724 27.6492 12.3351 27.6608 12.2978 27.6492C10.1725 27.0314 8.02225 26.0989 5.78505 24.5604C5.76019 24.5487 5.74776 24.5254 5.74776 24.5021C5.28789 19.9331 6.22006 15.3174 9.60072 10.5736C9.61315 10.5619 9.62558 10.5503 9.63801 10.5503C11.3035 9.82761 13.0808 9.3031 14.9452 9.00005C14.9824 9.00005 15.0197 9.01171 15.0322 9.03502C15.2683 9.41966 15.5293 9.9092 15.7033 10.3055C17.6808 10.0258 19.6918 10.0258 21.6692 10.3055C21.8432 9.92085 22.1042 9.41966 22.3279 9.03502C22.3388 9.02358 22.3523 9.01452 22.3673 9.00848C22.3823 9.00244 22.3986 8.99956 22.4149 9.00005ZM12.0119 19.2454C12.0119 20.6091 13.0808 21.7164 14.361 21.7164C15.666 21.7164 16.7101 20.6091 16.7101 19.2454C16.7225 17.8933 15.6785 16.7744 14.361 16.7744C13.056 16.7744 12.0119 17.8817 12.0119 19.2454ZM20.6749 19.2454C20.6749 20.6091 21.7438 21.7164 23.0239 21.7164C24.3414 21.7164 25.373 20.6091 25.373 19.2454C25.3854 17.8933 24.3414 16.7744 23.0239 16.7744C21.7189 16.7744 20.6749 17.8817 20.6749 19.2454Z" fill="currentColor"/>
</svg>