<svg class="w-[120px] lg:w-[180px]" viewBox="0 0 1513 808" fill="none" xmlns="http://www.w3.org/2000/svg">
<path d="M183.062 378.482C187.826 400.746 182.041 420.612 169.111 425.75C159.584 429.518 148.355 425.75 138.147 416.159C137.807 415.474 137.127 415.132 136.446 414.789C136.446 414.789 136.446 414.789 136.106 414.447C129.641 407.939 123.856 399.034 119.773 388.758C114.329 375.4 112.628 361.699 114.669 349.711C116.711 338.75 121.815 330.872 129.641 327.79C136.106 325.05 144.272 326.077 152.098 330.872C153.799 333.613 155.161 336.01 156.522 338.065C151.758 341.148 149.036 350.053 149.036 361.699L152.779 363.754L165.709 371.29L151.077 373.002H150.057C150.397 374.372 150.397 375.742 150.737 377.112C154.48 398.006 164.688 413.419 172.854 411.707C180.34 410.337 184.083 394.923 181.701 376.427C182.722 377.797 183.062 378.14 183.062 378.482Z" fill="white"/>
<path d="M332.778 391.841C329.035 399.718 324.271 406.226 318.827 411.707C318.827 411.707 318.827 411.707 318.486 411.707C317.806 412.049 317.466 412.734 317.125 413.077C306.918 422.325 295.689 426.435 286.161 422.667C273.231 417.187 267.447 397.663 272.211 375.4C273.912 373.345 275.954 370.947 277.655 368.892C283.439 361.356 288.203 353.479 292.626 345.601L293.988 343.203C295.349 341.148 296.369 338.75 297.73 336.695C299.091 334.298 300.793 331.557 302.834 328.475C306.918 326.077 310.66 324.707 314.403 324.022C312.021 329.502 311.681 336.01 311.681 341.833L315.424 343.888L328.354 351.423L313.723 353.136H312.702C313.042 354.506 313.042 355.876 313.383 357.589C317.125 375.742 325.292 390.128 332.778 391.841Z" fill="white"/>
<path d="M357.277 383.963C355.575 382.593 352.853 382.935 351.492 384.648C347.749 389.443 343.326 393.896 338.562 398.006C339.923 395.266 341.625 392.183 342.645 389.101C348.77 374.372 350.471 358.959 348.09 345.601C345.367 331.558 338.562 321.625 328.354 317.514C323.591 315.459 318.146 315.117 312.362 316.144C317.466 311.007 324.271 306.211 332.778 304.499C342.305 302.786 352.173 306.211 356.596 313.062C357.957 314.774 360.339 315.459 362.381 314.089C364.082 312.719 364.762 310.321 363.401 308.609C356.936 299.018 344.006 294.223 331.417 296.963C318.487 299.361 308.959 308.266 303.175 315.117C300.793 317.857 298.751 320.94 296.71 323.68C294.328 327.105 292.627 330.188 290.925 333.27C289.564 335.668 288.203 337.723 287.182 339.778L285.821 342.176C281.398 349.711 276.975 357.589 271.53 364.439C264.725 373.345 257.92 379.51 250.094 383.963C250.774 378.14 252.476 372.66 255.198 367.522C256.218 365.467 255.538 363.069 253.496 362.042C251.455 361.014 249.073 361.699 248.052 363.754C244.65 370.262 242.608 377.112 241.927 384.305C241.927 385.333 241.587 388.416 243.629 390.813C244.99 392.183 246.351 392.868 248.392 392.868C250.094 392.868 251.795 392.526 253.496 391.156C256.559 389.443 259.621 387.388 262.683 384.99C260.642 406.569 268.468 424.722 283.099 430.888C286.502 432.258 289.905 432.943 293.307 432.943C303.175 432.943 313.723 427.805 322.91 418.9C336.18 411.707 348.09 402.116 357.277 390.128C359.318 388.073 358.978 385.333 357.277 383.963ZM225.595 101.043C330.736 101.043 416.483 237.023 416.483 403.829C416.483 570.635 330.736 706.615 225.595 706.615C120.113 706.615 34.707 570.635 34.707 403.829C34.707 237.023 120.453 101.043 225.595 101.043ZM339.243 530.561C340.264 529.875 340.264 528.505 339.583 527.82C338.902 526.793 337.541 526.793 336.861 527.478L193.95 636.741C192.929 637.426 192.929 638.796 193.61 639.481C193.95 639.824 194.631 640.166 195.311 640.166C195.652 640.166 196.332 640.166 196.672 639.824L339.243 530.561ZM289.564 614.135C290.585 613.45 290.585 612.08 289.905 611.395C289.224 610.367 287.863 610.367 287.182 611.052L250.774 638.111C249.753 638.796 249.753 640.166 250.434 640.851C250.774 641.536 251.455 641.879 252.135 641.879C252.476 641.879 252.816 641.536 253.156 641.536L289.564 614.135ZM279.356 147.625C280.377 146.94 280.377 145.57 279.697 144.885C279.016 143.858 277.655 143.858 276.975 144.543L134.064 253.463C133.043 254.149 133.043 255.519 133.724 256.204C134.064 256.546 134.744 256.889 135.425 256.889C135.765 256.889 136.446 256.889 136.446 256.546L279.356 147.625ZM263.364 258.944C264.385 258.259 264.385 256.889 263.704 256.204C263.024 255.176 261.663 255.176 260.982 255.861L224.574 282.577C223.553 283.263 223.553 284.633 224.234 285.318C224.574 286.003 225.255 286.003 225.935 286.003C226.275 286.003 226.616 286.003 226.956 285.66L263.364 258.944ZM261.322 505.557C262.343 504.872 262.343 503.502 261.663 502.817C260.982 501.789 259.621 501.789 258.941 502.474L181.701 561.73C180.68 562.415 180.68 563.785 181.361 564.47C181.701 564.812 182.381 565.155 183.062 565.155C183.402 565.155 183.742 565.155 184.083 564.812L261.322 505.557ZM252.135 478.155C253.156 477.47 253.156 476.1 252.476 475.415C251.795 474.388 250.434 474.388 249.753 475.073L213.345 502.132C212.324 502.817 212.324 504.187 213.005 504.872C213.345 505.557 214.026 505.899 214.706 505.899C215.047 505.899 215.727 505.557 215.727 505.557L252.135 478.155ZM237.504 149.338C238.525 148.653 238.525 147.283 237.844 146.598C237.164 145.57 235.803 145.57 235.122 146.255L157.882 205.853C156.862 206.539 156.862 207.909 157.542 208.594C157.882 208.936 158.563 209.279 159.243 209.279C159.584 209.279 160.264 209.279 160.604 208.936L237.504 149.338ZM211.644 393.211C213.686 390.813 213.345 387.731 213.345 386.703C212.665 379.51 210.623 372.317 207.561 365.809C206.54 363.754 204.158 363.069 202.117 364.097C200.075 365.124 199.394 367.522 200.415 369.577C203.137 374.715 204.839 380.538 205.519 386.018C198.033 381.565 190.888 375.057 184.083 366.494C178.638 359.302 173.875 351.424 169.792 344.231L168.09 341.491C166.729 339.435 165.708 337.038 164.347 334.983C162.646 332.243 160.945 328.817 158.563 325.392C158.563 325.392 158.563 325.392 158.563 325.05C156.862 322.31 154.48 319.227 152.098 316.487C146.313 309.636 136.786 301.073 123.856 298.333C111.266 295.936 98.3363 300.731 91.8713 309.979C90.5102 311.692 91.1907 314.432 92.8921 315.459C94.5934 316.829 97.3155 316.144 98.3363 314.432C103.1 307.581 112.968 304.156 122.155 305.869C130.661 307.581 137.467 312.719 142.571 317.514C137.126 316.487 131.682 317.172 126.578 318.884C116.37 322.995 109.565 332.928 106.843 346.971C104.461 360.329 106.503 375.742 112.287 390.471C113.648 393.553 115.009 396.636 116.37 399.376C111.607 395.266 107.183 390.813 103.44 386.018C102.079 384.305 99.3571 383.963 97.6558 385.333C95.9544 386.703 95.6142 389.443 96.9752 391.156C106.503 402.801 118.412 412.734 131.342 419.927C140.529 428.833 151.077 433.628 161.285 433.628C164.688 433.628 168.431 432.943 171.493 431.573C186.124 425.408 193.61 407.597 191.909 385.675C194.971 388.073 197.693 390.128 201.096 391.841C202.797 392.868 204.498 393.211 206.2 393.211C208.922 395.266 210.623 394.581 211.644 393.211Z" fill="#E4E3FD"/>
<path d="M397.428 178.109C431.794 241.133 450.509 320.939 450.509 404.171C450.509 548.371 393.345 678.186 307.258 729.906C307.938 732.304 308.619 735.044 308.619 737.784C308.619 752.17 296.71 764.158 282.419 764.158C277.315 764.158 272.211 762.788 268.128 760.047C268.468 761.418 268.468 763.13 268.468 764.5C268.468 788.134 249.413 807.315 225.935 807.315C202.457 807.315 183.402 788.134 183.402 764.5C183.402 763.13 183.402 761.418 183.742 760.047C179.659 762.788 174.555 764.158 169.451 764.158C155.16 764.158 143.251 752.512 143.251 737.784C143.251 735.044 143.591 732.304 144.612 729.906C58.1852 677.843 0.680664 548.029 0.680664 404.171C0.680664 320.254 19.7354 239.763 54.7825 176.397C53.0812 175.369 52.0604 173.999 50.6994 172.629C39.1304 159.613 32.6654 141.803 30.9641 122.964C30.2836 109.606 31.9849 95.9051 36.7486 83.5744C37.4291 81.5193 39.8109 75.6965 45.5954 75.0115C51.7202 74.3264 55.4631 79.4642 58.8657 84.2595C60.2267 85.9721 61.5878 87.6846 62.2683 88.7122C68.7333 94.8775 76.8997 100.015 87.4478 104.811C92.5518 107.208 97.996 109.263 103.1 110.976C116.03 97.9602 129.64 86.9996 143.932 78.4367C143.251 75.6965 142.57 73.2989 142.57 70.5587C142.57 56.173 154.48 44.1849 168.771 44.1849C173.875 44.1849 178.979 45.5549 183.062 48.2951C183.062 46.925 182.722 45.2124 182.722 43.8423C182.722 20.2086 201.776 1.02759 225.254 1.02759C248.733 1.02759 267.787 20.2086 267.787 43.8423C267.787 45.2124 267.787 46.925 267.447 48.2951C271.53 45.5549 276.634 44.1849 281.738 44.1849C296.37 44.1849 307.938 56.173 307.938 70.5587C307.938 73.2989 307.598 76.039 306.577 78.4367C321.209 87.3421 335.5 98.6452 348.77 112.346C354.214 110.633 359.318 108.578 364.762 106.181C375.311 101.385 383.477 96.2476 389.942 90.0823C390.963 89.0547 392.324 87.3421 393.345 85.6295C396.747 80.8343 400.49 75.6965 406.615 76.3816C412.399 77.0666 414.781 82.8894 415.462 84.9445C420.225 97.2752 421.927 110.976 420.906 124.334C419.545 142.83 412.74 160.984 401.171 173.999C400.83 175.027 399.469 176.739 397.428 178.109ZM416.482 404.171C416.482 237.022 330.736 101.385 225.595 101.385C120.113 101.385 34.707 237.365 34.707 404.171C34.707 570.978 120.453 706.957 225.595 706.957C331.076 706.957 416.482 570.978 416.482 404.171Z" fill="black"/>
<path d="M287.183 611.052C288.204 610.367 289.224 610.71 289.905 611.395C290.585 612.422 290.245 613.45 289.565 614.135L253.157 641.194C252.816 641.536 252.476 641.536 252.136 641.536C251.455 641.536 250.775 641.194 250.434 640.509C249.754 639.481 250.094 638.454 250.775 637.769L287.183 611.052Z" fill="black"/>
<path d="M318.827 411.707C323.931 406.569 328.694 399.719 332.778 391.841C325.292 389.786 317.125 375.742 313.723 357.246C313.383 355.876 313.042 354.506 313.042 352.794H314.063L328.694 351.081L315.764 343.546L312.021 341.491C312.021 335.668 312.362 329.16 314.744 323.68C311.001 324.365 306.918 325.735 303.175 328.132C301.133 330.873 299.432 333.955 298.071 336.353C296.71 338.75 295.349 340.806 294.328 342.861L292.967 345.258C288.543 352.794 283.78 361.014 277.995 368.55C276.294 370.947 274.252 373.002 272.551 375.057C267.787 397.321 273.572 416.845 286.502 422.325C296.029 426.093 307.258 421.982 317.466 412.734C317.466 412.734 318.146 412.049 318.827 411.707ZM363.742 308.266C365.103 309.979 364.762 312.719 362.721 313.747C361.019 315.117 358.297 314.774 356.936 312.719C352.173 305.869 342.305 302.444 333.118 304.156C324.611 305.869 317.806 311.006 312.702 315.802C318.146 314.774 323.59 315.459 328.694 317.172C338.902 321.282 346.048 331.215 348.43 345.258C350.812 358.617 348.77 374.03 342.985 388.758C341.624 391.841 340.263 394.923 338.902 397.664C343.666 393.553 348.089 389.101 351.832 384.305C353.193 382.593 355.915 382.25 357.617 383.62C359.318 384.99 359.658 387.731 358.297 389.443C348.77 401.431 336.861 411.022 323.931 418.215C314.744 427.12 304.195 432.258 294.328 432.258C290.585 432.258 287.182 431.573 284.12 430.203C269.489 424.037 262.003 406.227 263.704 384.305C260.642 386.703 257.579 388.758 254.517 390.471C252.816 391.498 250.774 392.183 249.413 392.183C247.712 392.183 246.01 391.498 244.649 390.128C242.608 387.731 242.948 384.648 242.948 383.62C243.629 376.427 245.67 369.577 249.073 363.069C250.094 361.014 252.475 360.329 254.517 361.357C256.559 362.384 257.239 364.782 256.218 366.837C253.496 371.975 251.795 377.798 251.114 383.278C258.6 378.825 265.746 372.317 272.551 363.754C277.995 356.561 282.759 349.026 286.842 341.491L288.203 339.093C289.564 336.695 290.925 334.64 291.946 332.585C293.647 329.845 295.349 326.42 297.73 322.995C299.772 320.255 301.814 317.172 304.195 314.432C309.98 307.581 319.848 299.018 332.437 296.278C344.346 293.881 357.276 298.676 363.742 308.266Z" fill="black"/>
<path d="M263.364 258.944L226.615 286.003C226.275 286.345 225.935 286.345 225.595 286.345C224.914 286.345 224.234 286.003 223.893 285.66C223.213 284.632 223.553 283.605 224.234 282.92L260.642 255.861C261.663 255.176 262.683 255.518 263.364 256.203C264.725 256.889 264.385 258.259 263.364 258.944Z" fill="black"/>
<path d="M249.753 474.73C250.774 474.045 251.795 474.388 252.475 475.073C253.156 476.1 252.816 477.128 252.135 477.813L215.727 504.872C215.387 505.214 215.046 505.214 214.706 505.214C214.026 505.214 213.345 504.872 213.005 504.187C212.324 503.159 212.664 502.132 213.345 501.446L249.753 474.73Z" fill="black"/>
<path d="M336.861 527.478C337.882 526.793 338.903 527.135 339.583 527.82C340.264 528.848 339.924 529.875 339.243 530.561L196.333 639.824C195.992 640.166 195.652 640.166 194.971 640.166C194.291 640.166 193.61 639.824 193.27 639.481C192.59 638.454 192.59 637.426 193.61 636.741L336.861 527.478Z" fill="black"/>
<path d="M258.94 502.131C259.961 501.446 260.982 501.789 261.662 502.474C262.343 503.502 262.343 504.529 261.322 505.214L184.082 564.812C183.742 565.155 183.402 565.155 183.061 565.155C182.381 565.155 181.7 564.812 181.36 564.47C180.679 563.442 180.68 562.415 181.7 561.73L258.94 502.131Z" fill="black"/>
<path d="M235.122 146.255C236.143 145.57 237.163 145.913 237.844 146.598C238.525 147.625 238.525 148.653 237.504 149.338L160.604 208.936C160.264 209.279 159.924 209.279 159.243 209.279C158.563 209.279 158.222 208.936 157.542 208.594C156.861 207.566 157.202 206.538 157.882 205.853L235.122 146.255Z" fill="black"/>
<path d="M134.064 253.463L276.974 144.2C277.655 143.515 279.016 143.858 279.696 144.543C280.377 145.57 280.037 146.598 279.356 147.283L136.445 256.546C136.105 256.888 135.765 256.888 135.425 256.888C134.744 256.888 134.064 256.546 133.723 256.203C133.043 255.518 133.043 254.148 134.064 253.463Z" fill="black"/>
<path d="M169.452 425.75C182.382 420.612 188.166 400.746 183.402 378.482C183.062 378.14 182.722 377.797 182.382 377.455C184.764 395.951 181.021 411.364 173.535 412.734C165.028 414.447 155.161 398.691 151.418 378.14C151.077 376.77 151.077 375.4 150.737 374.03H151.758L166.389 372.317L153.459 364.782L149.716 362.727C149.716 351.081 152.439 342.175 157.202 339.093C155.841 336.695 154.48 334.298 152.779 331.9C144.612 327.105 136.786 326.077 130.321 328.817C122.836 331.9 117.391 339.778 115.35 350.738C113.308 362.384 115.01 376.427 120.454 389.785C124.537 400.061 130.321 408.966 136.786 415.474C136.786 415.474 137.127 415.474 137.127 415.817C137.807 416.159 138.488 416.844 138.828 417.187C148.355 425.407 159.924 429.518 169.452 425.75ZM123.856 299.361C136.786 301.758 146.314 310.664 152.098 317.514C154.48 320.254 156.522 323.337 158.563 326.077C158.563 326.077 158.563 326.077 158.563 326.42C160.945 329.845 162.646 332.927 164.348 336.01C165.709 338.065 166.73 340.12 168.091 342.518L169.792 345.258C174.215 352.794 178.639 360.329 184.083 367.522C190.888 376.085 197.694 382.593 205.52 387.045C204.839 381.223 203.138 375.742 200.416 370.604C199.395 368.549 200.075 366.152 202.117 365.124C204.159 364.097 206.54 364.782 207.561 366.837C210.964 373.345 213.005 380.195 213.346 387.73C213.346 388.758 213.686 391.841 211.644 394.238C210.283 395.608 208.582 396.293 206.881 396.293C205.179 396.293 203.478 395.608 201.777 394.923C198.714 393.211 195.652 391.156 192.59 388.758C194.631 410.337 186.805 428.49 172.174 434.655C168.771 436.025 165.369 436.71 161.966 436.71C152.098 436.71 141.55 431.573 132.023 423.01C118.752 415.817 106.843 405.884 97.6561 394.238C96.2951 392.526 96.6353 389.785 98.3366 388.415C100.038 387.045 102.76 387.388 104.121 389.1C107.864 393.896 112.287 398.348 117.051 402.459C115.69 399.718 113.989 396.636 112.968 393.553C107.183 378.825 105.142 363.412 107.524 350.053C109.906 336.01 117.051 326.077 127.259 321.967C132.023 319.912 137.467 319.569 143.251 320.597C138.147 315.459 131.342 310.321 122.836 308.951C113.308 307.239 103.441 310.664 99.0172 317.514C97.6561 319.227 95.2743 319.912 93.573 318.542C91.8716 317.172 91.1911 314.774 92.5522 313.061C98.3366 301.416 111.267 296.963 123.856 299.361Z" fill="black"/>
<path d="M798.494 383.617V494.286H751.372V394.726C751.372 390.754 750.058 389.44 745.549 389.44C736.023 389.44 729.124 391.829 719.867 396.846V494.256H672.745V394.726C672.745 390.754 671.431 389.44 666.922 389.44C657.396 389.44 650.498 391.829 641.24 396.846V494.256H594.118V351.307H641.24V367.97C648.377 359.758 657.933 349.694 680.688 349.694C702.667 349.694 714.313 356.323 718.285 370.09C724.914 360.564 737.068 349.694 759.315 349.694C787.624 349.724 798.494 360.594 798.494 383.617Z" fill="black"/>
<path d="M823.398 301.02H872.641V337.272H823.398V301.02ZM824.444 351.307H871.566V494.257H824.444V351.307Z" fill="black"/>
<path d="M898.561 351.307H945.683V369.582C951.775 361.37 962.107 351.307 979.308 351.307H994.119V392.337H976.65C964.466 392.337 954.164 394.189 945.683 399.743V494.256H898.561V351.307Z" fill="black"/>
<path d="M1013.2 351.307H1060.33V369.582C1066.42 361.37 1076.75 351.307 1093.95 351.307H1108.76V392.337H1091.29C1079.11 392.337 1068.81 394.189 1060.33 399.743V494.256H1013.2V351.307Z" fill="black"/>
<path d="M1121.21 460.393V385.2C1121.21 362.177 1132.05 351.307 1155.11 351.307H1213.34C1236.36 351.307 1247.23 362.147 1247.23 385.2V460.393C1247.23 483.417 1236.39 494.286 1213.34 494.286H1155.11C1132.08 494.256 1121.21 483.417 1121.21 460.393ZM1195.87 457.198C1199.84 457.198 1201.15 455.884 1201.15 451.912V393.681C1201.15 389.709 1199.84 388.396 1195.87 388.396H1172.57C1168.6 388.396 1167.29 389.709 1167.29 393.681V451.912C1167.29 455.884 1168.6 457.198 1172.57 457.198H1195.87Z" fill="black"/>
<path d="M1271.87 351.307H1318.99V369.582C1325.08 361.37 1335.42 351.307 1352.62 351.307H1367.43V392.337H1349.96C1337.77 392.337 1327.47 394.189 1318.99 399.743V494.256H1271.87V351.307Z" fill="black"/>
<path d="M1502.04 484.702C1502.13 486.673 1502.91 491.122 1501.48 492.764C1499.72 494.765 1495.15 494.228 1492.82 494.168C1483.89 493.899 1474.96 494.049 1466.03 494.168C1465.64 488.106 1465.16 482.074 1464.9 476.012C1464.9 475.564 1464.84 475.146 1464.72 474.758C1464.42 473.414 1463.61 472.458 1462.63 471.801C1462.57 471.742 1462.48 471.712 1462.42 471.652C1462.36 471.622 1462.33 471.592 1462.27 471.562C1460.75 470.607 1458.8 470.338 1457.04 471.473C1456.39 471.831 1455.82 472.309 1455.4 472.906C1443.25 484.702 1428.37 495.482 1410.94 496.647C1403.41 497.124 1394.27 496.288 1389.46 489.659C1385.07 483.627 1384.96 475.295 1384.69 468.158C1384.03 449.046 1383.07 429.905 1382.84 410.763C1382.66 394.309 1386 375.287 1404.43 370.569C1414.1 368.09 1424.19 370.241 1433.57 373.048C1441.66 375.496 1450.86 378.482 1456.18 385.5C1457.88 388.307 1462.06 388.725 1464.27 386.695C1465.97 385.47 1466.81 383.38 1465.61 381.2C1465.14 370.629 1464.66 360.058 1464.18 349.457C1463.94 343.992 1463.67 338.527 1463.43 333.062C1463.31 330.464 1463.19 327.866 1463.1 325.268C1463.01 323.566 1462 319.266 1462.96 317.863C1463.58 316.907 1473.71 317.624 1475.74 317.594C1481.44 317.504 1487.14 317.355 1492.85 317.385C1494.19 317.385 1496.94 317.056 1498.01 318.191C1499.15 319.385 1498.73 322.581 1498.76 324.104C1498.91 329.957 1498.91 335.78 1498.88 341.633C1498.79 364.328 1497.51 387.053 1498.34 409.748C1499.15 431.637 1500.73 453.466 1501.66 475.355C1501.78 478.461 1501.93 481.596 1502.04 484.702ZM1464.12 432.145C1464.75 423.694 1464.96 415.243 1464.78 406.762C1464.75 406.105 1464.63 405.537 1464.42 405.03C1464.39 404.253 1464.15 403.447 1463.58 402.641C1460.21 397.564 1455.01 395.414 1449.13 394.668C1443.43 393.921 1436.98 393.772 1431.54 395.982C1418.73 401.237 1419.57 418.139 1418.94 429.666C1418.31 441.133 1415.44 458.632 1428.23 464.724C1434.41 467.68 1441.1 466.934 1447.61 465.5C1453.67 464.127 1459.4 461.947 1461.28 455.407C1462.33 451.824 1462.51 447.852 1462.96 444.179C1463.43 440.177 1463.82 436.176 1464.12 432.145Z" fill="#E4E3FD"/>
<path d="M1464.78 406.762C1464.96 415.243 1464.75 423.694 1464.12 432.145C1463.82 436.176 1463.43 440.178 1462.96 444.179C1462.51 447.852 1462.33 451.824 1461.28 455.408C1459.4 461.947 1453.67 464.127 1447.61 465.501C1441.1 466.934 1434.41 467.681 1428.23 464.724C1415.45 458.633 1418.31 441.133 1418.94 429.666C1419.57 418.14 1418.73 401.238 1431.54 395.982C1436.98 393.772 1443.43 393.922 1449.13 394.668C1455.01 395.415 1460.21 397.565 1463.58 402.641C1464.15 403.448 1464.39 404.254 1464.42 405.03C1464.63 405.538 1464.75 406.105 1464.78 406.762ZM1453.13 440.596C1454.3 429.607 1454.74 418.588 1454.53 407.569C1452.33 404.672 1447.43 404.612 1444.14 404.493C1439.99 404.373 1434.56 404.134 1432.17 408.255C1430.08 411.869 1430.11 416.736 1429.78 420.768C1429.33 426.292 1429 431.846 1428.82 437.371C1428.7 441.85 1427.99 447.076 1429.36 451.436C1430.62 455.527 1434.47 456.692 1438.44 456.602C1441.01 456.542 1443.49 455.945 1445.96 455.378C1447.37 455.049 1449.82 454.87 1450.89 453.735C1452.06 452.511 1452 449.793 1452.21 448.211C1452.56 445.673 1452.86 443.134 1453.13 440.596Z" fill="black"/>
<path d="M1462.62 471.801C1463.61 472.458 1464.42 473.414 1464.71 474.758C1464.83 475.146 1464.89 475.564 1464.89 476.012C1465.16 482.074 1465.64 488.106 1466.03 494.168C1474.96 494.048 1483.89 493.899 1492.81 494.168C1495.14 494.228 1499.71 494.765 1501.47 492.764C1502.91 491.122 1502.13 486.673 1502.04 484.702C1501.92 481.596 1501.77 478.461 1501.65 475.355C1500.73 453.466 1499.14 431.637 1498.34 409.748C1497.5 387.053 1498.79 364.328 1498.88 341.633C1498.91 335.78 1498.91 329.957 1498.76 324.104C1498.73 322.581 1499.14 319.385 1498.01 318.191C1496.93 317.056 1494.19 317.385 1492.84 317.385C1487.14 317.355 1481.44 317.504 1475.73 317.594C1473.7 317.624 1463.58 316.907 1462.95 317.862C1462 319.266 1463.01 323.566 1463.1 325.268C1463.19 327.866 1463.31 330.464 1463.43 333.062C1463.67 338.527 1463.94 343.992 1464.18 349.457C1464.65 360.058 1465.13 370.629 1465.61 381.2C1466.8 383.38 1465.97 385.47 1464.27 386.694C1462.06 388.725 1457.88 388.307 1456.17 385.5C1450.86 378.482 1441.66 375.496 1433.57 373.048C1424.19 370.241 1414.1 368.09 1404.42 370.569C1386 375.287 1382.65 394.309 1382.83 410.763C1383.07 429.905 1384.03 449.046 1384.68 468.158C1384.95 475.295 1385.07 483.627 1389.46 489.659C1394.27 496.288 1403.41 497.124 1410.93 496.646C1428.37 495.482 1443.24 484.702 1455.4 472.906C1455.81 472.309 1456.38 471.831 1457.04 471.473C1458.8 470.338 1460.74 470.607 1462.27 471.562C1462.32 471.592 1462.35 471.622 1462.41 471.652C1462.47 471.712 1462.56 471.742 1462.62 471.801ZM1511.75 472.249C1511.99 478.192 1512.73 484.343 1512.34 490.286C1511.66 501.096 1503.47 504.59 1493.77 504.411C1482.93 504.231 1472.09 504.351 1461.25 504.44C1458.38 504.47 1456.26 502.081 1456.14 499.334C1455.96 495.124 1455.64 490.913 1455.34 486.732C1439.99 499.633 1421.15 509.427 1400.6 506.441C1391.4 505.097 1383.1 500.379 1378.89 491.839C1374.83 483.537 1374.68 474.071 1374.38 465.052C1373.96 453.048 1373.57 441.043 1373.19 429.069C1372.8 418.139 1371.93 407.06 1373.37 396.191C1374.65 386.724 1377.99 377.348 1384.71 370.36C1391.46 363.283 1401.08 359.938 1410.69 359.341C1421.26 358.714 1432.07 361.551 1441.99 365.045C1446.59 366.627 1450.98 368.568 1454.92 371.077C1454.44 360.505 1453.96 349.904 1453.49 339.333C1453.19 332.465 1452.32 325.388 1452.62 318.519C1452.92 312.517 1456.41 308.307 1462.5 307.65C1468.89 306.963 1475.52 307.381 1481.94 307.291C1487.44 307.202 1493.56 306.366 1498.94 307.62C1511.33 310.516 1509.09 325.567 1509.12 335.272C1509.21 361.64 1507.57 388.068 1508.76 414.436C1509.33 426.978 1510.25 439.491 1510.88 452.003C1511.21 458.752 1511.45 465.5 1511.75 472.249Z" fill="black"/>
</svg>