<svg viewbox="0 0 1297 694"  xmlns="http://www.w3.org/2000/svg" xmlns:svg="http://www.w3.org/2000/svg" data-name="Layer 1">
 <defs>
  <style>.cls-1{fill:#fff;}.cls-2{fill:#e4e3fd;}.cls-3{fill:#020202;stroke:#000;stroke-miterlimit:10;stroke-width:3px;}</style>
 </defs>
 <title>final logo purple</title>
 <g class="layer">
  <title>Layer 1</title>
  <path class="cls-1" d="m264.87,1239.33c4.08,19.09 -0.88,36.12 -12,40.52c-8.17,3.23 -17.79,0 -26.55,-8.22a2.86,2.86 0 0 0 -1.45,-1.17l-0.3,-0.3a66.21,66.21 0 0 1 -14,-22c-4.66,-11.45 -6.12,-23.19 -4.37,-33.47c1.75,-9.4 6.12,-16.15 12.83,-18.79c5.54,-2.35 12.54,-1.47 19.25,2.64c1.46,2.35 2.63,4.4 3.8,6.17c-4.09,2.64 -6.42,10.27 -6.42,20.26l3.21,1.76l11.08,6.46l-12.54,1.46l-0.88,0c0.3,1.18 0.3,2.35 0.59,3.53c3.21,17.91 12,31.12 19,29.65c6.41,-1.17 9.62,-14.38 7.58,-30.24c0.88,1.16 1.17,1.41 1.17,1.74z" id="svg_1" stroke="#000000" transform="translate(-107.02 -914.26)"/>
  <path class="cls-1" d="m393.21,1250.78a60.93,60.93 0 0 1 -12,17l-0.21,0a4.47,4.47 0 0 0 -1.17,1.18c-8.75,7.93 -18.37,11.45 -26.54,8.22c-11.09,-4.7 -16,-21.43 -12,-40.52c1.46,-1.76 3.21,-3.82 4.67,-5.58a164.67,164.67 0 0 0 12.83,-20l1.17,-2.06c1.16,-1.76 2,-3.82 3.21,-5.58q1.74,-3.08 4.37,-7a29.82,29.82 0 0 1 9.92,-3.81c-2,4.69 -2.33,10.27 -2.33,15.27l3.2,1.76l11.09,6.46l-12.54,1.46l-0.88,0c0.29,1.18 0.29,2.35 0.58,3.82c3.21,15.6 10.21,27.92 16.63,29.38z" id="svg_2" stroke="#000000" transform="translate(-107.02 -914.26)"/>
  <path class="cls-2" d="m307.19,329.74a3.63,3.63 0 0 0 -5,0.59a81.91,81.91 0 0 1 -11.08,11.45a61.15,61.15 0 0 0 3.5,-7.63c5.25,-12.63 6.71,-25.84 4.67,-37.29c-2.34,-12 -8.17,-20.56 -16.92,-24.08a23.81,23.81 0 0 0 -13.71,-1.18c4.37,-4.4 10.21,-8.51 17.5,-10c8.17,-1.47 16.63,1.47 20.42,7.34a3.63,3.63 0 0 0 5,0.88a3.38,3.38 0 0 0 0.87,-4.7c-5.54,-8.22 -16.62,-12.33 -27.42,-10c-11.08,2.06 -19.25,9.69 -24.21,15.56c-2,2.35 -3.79,5 -5.54,7.34a89.83,89.83 0 0 0 -5,8.22c-1.16,2.06 -2.33,3.82 -3.21,5.58l-1.16,2.06c-3.79,6.46 -7.59,13.21 -12.25,19.08c-5.84,7.64 -11.67,12.92 -18.38,16.74a39.45,39.45 0 0 1 4.38,-14.09a3.44,3.44 0 0 0 -1.46,-4.7a3.4,3.4 0 0 0 -4.67,1.47a47.19,47.19 0 0 0 -5.25,17.61c0,0.89 -0.29,3.53 1.46,5.58a5.24,5.24 0 0 0 4.08,1.76a6.59,6.59 0 0 0 4.38,-1.46a61.26,61.26 0 0 0 7.87,-5.29c-1.75,18.5 5,34.06 17.5,39.35a23.4,23.4 0 0 0 8.75,1.76c8.46,0 17.51,-4.41 25.38,-12a92.18,92.18 0 0 0 29.46,-24.66a3.49,3.49 0 0 0 0.04,-5.29zm-112.88,-242.5c90.13,0 163.64,116.57 163.64,259.56s-73.51,259.56 -163.64,259.56c-90.43,0 -163.64,-116.57 -163.64,-259.56s73.51,-259.56 163.64,-259.56zm97.42,368.2a1.55,1.55 0 0 0 0.29,-2.35a1.53,1.53 0 0 0 -2.33,-0.29l-122.51,93.66a1.57,1.57 0 0 0 -0.29,2.35a2.18,2.18 0 0 0 1.46,0.59a1.74,1.74 0 0 0 1.16,-0.29l122.22,-93.67zm-42.58,71.64a1.55,1.55 0 0 0 0.29,-2.34a1.54,1.54 0 0 0 -2.34,-0.3l-31.21,23.2a1.57,1.57 0 0 0 -0.29,2.35a1.62,1.62 0 0 0 1.46,0.88c0.29,0 0.58,-0.3 0.88,-0.3l31.21,-23.49zm-8.76,-399.91a1.56,1.56 0 0 0 0.3,-2.35a1.54,1.54 0 0 0 -2.34,-0.29l-122.51,93.37a1.57,1.57 0 0 0 -0.29,2.35a2.25,2.25 0 0 0 1.46,0.59c0.29,0 0.88,0 0.88,-0.3l122.5,-93.37zm-13.7,95.43a1.57,1.57 0 0 0 0.29,-2.35a1.54,1.54 0 0 0 -2.34,-0.29l-31.21,22.9a1.57,1.57 0 0 0 -0.29,2.35c0.29,0.59 0.88,0.59 1.46,0.59a1.07,1.07 0 0 0 0.88,-0.3l31.21,-22.9zm-1.71,211.41a1.57,1.57 0 0 0 0.29,-2.35a1.55,1.55 0 0 0 -2.34,-0.3l-66.21,50.8a1.57,1.57 0 0 0 -0.29,2.35a2.23,2.23 0 0 0 1.46,0.59a1,1 0 0 0 0.87,-0.3l66.22,-50.79zm-7.88,-23.49a1.67,1.67 0 0 0 -2,-2.65l-31.21,23.2a1.55,1.55 0 0 0 -0.29,2.35a1.59,1.59 0 0 0 1.45,0.88a2.91,2.91 0 0 0 0.88,-0.29l31.17,-23.49zm-12.58,-281.88a1.57,1.57 0 0 0 0.29,-2.35a1.53,1.53 0 0 0 -2.33,-0.29l-66.22,51.09a1.57,1.57 0 0 0 -0.29,2.35a2.24,2.24 0 0 0 1.46,0.58a1.78,1.78 0 0 0 1.17,-0.29l65.92,-51.09zm-22.17,209.1c1.75,-2.06 1.46,-4.7 1.46,-5.58a54.86,54.86 0 0 0 -5,-17.91a3.4,3.4 0 0 0 -4.67,-1.47a3.44,3.44 0 0 0 -1.46,4.7a41.4,41.4 0 0 1 4.38,14.09q-9.63,-5.71 -18.38,-16.73a175.77,175.77 0 0 1 -12.21,-19.1l-1.46,-2.35c-1.16,-1.76 -2,-3.82 -3.21,-5.58c-1.45,-2.35 -2.91,-5.28 -4.95,-8.22l0,-0.29a60,60 0 0 0 -5.55,-7.34c-5,-5.88 -13.12,-13.22 -24.21,-15.56c-10.79,-2.06 -21.87,2 -27.42,10a3.34,3.34 0 0 0 0.88,4.7a3.3,3.3 0 0 0 4.67,-0.88c4.08,-5.88 12.54,-8.81 20.42,-7.34c7.29,1.46 13.12,5.87 17.5,10a27.11,27.11 0 0 0 -13.71,1.17c-8.75,3.53 -14.59,12 -16.92,24.08c-2,11.45 -0.29,24.66 4.67,37.29c1.16,2.64 2.33,5.28 3.5,7.63a81.43,81.43 0 0 1 -11.09,-11.45a3.62,3.62 0 0 0 -5,-0.58a3.67,3.67 0 0 0 -0.58,5a103.62,103.62 0 0 0 29.46,24.66c7.88,7.64 16.92,11.75 25.67,11.75a22.07,22.07 0 0 0 8.75,-1.77c12.54,-5.28 19,-20.55 17.5,-39.34a46.15,46.15 0 0 0 7.88,5.28a8.19,8.19 0 0 0 4.37,1.18c2.34,1.68 3.83,1.09 4.71,-0.04z" id="svg_3" stroke="#000000"/>
  <path class="cls-3" d="m448.63,1067.56c29.46,54 45.5,122.44 45.5,193.79c0,123.62 -49,234.9 -122.8,279.24a24.84,24.84 0 0 1 1.17,6.75a22.74,22.74 0 0 1 -22.5,22.66a22.14,22.14 0 0 1 -12.25,-3.52a16.88,16.88 0 0 1 0.29,3.81a36.46,36.46 0 1 1 -72.92,0a16.88,16.88 0 0 1 0.29,-3.81a22.14,22.14 0 0 1 -12.21,3.52a22.54,22.54 0 0 1 -22.46,-22.61a17.2,17.2 0 0 1 1.17,-6.75c-74.09,-44.63 -123.39,-155.91 -123.39,-279.24c0,-71.93 16.34,-140.93 46.38,-195.25a18.53,18.53 0 0 1 -3.5,-3.23c-9.92,-11.16 -15.46,-26.43 -16.92,-42.58a82.87,82.87 0 0 1 5,-33.77c0.58,-1.76 2.63,-6.75 7.59,-7.34c5.25,-0.58 8.45,3.82 11.37,7.93c1.17,1.47 2.33,2.94 2.92,3.82c5.54,5.28 12.54,9.69 21.58,13.8a127.2,127.2 0 0 0 13.42,5.28a180.6,180.6 0 0 1 35,-27.89a27.46,27.46 0 0 1 -1.16,-6.75a22.74,22.74 0 0 1 22.46,-22.61a22.14,22.14 0 0 1 12.25,3.52c0,-1.17 -0.29,-2.64 -0.29,-3.82a36.46,36.46 0 1 1 72.92,0a16.93,16.93 0 0 1 -0.29,3.82a22.11,22.11 0 0 1 12.25,-3.52a22.55,22.55 0 0 1 22.46,22.61a17.2,17.2 0 0 1 -1.17,6.75a182.87,182.87 0 0 1 36.17,29.07a130.86,130.86 0 0 0 13.71,-5.29c9,-4.11 16,-8.51 21.58,-13.8a21.25,21.25 0 0 0 2.92,-3.81c2.92,-4.11 6.13,-8.52 11.38,-7.93c5,0.59 7,5.58 7.58,7.34a78,78 0 0 1 4.67,33.77c-1.17,15.85 -7,31.41 -16.92,42.57a8.44,8.44 0 0 1 -3.25,3.47zm16.37,193.79c0,-143.28 -73.51,-259.56 -163.64,-259.56c-90.43,0 -163.64,116.57 -163.64,259.56s73.51,259.57 163.64,259.57c90.39,0 163.64,-116.57 163.64,-259.57z" id="svg_4" stroke="#000000" transform="translate(-107.02 -914.26)"/>
  <path d="m354.12,1438.7a1.76,1.76 0 0 1 2.34,0.3a1.78,1.78 0 0 1 -0.29,2.34l-31.17,23.2a1.1,1.1 0 0 1 -0.88,0.29a1.6,1.6 0 0 1 -1.46,-0.88a1.79,1.79 0 0 1 0.29,-2.35l31.17,-22.9z" id="svg_5" stroke="#000000" transform="translate(-107.02 -914.26)"/>
  <path d="m381.25,1267.81a69.73,69.73 0 0 0 12,-17c-6.42,-1.76 -13.42,-13.8 -16.33,-29.65a14.65,14.65 0 0 1 -0.59,-3.82l0.88,0l12.54,-1.47l-11.08,-6.46l-3.21,-1.76c0,-5 0.29,-10.57 2.33,-15.27a27.86,27.86 0 0 0 -9.92,3.82a65.67,65.67 0 0 0 -4.37,7c-1.17,2 -2.34,3.82 -3.21,5.58l-1.17,2a190.9,190.9 0 0 1 -12.83,20c-1.46,2 -3.21,3.81 -4.67,5.58c-4.08,19.08 0.88,35.82 12,40.52c8.17,3.23 17.79,-0.3 26.54,-8.23a5.87,5.87 0 0 1 1.09,-0.84zm38.5,-88.67a3.12,3.12 0 0 1 -0.87,4.7a3.43,3.43 0 0 1 -5,-0.88c-4.08,-5.87 -12.54,-8.81 -20.42,-7.34c-7.29,1.47 -13.12,5.87 -17.5,10a27.23,27.23 0 0 1 13.71,1.17c8.75,3.53 14.88,12 16.92,24.08c2,11.45 0.29,24.67 -4.67,37.29c-1.17,2.64 -2.33,5.29 -3.5,7.64a81.42,81.42 0 0 0 11.08,-11.46a3.63,3.63 0 0 1 5,-0.58a3.69,3.69 0 0 1 0.59,5a98.81,98.81 0 0 1 -29.46,24.66c-7.88,7.64 -16.92,12 -25.38,12a21.24,21.24 0 0 1 -8.75,-1.76c-12.54,-5.29 -19,-20.55 -17.5,-39.35a61.35,61.35 0 0 1 -7.88,5.29a9.66,9.66 0 0 1 -4.37,1.47a5.77,5.77 0 0 1 -4.09,-1.76c-1.75,-2.06 -1.46,-4.7 -1.46,-5.58a47.38,47.38 0 0 1 5.26,-17.62a3.38,3.38 0 0 1 4.66,-1.47a3.43,3.43 0 0 1 1.46,4.7a41.85,41.85 0 0 0 -4.38,14.09q9.63,-5.71 18.38,-16.73a150.45,150.45 0 0 0 12.25,-19.09l1.17,-2c1.17,-2.06 2.33,-3.82 3.21,-5.58c1.46,-2.35 2.91,-5.29 5,-8.22c1.75,-2.35 3.5,-5 5.54,-7.34c5,-5.88 13.42,-13.22 24.21,-15.57c10.17,-2.09 21.25,2.02 26.79,10.24z" id="svg_6" stroke="#000000" transform="translate(-107.02 -914.26)"/>
  <path d="m333.71,1136.86l-31.51,23.2a1.07,1.07 0 0 1 -0.87,0.29a2.18,2.18 0 0 1 -1.46,-0.59a1.79,1.79 0 0 1 0.29,-2.35l31.21,-23.19a1.76,1.76 0 0 1 2.34,0.29c1.16,0.59 0.87,1.76 0,2.35z" id="svg_7" stroke="#000000" transform="translate(-107.02 -914.26)"/>
  <path d="m322,1321.84a1.76,1.76 0 0 1 2.33,0.29a1.78,1.78 0 0 1 -0.29,2.35l-31.21,23.2a1.08,1.08 0 0 1 -0.88,0.29a1.59,1.59 0 0 1 -1.45,-0.88a1.77,1.77 0 0 1 0.29,-2.35l31.21,-22.9z" id="svg_8" stroke="#000000" transform="translate(-107.02 -914.26)"/>
  <path d="m289.69,452.8a1.75,1.75 0 0 1 2.33,0.29a1.77,1.77 0 0 1 -0.29,2.35l-122.51,93.67c-0.29,0.29 -0.58,0.29 -1.16,0.29a2.18,2.18 0 0 1 -1.46,-0.59a1.54,1.54 0 0 1 0.29,-2.35l122.8,-93.66z" id="svg_9" stroke="#000000"/>
  <path d="m222.89,431.07a1.77,1.77 0 0 1 2.34,0.29a1.54,1.54 0 0 1 -0.25,2.38l-66.22,51.09a1,1 0 0 1 -0.87,0.3a2.23,2.23 0 0 1 -1.46,-0.59a1.54,1.54 0 0 1 0.29,-2.35l66.17,-51.12z" id="svg_10" stroke="#000000"/>
  <path d="m309.5,1040.26a1.75,1.75 0 0 1 2.33,0.29a1.54,1.54 0 0 1 -0.29,2.35l-65.92,51.1c-0.3,0.29 -0.59,0.29 -1.17,0.29s-0.88,-0.29 -1.46,-0.58a1.79,1.79 0 0 1 0.29,-2.35l66.22,-51.1z" id="svg_11" stroke="#000000" transform="translate(-107.02 -914.26)"/>
  <path d="m222.86,1132.16l122.51,-93.66a1.67,1.67 0 1 1 2,2.64l-122.5,93.66a1.07,1.07 0 0 1 -0.88,0.3a2.25,2.25 0 0 1 -1.46,-0.59a1.57,1.57 0 0 1 0.33,-2.35z" id="svg_12" stroke="#000000" transform="translate(-107.02 -914.26)"/>
  <path d="m253.2,1279.85c11.08,-4.4 16,-21.43 12,-40.52l-0.88,-0.88c2.05,15.86 -1.16,29.07 -7.58,30.24c-7.29,1.47 -15.75,-12 -19,-29.65c-0.29,-1.18 -0.29,-2.35 -0.58,-3.52l0.84,0l12.54,-1.47l-11.08,-6.46l-3.21,-1.76c0,-10 2.34,-17.62 6.42,-20.26a70.76,70.76 0 0 0 -3.79,-6.17c-7,-4.11 -13.71,-5 -19.25,-2.64c-6.42,2.64 -11.09,9.39 -12.84,18.79c-1.75,10 -0.29,22 4.38,33.47a66.21,66.21 0 0 0 14,22a0.29,0.29 0 0 1 0.29,0.3a6.42,6.42 0 0 1 1.46,1.17c8.2,7.07 18.08,10.59 26.28,7.36zm-39.09,-108.34c11.09,2 19.26,9.69 24.21,15.56c2.05,2.35 3.8,5 5.55,7.34l0,0.29a89.83,89.83 0 0 1 5,8.22c1.16,1.77 2,3.53 3.2,5.58l1.46,2.35a193.1,193.1 0 0 0 12.25,19.09c5.84,7.34 11.67,12.92 18.38,16.73a39.45,39.45 0 0 0 -4.38,-14.09a3.44,3.44 0 0 1 1.46,-4.7a3.4,3.4 0 0 1 4.67,1.47a42.09,42.09 0 0 1 5,17.91c0,0.88 0.29,3.52 -1.46,5.58a5.77,5.77 0 0 1 -4.08,1.76a12.32,12.32 0 0 1 -4.38,-1.17a61.26,61.26 0 0 1 -7.87,-5.29c1.74,18.5 -5,34.06 -17.51,39.35a23.32,23.32 0 0 1 -8.75,1.76c-8.46,0 -17.5,-4.41 -25.67,-11.75a96.14,96.14 0 0 1 -29.46,-24.66a3.69,3.69 0 0 1 0.59,-5a3.63,3.63 0 0 1 5,0.58a81.42,81.42 0 0 0 11.08,11.46a61.29,61.29 0 0 1 -3.5,-7.64c-5,-12.62 -6.71,-25.84 -4.67,-37.29c2,-12 8.17,-20.55 16.92,-24.07a23.72,23.72 0 0 1 13.71,-1.18c-4.38,-4.4 -10.21,-8.81 -17.5,-10c-8.17,-1.47 -16.63,1.47 -20.42,7.34a3.34,3.34 0 0 1 -4.67,0.88a3.39,3.39 0 0 1 -0.87,-4.7c4.84,-9.95 15.92,-13.77 26.71,-11.71z" id="svg_13" stroke="#000000" transform="translate(-107.02 -914.26)"/>
  <path d="m792.44,1243.73l0,94.87l-40.39,0l0,-85.34c0,-3.41 -1.13,-4.53 -5,-4.53c-8.17,0 -14.08,2 -22,6.34l0,83.51l-40.4,0l0,-85.32c0,-3.41 -1.12,-4.53 -5,-4.53c-8.16,0 -14.08,2 -22,6.34l0,83.51l-40.4,0l0,-122.58l40.4,0l0,14.28c6.12,-7 14.31,-15.67 33.81,-15.67c18.84,0 28.83,5.69 32.23,17.49c5.69,-8.17 16.1,-17.49 35.18,-17.49c24.25,0.07 33.57,9.39 33.57,29.12z" id="svg_14" stroke="#000000" transform="translate(-107.02 -914.26)"/>
  <path d="m813.79,1172.93l42.21,0l0,31.07l-42.21,0l0,-31.07zm0.9,43.11l40.39,0l0,122.54l-40.39,0l0,-122.54z" id="svg_15" stroke="#000000" transform="translate(-107.02 -914.26)"/>
  <path d="m878.22,1216l40.4,0l0,15.66c5.22,-7 14.08,-15.66 28.82,-15.66l12.7,0l0,35.17l-15,0c-10.45,0 -19.28,1.59 -26.55,6.35l0,81l-40.4,0l0,-122.52l0.03,0z" id="svg_16" stroke="#000000" transform="translate(-107.02 -914.26)"/>
  <path d="m976.5,1216l40.39,0l0,15.66c5.23,-7 14.09,-15.66 28.83,-15.66l12.7,0l0,35.17l-15,0c-10.44,0 -19.27,1.59 -26.55,6.35l0,81l-40.37,0l0,-122.52z" id="svg_17" stroke="#000000" transform="translate(-107.02 -914.26)"/>
  <path d="m1069.09,1309.55l0,-64.46c0,-19.73 9.29,-29 29.05,-29l49.93,0c19.73,0 29,9.29 29,29l0,64.46c0,19.74 -9.29,29 -29,29l-49.93,0c-19.73,0.03 -29.05,-9.26 -29.05,-29zm64,-2.74c3.4,0 4.53,-1.13 4.53,-4.53l0,-49.92c0,-3.4 -1.13,-4.53 -4.53,-4.53l-20,0c-3.41,0 -4.53,1.13 -4.53,4.53l0,49.92c0,3.4 1.12,4.53 4.53,4.53l20,0z" id="svg_18" stroke="#000000" transform="translate(-107.02 -914.26)"/>
  <path d="m1198.24,1216l40.4,0l0,15.66c5.22,-7 14.08,-15.66 28.82,-15.66l12.7,0l0,35.17l-15,0c-10.45,0 -19.28,1.59 -26.54,6.35l0,81l-40.4,0l0,-122.52l0.02,0z" id="svg_19" stroke="#000000" transform="translate(-107.02 -914.26)"/>
  <path class="cls-2" d="m1395.55,1330.39c0.08,1.69 0.75,5.5 -0.48,6.91c-1.51,1.72 -5.42,1.26 -7.42,1.2c-7.66,-0.23 -15.31,-0.1 -23,0c-0.33,-5.19 -0.74,-10.36 -1,-15.56a3.81,3.81 0 0 0 -0.16,-1.08a4.08,4.08 0 0 0 -1.79,-2.53s-0.13,-0.08 -0.18,-0.13a0.91,0.91 0 0 1 -0.13,-0.08a4.49,4.49 0 0 0 -5.89,1.16c-10.41,10.11 -23.17,19.35 -38.12,20.35c-6.45,0.41 -14.28,-0.31 -18.41,-6c-3.76,-5.17 -3.86,-12.32 -4.08,-18.43c-0.57,-16.39 -1.39,-32.8 -1.6,-49.2c-0.14,-14.11 2.72,-30.42 18.52,-34.46c8.29,-2.13 16.94,-0.28 25,2.12c6.93,2.1 14.82,4.66 19.38,10.68a4.72,4.72 0 0 0 6.94,1a3.49,3.49 0 0 0 1.14,-4.71q-0.61,-13.59 -1.22,-27.21c-0.21,-4.68 -0.44,-9.37 -0.64,-14q-0.17,-3.35 -0.29,-6.68c-0.07,-1.46 -0.94,-5.15 -0.13,-6.35c0.54,-0.82 9.23,-0.21 11,-0.23c4.88,-0.08 9.77,-0.21 14.67,-0.18c1.14,0 3.5,-0.28 4.42,0.69s0.62,3.76 0.64,5.07c0.13,5 0.13,10 0.1,15c-0.07,19.46 -1.18,38.94 -0.46,58.4c0.7,18.76 2,37.47 2.85,56.24c0.12,2.62 0.24,5.35 0.34,8.01zm-32.5,-45.06q0.81,-10.86 0.56,-21.75a4.24,4.24 0 0 0 -0.31,-1.49a3.67,3.67 0 0 0 -0.72,-2c-2.89,-4.35 -7.34,-6.19 -12.38,-6.83s-10.43,-0.77 -15.08,1.12c-11,4.51 -10.26,19 -10.8,28.88s-3,24.83 8,30c5.3,2.54 11,1.9 16.61,0.67c5.2,-1.18 10.11,-3 11.72,-8.65a59.21,59.21 0 0 0 1.43,-9.63c0.38,-3.43 0.71,-6.86 0.97,-10.32z" id="svg_20" stroke="#000000" transform="translate(-107.02 -914.26)"/>
  <path d="m1363.61,1263.58q0.24,10.9 -0.56,21.75c-0.26,3.46 -0.59,6.89 -1,10.32c-0.38,3.15 -0.54,6.55 -1.44,9.63c-1.61,5.6 -6.52,7.47 -11.72,8.65c-5.58,1.23 -11.31,1.87 -16.61,-0.67c-11,-5.22 -8.5,-20.22 -8,-30s-0.18,-24.37 10.8,-28.88c4.66,-1.89 10.19,-1.76 15.08,-1.12s9.49,2.48 12.38,6.83a3.7,3.7 0 0 1 0.72,2a4.24,4.24 0 0 1 0.35,1.49zm-10,29a227.07,227.07 0 0 0 1.2,-28.31c-1.9,-2.49 -6.09,-2.54 -8.91,-2.64c-3.56,-0.1 -8.21,-0.31 -10.26,3.23c-1.79,3.09 -1.77,7.27 -2.05,10.72c-0.39,4.74 -0.67,9.5 -0.82,14.23c-0.11,3.84 -0.72,8.32 0.46,12.06c1.07,3.51 4.38,4.51 7.78,4.43a31.81,31.81 0 0 0 6.45,-1c1.21,-0.28 3.31,-0.43 4.23,-1.41s1,-3.38 1.13,-4.73c0.32,-2.23 0.57,-4.4 0.81,-6.58l-0.02,0z" id="svg_21" stroke="#000000" transform="translate(-107.02 -914.26)"/>
  <path d="m1361.76,1319.33a4,4 0 0 1 1.79,2.53a3.49,3.49 0 0 1 0.16,1.08c0.23,5.2 0.64,10.37 1,15.56c7.66,-0.1 15.31,-0.23 23,0c2,0.06 5.92,0.52 7.42,-1.2c1.24,-1.41 0.57,-5.22 0.49,-6.91c-0.1,-2.66 -0.23,-5.35 -0.33,-8c-0.79,-18.77 -2.15,-37.48 -2.84,-56.24c-0.72,-19.46 0.39,-38.94 0.46,-58.4c0,-5 0,-10 -0.1,-15c0,-1.31 0.33,-4 -0.64,-5.07s-3.28,-0.69 -4.43,-0.69c-4.89,0 -9.78,0.1 -14.67,0.18c-1.74,0 -10.42,-0.59 -11,0.23c-0.81,1.2 0.06,4.89 0.13,6.35q0.12,3.33 0.29,6.68c0.2,4.68 0.43,9.37 0.64,14q0.6,13.63 1.22,27.21a3.5,3.5 0 0 1 -1.14,4.71a4.73,4.73 0 0 1 -7,-1c-4.55,-6 -12.44,-8.58 -19.37,-10.68c-8,-2.4 -16.69,-4.25 -25,-2.12c-15.79,4 -18.66,20.35 -18.51,34.46c0.21,16.4 1,32.81 1.59,49.2c0.23,6.11 0.33,13.26 4.09,18.43c4.13,5.68 12,6.4 18.41,6c15,-1 27.7,-10.24 38.12,-20.35a4,4 0 0 1 1.41,-1.23a4.07,4.07 0 0 1 4.47,0.07a0.91,0.91 0 0 0 0.13,0.08c0.08,0.04 0.16,0.07 0.21,0.12zm42.12,0.38c0.19,5.1 0.84,10.37 0.5,15.47c-0.58,9.26 -7.6,12.26 -15.92,12.1c-9.29,-0.15 -18.58,0 -27.87,0a4.44,4.44 0 0 1 -4.38,-4.38c-0.16,-3.61 -0.43,-7.22 -0.69,-10.8c-13.16,11.06 -29.32,19.45 -46.93,16.89c-7.88,-1.15 -15,-5.19 -18.61,-12.51c-3.48,-7.12 -3.61,-15.23 -3.86,-23q-0.54,-15.43 -1,-30.84c-0.34,-9.37 -1.08,-18.87 0.15,-28.19c1.1,-8.11 4,-16.15 9.72,-22.14s14,-8.93 22.27,-9.45c9.07,-0.53 18.33,1.9 26.84,4.89a52.48,52.48 0 0 1 11.08,5.17c-0.41,-9.06 -0.82,-18.15 -1.23,-27.21c-0.25,-5.89 -1,-12 -0.74,-17.84c0.26,-5.15 3.25,-8.75 8.47,-9.32c5.48,-0.59 11.16,-0.23 16.66,-0.31c4.72,-0.07 10,-0.79 14.58,0.29c10.62,2.48 8.7,15.38 8.72,23.7c0.08,22.6 -1.33,45.26 -0.31,67.86c0.49,10.76 1.28,21.48 1.82,32.21c0.26,5.84 0.47,11.63 0.73,17.41z" id="svg_22" stroke="#000000" transform="translate(-107.02 -914.26)"/>
 </g>
</svg>