<svg width="141" height="76" viewBox="0 0 141 76" fill="none" xmlns="http://www.w3.org/2000/svg">
<g clip-path="url(#clip0_755_293)">
<path d="M17.0207 35.1904C17.4636 37.2604 16.9258 39.1076 15.7236 39.5853C14.8377 39.9356 13.7937 39.5853 12.8446 38.6935C12.813 38.6299 12.7497 38.598 12.6864 38.5662C12.6864 38.5662 12.6864 38.5662 12.6548 38.5343C12.0537 37.9292 11.5158 37.1012 11.1362 36.1458C10.63 34.9038 10.4718 33.6299 10.6616 32.5153C10.8515 31.4962 11.326 30.7637 12.0537 30.4771C12.6548 30.2223 13.4141 30.3179 14.1417 30.7637C14.2999 31.0185 14.4264 31.2414 14.553 31.4325C14.1101 31.7191 13.857 32.5471 13.857 33.6299L14.205 33.821L15.4072 34.5216L14.0468 34.6809H13.9519C13.9835 34.8083 13.9835 34.9356 14.0152 35.063C14.3632 37.0057 15.3123 38.4388 16.0716 38.2795C16.7676 38.1521 17.1156 36.7191 16.8941 34.9993C16.989 35.1267 17.0207 35.1586 17.0207 35.1904Z" fill="white"/>
<path d="M30.9415 36.4326C30.5935 37.1651 30.1506 37.7702 29.6444 38.2797C29.6444 38.2797 29.6444 38.2797 29.6128 38.2797C29.5495 38.3115 29.5179 38.3752 29.4862 38.4071C28.5371 39.2669 27.4931 39.6491 26.6072 39.2988C25.405 38.7892 24.8672 36.974 25.3101 34.904C25.4683 34.7129 25.6581 34.4899 25.8163 34.2989C26.3541 33.5982 26.7971 32.8658 27.2084 32.1333L27.3349 31.9104C27.4614 31.7193 27.5564 31.4964 27.6829 31.3053C27.8095 31.0824 27.9676 30.8276 28.1575 30.541C28.5371 30.318 28.8851 30.1906 29.2331 30.127C29.0117 30.6365 28.98 31.2416 28.98 31.783L29.328 31.9741L30.5302 32.6747L29.1698 32.8339H29.0749C29.1066 32.9613 29.1066 33.0887 29.1382 33.2479C29.4862 34.9358 30.2455 36.2734 30.9415 36.4326Z" fill="white"/>
<path d="M33.2194 35.7001C33.0613 35.5727 32.8082 35.6046 32.6816 35.7638C32.3336 36.2097 31.9223 36.6237 31.4794 37.0058C31.606 36.7511 31.7641 36.4644 31.8591 36.1778C32.4285 34.8084 32.5867 33.3753 32.3652 32.1333C32.1122 30.8276 31.4794 29.904 30.5303 29.5219C30.0874 29.3308 29.5812 29.2989 29.0434 29.3945C29.5179 28.9168 30.1507 28.4709 30.9416 28.3117C31.8274 28.1525 32.7449 28.4709 33.1562 29.1079C33.2827 29.2671 33.5042 29.3308 33.694 29.2034C33.8522 29.076 33.9155 28.8531 33.7889 28.6939C33.1878 27.8021 31.9856 27.3563 30.815 27.6111C29.6128 27.834 28.727 28.662 28.1892 29.2989C27.9677 29.5537 27.7779 29.8403 27.5881 30.0951C27.3666 30.4136 27.2084 30.7002 27.0502 30.9868C26.9237 31.2097 26.7971 31.4008 26.7022 31.5919L26.5757 31.8148C26.1644 32.5155 25.7531 33.2479 25.2469 33.8849C24.6142 34.7129 23.9814 35.2861 23.2538 35.7001C23.3171 35.1587 23.4752 34.6492 23.7283 34.1715C23.8232 33.9804 23.76 33.7575 23.5702 33.6619C23.3803 33.5664 23.1589 33.6301 23.064 33.8212C22.7476 34.4263 22.5578 35.0632 22.4945 35.732C22.4945 35.8275 22.4629 36.1141 22.6527 36.3371C22.7792 36.4644 22.9058 36.5281 23.0956 36.5281C23.2538 36.5281 23.412 36.4963 23.5702 36.3689C23.8549 36.2097 24.1396 36.0186 24.4244 35.7957C24.2345 37.802 24.9622 39.4899 26.3226 40.0631C26.6389 40.1905 26.9553 40.2542 27.2717 40.2542C28.1892 40.2542 29.1699 39.7765 30.0241 38.9485C31.258 38.2797 32.3652 37.388 33.2194 36.2734C33.4093 36.0823 33.3776 35.8275 33.2194 35.7001ZM20.9759 9.39478C30.7518 9.39478 38.7243 22.0379 38.7243 37.5472C38.7243 53.0566 30.7518 65.6997 20.9759 65.6997C11.1684 65.6997 3.22754 53.0566 3.22754 37.5472C3.22754 22.0379 11.2001 9.39478 20.9759 9.39478ZM31.5427 49.3305C31.6376 49.2668 31.6376 49.1394 31.5743 49.0757C31.511 48.9802 31.3845 48.9802 31.3212 49.0439L18.0337 59.203C17.9388 59.2667 17.9388 59.394 18.002 59.4577C18.0337 59.4896 18.0969 59.5214 18.1602 59.5214C18.1919 59.5214 18.2551 59.5214 18.2868 59.4896L31.5427 49.3305ZM26.9237 57.1011C27.0186 57.0374 27.0186 56.91 26.9553 56.8463C26.892 56.7508 26.7655 56.7508 26.7022 56.8145L23.3171 59.3304C23.2221 59.394 23.2221 59.5214 23.2854 59.5851C23.3171 59.6488 23.3803 59.6807 23.4436 59.6807C23.4752 59.6807 23.5069 59.6488 23.5385 59.6488L26.9237 57.1011ZM25.9746 13.7259C26.0695 13.6622 26.0695 13.5348 26.0062 13.4711C25.9429 13.3756 25.8164 13.3756 25.7531 13.4393L12.4656 23.5665C12.3706 23.6302 12.3706 23.7576 12.4339 23.8213C12.4656 23.8532 12.5288 23.885 12.5921 23.885C12.6237 23.885 12.687 23.885 12.687 23.8532L25.9746 13.7259ZM24.4876 24.0761C24.5825 24.0124 24.5825 23.885 24.5193 23.8213C24.456 23.7258 24.3294 23.7258 24.2662 23.7895L20.881 26.2735C20.7861 26.3372 20.7861 26.4646 20.8494 26.5283C20.881 26.592 20.9443 26.592 21.0076 26.592C21.0392 26.592 21.0708 26.592 21.1025 26.5601L24.4876 24.0761ZM24.2978 47.0057C24.3927 46.942 24.3927 46.8146 24.3294 46.7509C24.2662 46.6554 24.1396 46.6554 24.0763 46.7191L16.8947 52.2285C16.7998 52.2922 16.7998 52.4196 16.8631 52.4833C16.8947 52.5152 16.958 52.547 17.0213 52.547C17.0529 52.547 17.0846 52.547 17.1162 52.5152L24.2978 47.0057ZM23.4436 44.458C23.5385 44.3943 23.5385 44.2669 23.4752 44.2032C23.412 44.1076 23.2854 44.1076 23.2221 44.1713L19.837 46.6872C19.7421 46.7509 19.7421 46.8783 19.8053 46.942C19.837 47.0057 19.9003 47.0375 19.9635 47.0375C19.9952 47.0375 20.0584 47.0057 20.0584 47.0057L23.4436 44.458ZM22.0832 13.8852C22.1781 13.8215 22.1781 13.6941 22.1148 13.6304C22.0516 13.5348 21.925 13.5348 21.8618 13.5985L14.6801 19.1399C14.5852 19.2035 14.5852 19.3309 14.6485 19.3946C14.6801 19.4265 14.7434 19.4583 14.8067 19.4583C14.8383 19.4583 14.9016 19.4583 14.9332 19.4265L22.0832 13.8852ZM19.6788 36.56C19.8686 36.3371 19.837 36.0504 19.837 35.9549C19.7737 35.2861 19.5839 34.6173 19.2992 34.0123C19.2042 33.8212 18.9828 33.7575 18.793 33.853C18.6031 33.9486 18.5399 34.1715 18.6348 34.3626C18.8879 34.8403 19.0461 35.3817 19.1093 35.8912C18.4133 35.4772 17.7489 34.8721 17.1162 34.0759C16.61 33.4072 16.1671 32.6747 15.7874 32.0059L15.6293 31.7511C15.5027 31.5601 15.4078 31.3371 15.2812 31.1461C15.1231 30.8913 14.9649 30.5728 14.7434 30.2543C14.7434 30.2543 14.7434 30.2543 14.7434 30.2225C14.5852 29.9677 14.3638 29.6811 14.1423 29.4263C13.6045 28.7894 12.7186 27.9932 11.5164 27.7385C10.3459 27.5155 9.14366 27.9614 8.54256 28.8212C8.41601 28.9805 8.47929 29.2352 8.63747 29.3308C8.79566 29.4582 9.04875 29.3945 9.14366 29.2353C9.58658 28.5983 10.5041 28.2799 11.3583 28.4391C12.1492 28.5983 12.7819 29.076 13.2565 29.5219C12.7503 29.4263 12.2441 29.49 11.7695 29.6493C10.8204 30.0314 10.1877 30.955 9.93459 32.2607C9.71313 33.5027 9.90295 34.9358 10.4408 36.3052C10.5673 36.5918 10.6939 36.8785 10.8204 37.1332C10.3775 36.7511 9.96623 36.3371 9.61822 35.8912C9.49167 35.732 9.23858 35.7001 9.08039 35.8275C8.92221 35.9549 8.89057 36.2097 9.01712 36.3689C9.90295 37.4517 11.0102 38.3752 12.2125 39.044C13.0667 39.872 14.0474 40.3179 14.9965 40.3179C15.3129 40.3179 15.6609 40.2542 15.9456 40.1268C17.306 39.5536 18.002 37.8975 17.8438 35.8594C18.1286 36.0823 18.3817 36.2734 18.698 36.4326C18.8562 36.5281 19.0144 36.56 19.1726 36.56C19.4257 36.7511 19.5839 36.6874 19.6788 36.56Z" fill="#E4E3FD"/>
<path d="M36.9523 16.5602C40.1476 22.42 41.8876 29.8403 41.8876 37.579C41.8876 50.9864 36.5726 63.0563 28.5684 67.8652C28.6317 68.0881 28.695 68.3429 28.695 68.5976C28.695 69.9352 27.5877 71.0498 26.2589 71.0498C25.7844 71.0498 25.3098 70.9225 24.9302 70.6677C24.9618 70.7951 24.9618 70.9543 24.9618 71.0817C24.9618 73.2791 23.1901 75.0625 21.0072 75.0625C18.8242 75.0625 17.0526 73.2791 17.0526 71.0817C17.0526 70.9543 17.0526 70.7951 17.0842 70.6677C16.7046 70.9225 16.23 71.0498 15.7554 71.0498C14.4267 71.0498 13.3194 69.9671 13.3194 68.5976C13.3194 68.3429 13.351 68.0881 13.4459 67.8652C5.41014 63.0245 0.0634766 50.9546 0.0634766 37.579C0.0634766 29.7766 1.83515 22.2926 5.09377 16.401C4.93558 16.3054 4.84067 16.178 4.71412 16.0506C3.63846 14.8405 3.03736 13.1844 2.87917 11.4329C2.8159 10.1909 2.97408 8.91699 3.417 7.77051C3.48028 7.57943 3.70174 7.03803 4.23956 6.97434C4.80903 6.91065 5.15704 7.38835 5.47341 7.8342C5.59996 7.99343 5.72651 8.15267 5.78978 8.24821C6.39088 8.82145 7.15017 9.29915 8.13092 9.745C8.60548 9.96793 9.11167 10.159 9.58622 10.3182C10.7884 9.10807 12.0539 8.08897 13.3827 7.29281C13.3194 7.03803 13.2561 6.81511 13.2561 6.56033C13.2561 5.22277 14.3634 4.10814 15.6922 4.10814C16.1667 4.10814 16.6413 4.23553 17.0209 4.4903C17.0209 4.36291 16.9893 4.20368 16.9893 4.07629C16.9893 1.87887 18.761 0.095459 20.9439 0.095459C23.1269 0.095459 24.8985 1.87887 24.8985 4.07629C24.8985 4.20368 24.8985 4.36291 24.8669 4.4903C25.2466 4.23553 25.7211 4.10814 26.1957 4.10814C27.5561 4.10814 28.6317 5.22277 28.6317 6.56033C28.6317 6.81511 28.6001 7.06988 28.5052 7.29281C29.8656 8.12082 31.1943 9.17176 32.4282 10.4456C32.9344 10.2864 33.4089 10.0953 33.9151 9.87239C34.8959 9.42653 35.6551 8.94883 36.2562 8.37559C36.3512 8.28005 36.4777 8.12082 36.5726 7.96159C36.889 7.51573 37.237 7.03803 37.8065 7.10173C38.3443 7.16542 38.5657 7.70681 38.629 7.89789C39.0719 9.04437 39.2301 10.3182 39.1352 11.5603C39.0087 13.28 38.3759 14.9679 37.3003 16.178C37.2686 16.2736 37.1421 16.4328 36.9523 16.5602ZM38.7239 37.579C38.7239 22.0378 30.7514 9.42653 20.9756 9.42653C11.1681 9.42653 3.22718 22.0697 3.22718 37.579C3.22718 53.0883 11.1997 65.7314 20.9756 65.7314C30.783 65.7314 38.7239 53.0883 38.7239 37.579Z" fill="black"/>
<path d="M26.7023 56.8145C26.7972 56.7508 26.8921 56.7827 26.9554 56.8464C27.0186 56.9419 26.987 57.0374 26.9237 57.1011L23.5386 59.617C23.5069 59.6489 23.4753 59.6489 23.4437 59.6489C23.3804 59.6489 23.3171 59.617 23.2855 59.5533C23.2222 59.4578 23.2538 59.3622 23.3171 59.2985L26.7023 56.8145Z" fill="black"/>
<path d="M29.6439 38.2796C30.1185 37.8019 30.5614 37.165 30.9411 36.4325C30.2451 36.2414 29.4858 34.9357 29.1694 33.216C29.1378 33.0886 29.1061 32.9612 29.1061 32.802H29.201L30.5614 32.6428L29.3592 31.9421L29.0112 31.751C29.0112 31.2097 29.0428 30.6046 29.2643 30.095C28.9163 30.1587 28.5367 30.2861 28.1886 30.509C27.9988 30.7638 27.8406 31.0504 27.7141 31.2733C27.5875 31.4963 27.461 31.6874 27.3661 31.8784L27.2395 32.1014C26.8283 32.802 26.3853 33.5663 25.8475 34.2669C25.6893 34.4899 25.4995 34.6809 25.3413 34.872C24.8984 36.9421 25.4362 38.7573 26.6384 39.2669C27.5243 39.6172 28.5683 39.235 29.5174 38.3752C29.5174 38.3752 29.5807 38.3115 29.6439 38.2796ZM33.82 28.6619C33.9466 28.8212 33.9149 29.0759 33.7251 29.1715C33.5669 29.2989 33.3138 29.267 33.1873 29.0759C32.7444 28.439 31.8269 28.1205 30.9727 28.2798C30.1818 28.439 29.549 28.9167 29.0745 29.3625C29.5807 29.267 30.0869 29.3307 30.5614 29.4899C31.5105 29.8721 32.1749 30.7956 32.3964 32.1014C32.6178 33.3434 32.428 34.7765 31.8902 36.1459C31.7636 36.4325 31.6371 36.7191 31.5105 36.9739C31.9535 36.5917 32.3647 36.1777 32.7127 35.7319C32.8393 35.5726 33.0924 35.5408 33.2506 35.6682C33.4088 35.7956 33.4404 36.0503 33.3138 36.2096C32.428 37.3242 31.3207 38.2159 30.1185 38.8847C29.2643 39.7127 28.2836 40.1904 27.3661 40.1904C27.0181 40.1904 26.7017 40.1267 26.417 39.9993C25.0566 39.4261 24.3606 37.7701 24.5187 35.7319C24.234 35.9548 23.9493 36.1459 23.6646 36.3051C23.5064 36.4007 23.3165 36.4644 23.19 36.4644C23.0318 36.4644 22.8736 36.4007 22.7471 36.2733C22.5573 36.0503 22.5889 35.7637 22.5889 35.6682C22.6522 34.9994 22.842 34.3625 23.1584 33.7574C23.2533 33.5663 23.4747 33.5026 23.6646 33.5982C23.8544 33.6937 23.9176 33.9166 23.8227 34.1077C23.5696 34.5854 23.4115 35.1268 23.3482 35.6363C24.0442 35.2223 24.7086 34.6172 25.3413 33.8211C25.8475 33.1523 26.2904 32.4517 26.6701 31.751L26.7966 31.5281C26.9232 31.3052 27.0497 31.1141 27.1446 30.923C27.3028 30.6683 27.461 30.3498 27.6825 30.0313C27.8723 29.7766 28.0621 29.4899 28.2836 29.2352C28.8214 28.5982 29.7389 27.8021 30.9094 27.5473C32.0167 27.3244 33.2189 27.7702 33.82 28.6619Z" fill="black"/>
<path d="M24.4876 24.076L21.0708 26.5919C21.0392 26.6237 21.0075 26.6237 20.9759 26.6237C20.9126 26.6237 20.8493 26.5919 20.8177 26.56C20.7544 26.4645 20.7861 26.3689 20.8493 26.3052L24.2345 23.7894C24.3294 23.7257 24.4243 23.7575 24.4876 23.8212C24.6141 23.8849 24.5825 24.0123 24.4876 24.076Z" fill="black"/>
<path d="M23.2218 44.1395C23.3167 44.0758 23.4116 44.1076 23.4749 44.1713C23.5382 44.2668 23.5065 44.3624 23.4433 44.4261L20.0581 46.942C20.0265 46.9738 19.9948 46.9738 19.9632 46.9738C19.8999 46.9738 19.8366 46.942 19.805 46.8783C19.7417 46.7827 19.7734 46.6872 19.8366 46.6235L23.2218 44.1395Z" fill="black"/>
<path d="M31.3207 49.0438C31.4156 48.9801 31.5105 49.0119 31.5738 49.0756C31.6371 49.1711 31.6054 49.2667 31.5422 49.3304L18.2546 59.4895C18.223 59.5213 18.1913 59.5213 18.1281 59.5213C18.0648 59.5213 18.0015 59.4895 17.9699 59.4576C17.9066 59.3621 17.9066 59.2665 18.0015 59.2028L31.3207 49.0438Z" fill="black"/>
<path d="M24.0757 46.6871C24.1706 46.6234 24.2655 46.6552 24.3288 46.7189C24.3921 46.8144 24.3921 46.91 24.2972 46.9737L17.1156 52.515C17.0839 52.5468 17.0523 52.5468 17.0206 52.5468C16.9574 52.5468 16.8941 52.515 16.8625 52.4832C16.7992 52.3876 16.7992 52.2921 16.8941 52.2284L24.0757 46.6871Z" fill="black"/>
<path d="M21.861 13.5984C21.9559 13.5347 22.0508 13.5666 22.1141 13.6303C22.1774 13.7258 22.1774 13.8214 22.0825 13.8851L14.9325 19.4264C14.9009 19.4582 14.8692 19.4582 14.806 19.4582C14.7427 19.4582 14.711 19.4264 14.6478 19.3945C14.5845 19.299 14.6161 19.2035 14.6794 19.1398L21.861 13.5984Z" fill="black"/>
<path d="M12.4654 23.5664L25.7529 13.4073C25.8162 13.3436 25.9428 13.3754 26.006 13.4391C26.0693 13.5347 26.0377 13.6302 25.9744 13.6939L12.6868 23.853C12.6552 23.8848 12.6236 23.8848 12.5919 23.8848C12.5287 23.8848 12.4654 23.853 12.4337 23.8211C12.3705 23.7574 12.3705 23.6301 12.4654 23.5664Z" fill="black"/>
<path d="M15.7554 39.5854C16.9576 39.1077 17.4954 37.2606 17.0525 35.1906C17.0209 35.1587 16.9892 35.1269 16.9576 35.095C17.179 36.8147 16.831 38.2478 16.135 38.3752C15.3441 38.5345 14.4266 37.0695 14.0786 35.1587C14.047 35.0313 14.047 34.9039 14.0153 34.7766H14.1102L15.4706 34.6173L14.2684 33.9167L13.9204 33.7256C13.9204 32.6428 14.1735 31.8148 14.6164 31.5282C14.4899 31.3053 14.3633 31.0823 14.2052 30.8594C13.4459 30.4136 12.7182 30.318 12.1171 30.5728C11.4211 30.8594 10.9149 31.5919 10.7251 32.611C10.5353 33.6938 10.6935 34.9995 11.1996 36.2415C11.5793 37.1969 12.1171 38.0249 12.7182 38.63C12.7182 38.63 12.7499 38.63 12.7499 38.6619C12.8131 38.6937 12.8764 38.7574 12.908 38.7892C13.7939 39.5536 14.8695 39.9357 15.7554 39.5854ZM11.516 27.834C12.7182 28.0569 13.6041 28.8849 14.1419 29.5219C14.3633 29.7766 14.5532 30.0632 14.743 30.318C14.743 30.318 14.743 30.318 14.743 30.3499C14.9644 30.6683 15.1226 30.955 15.2808 31.2416C15.4074 31.4327 15.5023 31.6237 15.6288 31.8467L15.787 32.1014C16.1983 32.8021 16.6096 33.5027 17.1158 34.1715C17.7485 34.9676 18.3812 35.5727 19.1089 35.9867C19.0456 35.4453 18.8874 34.9358 18.6343 34.4581C18.5394 34.267 18.6027 34.0441 18.7925 33.9485C18.9824 33.853 19.2038 33.9167 19.2987 34.1078C19.6151 34.7129 19.8049 35.3498 19.8366 36.0504C19.8366 36.146 19.8682 36.4326 19.6784 36.6555C19.5518 36.7829 19.3936 36.8466 19.2354 36.8466C19.0773 36.8466 18.9191 36.7829 18.7609 36.7192C18.4762 36.56 18.1914 36.3689 17.9067 36.146C18.0965 38.1523 17.3689 39.8402 16.0085 40.4134C15.6921 40.5408 15.3757 40.6045 15.0594 40.6045C14.1419 40.6045 13.1611 40.1268 12.2753 39.3306C11.0415 38.6619 9.93416 37.7383 9.07996 36.6555C8.95341 36.4963 8.98505 36.2415 9.14324 36.1141C9.30142 35.9867 9.55452 36.0186 9.68107 36.1778C10.0291 36.6237 10.4404 37.0377 10.8833 37.4198C10.7567 37.1651 10.5985 36.8784 10.5036 36.5918C9.9658 35.2224 9.77598 33.7893 9.99744 32.5473C10.2189 31.2416 10.8833 30.318 11.8324 29.9359C12.2753 29.7448 12.7815 29.7129 13.3193 29.8085C12.8448 29.3308 12.212 28.8531 11.4211 28.7257C10.5353 28.5665 9.61779 28.8849 9.20651 29.5219C9.07996 29.6811 8.8585 29.7448 8.70032 29.6174C8.54213 29.49 8.47886 29.2671 8.60541 29.1079C9.14324 28.0251 10.3454 27.6111 11.516 27.834Z" fill="black"/>
</g>
<path d="M74.2417 35.668V45.9578H69.8604V36.7009C69.8604 36.3316 69.7382 36.2095 69.319 36.2095C68.4333 36.2095 67.7919 36.4316 66.9312 36.898V45.955H62.5498V36.7009C62.5498 36.3316 62.4277 36.2095 62.0084 36.2095C61.1227 36.2095 60.4813 36.4316 59.6206 36.898V45.955H55.2393V32.6638H59.6206V34.2131C60.2842 33.4496 61.1727 32.5139 63.2884 32.5139C65.3319 32.5139 66.4147 33.1303 66.784 34.4103C67.4004 33.5246 68.5304 32.5139 70.5989 32.5139C73.2311 32.5167 74.2417 33.5273 74.2417 35.668Z" fill="black"/>
<path d="M76.5576 27.9883H81.1361V31.359H76.5576V27.9883ZM76.6548 32.6639H81.0361V45.9551H76.6548V32.6639Z" fill="black"/>
<path d="M83.5459 32.6638H87.9272V34.363C88.4936 33.5995 89.4543 32.6638 91.0536 32.6638H92.4307V36.4787H90.8065C89.6737 36.4787 88.7158 36.6509 87.9272 37.1673V45.955H83.5459V32.6638V32.6638Z" fill="black"/>
<path d="M94.2051 32.6638H98.5864V34.363C99.1528 33.5995 100.114 32.6638 101.713 32.6638H103.09V36.4787H101.466C100.333 36.4787 99.3749 36.6509 98.5864 37.1673V45.955H94.2051V32.6638Z" fill="black"/>
<path d="M104.247 42.8064V35.8152C104.247 33.6745 105.255 32.6638 107.398 32.6638H112.813C114.953 32.6638 115.964 33.6717 115.964 35.8152V42.8064C115.964 44.9471 114.956 45.9578 112.813 45.9578H107.398C105.258 45.955 104.247 44.9471 104.247 42.8064ZM111.188 42.5093C111.558 42.5093 111.68 42.3872 111.68 42.0179V36.6037C111.68 36.2344 111.558 36.1122 111.188 36.1122H109.023C108.653 36.1122 108.531 36.2344 108.531 36.6037V42.0179C108.531 42.3872 108.653 42.5093 109.023 42.5093H111.188Z" fill="black"/>
<path d="M118.255 32.6638H122.636V34.363C123.203 33.5995 124.163 32.6638 125.763 32.6638H127.14V36.4787H125.515C124.383 36.4787 123.425 36.6509 122.636 37.1673V45.955H118.255V32.6638V32.6638Z" fill="black"/>
<path d="M139.657 45.0665C139.665 45.2498 139.737 45.6635 139.604 45.8162C139.44 46.0022 139.015 45.9522 138.799 45.9467C137.969 45.9217 137.138 45.9356 136.308 45.9467C136.272 45.3831 136.228 44.8222 136.203 44.2586C136.203 44.2169 136.197 44.178 136.186 44.142C136.158 44.017 136.083 43.9282 135.992 43.8671C135.986 43.8615 135.978 43.8588 135.972 43.8532C135.967 43.8504 135.964 43.8476 135.958 43.8449C135.817 43.756 135.636 43.731 135.473 43.8365C135.411 43.8699 135.359 43.9143 135.32 43.9698C134.19 45.0665 132.807 46.0689 131.186 46.1771C130.486 46.2216 129.636 46.1438 129.189 45.5274C128.781 44.9666 128.77 44.1919 128.745 43.5283C128.684 41.7514 128.595 39.9716 128.573 38.1919C128.556 36.662 128.867 34.8934 130.58 34.4547C131.48 34.2242 132.418 34.4242 133.29 34.6851C134.043 34.9128 134.898 35.1905 135.392 35.843C135.55 36.1039 135.939 36.1428 136.144 35.954C136.303 35.8402 136.38 35.6458 136.269 35.4431C136.225 34.4602 136.181 33.4774 136.136 32.4917C136.114 31.9836 136.089 31.4755 136.067 30.9674C136.056 30.7258 136.044 30.4843 136.036 30.2427C136.028 30.0845 135.933 29.6846 136.022 29.5541C136.081 29.4653 137.022 29.5319 137.211 29.5292C137.741 29.5208 138.271 29.5069 138.802 29.5097C138.927 29.5097 139.182 29.4792 139.282 29.5847C139.387 29.6957 139.349 29.9928 139.351 30.1344C139.365 30.6786 139.365 31.2201 139.362 31.7643C139.354 33.8744 139.235 35.9873 139.312 38.0975C139.387 40.1327 139.535 42.1623 139.621 44.1975C139.632 44.4862 139.646 44.7778 139.657 45.0665ZM136.131 40.1799C136.189 39.3941 136.208 38.6084 136.192 37.8198C136.189 37.7587 136.178 37.706 136.158 37.6588C136.156 37.5866 136.133 37.5116 136.081 37.4367C135.767 36.9647 135.284 36.7648 134.737 36.6953C134.206 36.6259 133.607 36.612 133.101 36.8175C131.91 37.3062 131.988 38.8777 131.93 39.9494C131.871 41.0156 131.605 42.6426 132.793 43.209C133.368 43.4839 133.99 43.4145 134.595 43.2812C135.159 43.1535 135.692 42.9508 135.867 42.3428C135.964 42.0096 135.981 41.6403 136.022 41.2988C136.067 40.9268 136.103 40.5547 136.131 40.1799Z" fill="#E4E3FD"/>
<path d="M136.192 37.8201C136.208 38.6086 136.189 39.3944 136.131 40.1801C136.103 40.5549 136.067 40.927 136.022 41.299C135.981 41.6406 135.964 42.0098 135.867 42.343C135.692 42.9511 135.159 43.1538 134.595 43.2815C133.99 43.4147 133.368 43.4842 132.793 43.2093C131.605 42.6429 131.871 41.0158 131.93 39.9497C131.988 38.8779 131.91 37.3064 133.101 36.8177C133.607 36.6123 134.206 36.6262 134.737 36.6956C135.284 36.765 135.767 36.9649 136.081 37.4369C136.133 37.5119 136.156 37.5868 136.158 37.659C136.178 37.7062 136.189 37.759 136.192 37.8201ZM135.109 40.9659C135.217 39.9441 135.259 38.9196 135.239 37.895C135.034 37.6257 134.579 37.6202 134.273 37.6091C133.887 37.5979 133.382 37.5757 133.16 37.9589C132.965 38.2949 132.968 38.7474 132.938 39.1223C132.896 39.6359 132.865 40.1523 132.849 40.666C132.838 41.0825 132.771 41.5684 132.899 41.9737C133.015 42.3541 133.374 42.4624 133.743 42.4541C133.982 42.4485 134.212 42.393 134.442 42.3402C134.573 42.3097 134.801 42.293 134.901 42.1875C135.009 42.0737 135.003 41.821 135.023 41.6739C135.056 41.4379 135.084 41.2019 135.109 40.9659Z" fill="black"/>
<path d="M135.991 43.8672C136.083 43.9283 136.158 44.0172 136.185 44.1421C136.197 44.1782 136.202 44.2171 136.202 44.2587C136.227 44.8224 136.272 45.3832 136.308 45.9468C137.138 45.9357 137.968 45.9219 138.798 45.9468C139.015 45.9524 139.44 46.0024 139.603 45.8163C139.737 45.6636 139.664 45.2499 139.656 45.0667C139.645 44.7779 139.631 44.4864 139.62 44.1976C139.534 42.1625 139.387 40.1328 139.312 38.0976C139.234 35.9875 139.353 33.8746 139.362 31.7644C139.365 31.2202 139.365 30.6788 139.351 30.1346C139.348 29.993 139.387 29.6959 139.281 29.5848C139.181 29.4793 138.926 29.5099 138.801 29.5099C138.271 29.5071 137.74 29.521 137.21 29.5293C137.021 29.5321 136.08 29.4654 136.022 29.5543C135.933 29.6848 136.027 30.0846 136.036 30.2429C136.044 30.4844 136.055 30.726 136.066 30.9675C136.088 31.4756 136.113 31.9837 136.135 32.4918C136.18 33.4775 136.224 34.4604 136.269 35.4433C136.38 35.646 136.302 35.8403 136.144 35.9542C135.938 36.143 135.55 36.1041 135.391 35.8431C134.897 35.1906 134.042 34.913 133.29 34.6853C132.418 34.4243 131.479 34.2244 130.58 34.4548C128.867 34.8935 128.556 36.6622 128.572 38.192C128.594 39.9718 128.683 41.7515 128.744 43.5285C128.769 44.1921 128.78 44.9667 129.189 45.5276C129.636 46.144 130.485 46.2217 131.185 46.1773C132.806 46.069 134.189 45.0667 135.319 43.97C135.358 43.9144 135.411 43.87 135.472 43.8367C135.636 43.7312 135.816 43.7562 135.958 43.845C135.963 43.8478 135.966 43.8506 135.972 43.8533C135.977 43.8589 135.986 43.8617 135.991 43.8672ZM140.558 43.9089C140.581 44.4614 140.65 45.0334 140.614 45.5859C140.55 46.591 139.789 46.9158 138.887 46.8992C137.879 46.8825 136.871 46.8936 135.863 46.902C135.597 46.9047 135.4 46.6826 135.389 46.4272C135.372 46.0357 135.341 45.6442 135.314 45.2555C133.886 46.4549 132.135 47.3656 130.224 47.088C129.369 46.963 128.597 46.5244 128.206 45.7303C127.828 44.9584 127.814 44.0782 127.786 43.2397C127.748 42.1236 127.712 41.0074 127.675 39.894C127.639 38.8778 127.559 37.8477 127.692 36.8371C127.811 35.9569 128.122 35.0851 128.747 34.4354C129.375 33.7774 130.269 33.4664 131.163 33.4109C132.146 33.3526 133.151 33.6163 134.073 33.9412C134.5 34.0883 134.908 34.2688 135.275 34.502C135.23 33.5192 135.186 32.5335 135.141 31.5506C135.114 30.912 135.033 30.254 135.061 29.6154C135.089 29.0573 135.414 28.6658 135.98 28.6047C136.574 28.5409 137.191 28.5797 137.787 28.5714C138.298 28.5631 138.868 28.4853 139.367 28.602C140.52 28.8713 140.311 30.2706 140.314 31.173C140.322 33.6247 140.17 36.0819 140.281 38.5335C140.334 39.6997 140.42 40.863 140.478 42.0264C140.508 42.6539 140.531 43.2814 140.558 43.9089Z" fill="black"/>
<defs>
<clipPath id="clip0_755_293">
<rect width="41.9823" height="75.1263" fill="white"/>
</clipPath>
</defs>
</svg>
