<svg width="451" height="807" viewBox="0 0 451 807" fill="none" xmlns="http://www.w3.org/2000/svg">
<path d="M183.062 377.482C187.826 399.746 182.041 419.612 169.111 424.75C159.584 428.518 148.355 424.75 138.147 415.159C137.807 414.474 137.127 414.132 136.446 413.789C136.446 413.789 136.446 413.789 136.106 413.447C129.641 406.939 123.856 398.034 119.773 387.758C114.329 374.4 112.628 360.699 114.669 348.711C116.711 337.75 121.815 329.872 129.641 326.79C136.106 324.05 144.272 325.077 152.098 329.872C153.799 332.613 155.161 335.01 156.522 337.065C151.758 340.148 149.036 349.053 149.036 360.699L152.779 362.754L165.709 370.29L151.077 372.002H150.057C150.397 373.372 150.397 374.742 150.737 376.112C154.48 397.006 164.688 412.419 172.854 410.707C180.34 409.337 184.083 393.923 181.701 375.427C182.722 376.797 183.062 377.14 183.062 377.482Z" fill="white"/>
<path d="M332.778 390.841C329.035 398.719 324.271 405.226 318.827 410.707C318.827 410.707 318.827 410.707 318.486 410.707C317.806 411.049 317.466 411.734 317.125 412.077C306.918 421.325 295.689 425.435 286.161 421.667C273.231 416.187 267.447 396.663 272.211 374.4C273.912 372.345 275.954 369.947 277.655 367.892C283.439 360.357 288.203 352.479 292.626 344.601L293.988 342.203C295.349 340.148 296.369 337.75 297.73 335.695C299.091 333.298 300.793 330.558 302.834 327.475C306.918 325.077 310.66 323.707 314.403 323.022C312.021 328.502 311.681 335.01 311.681 340.833L315.424 342.888L328.354 350.424L313.723 352.136H312.702C313.042 353.506 313.042 354.876 313.383 356.589C317.125 374.742 325.292 389.128 332.778 390.841Z" fill="white"/>
<path d="M357.277 382.963C355.575 381.593 352.853 381.935 351.492 383.648C347.749 388.443 343.326 392.896 338.562 397.006C339.923 394.266 341.625 391.183 342.645 388.1C348.77 373.372 350.471 357.959 348.09 344.601C345.367 330.557 338.562 320.624 328.354 316.514C323.591 314.459 318.146 314.117 312.362 315.144C317.466 310.006 324.271 305.211 332.778 303.499C342.305 301.786 352.173 305.211 356.596 312.061C357.957 313.774 360.339 314.459 362.381 313.089C364.082 311.719 364.762 309.321 363.401 307.609C356.936 298.018 344.006 293.223 331.417 295.963C318.487 298.361 308.959 307.266 303.175 314.117C300.793 316.857 298.751 319.939 296.71 322.68C294.328 326.105 292.627 329.187 290.925 332.27C289.564 334.668 288.203 336.723 287.182 338.778L285.821 341.176C281.398 348.711 276.975 356.589 271.53 363.439C264.725 372.345 257.92 378.51 250.094 382.963C250.774 377.14 252.476 371.66 255.198 366.522C256.218 364.467 255.538 362.069 253.496 361.042C251.455 360.014 249.073 360.699 248.052 362.754C244.65 369.262 242.608 376.112 241.927 383.305C241.927 384.333 241.587 387.415 243.629 389.813C244.99 391.183 246.351 391.868 248.392 391.868C250.094 391.868 251.795 391.526 253.496 390.156C256.559 388.443 259.621 386.388 262.683 383.99C260.642 405.569 268.468 423.722 283.099 429.888C286.502 431.258 289.905 431.943 293.307 431.943C303.175 431.943 313.723 426.805 322.91 417.9C336.18 410.707 348.09 401.116 357.277 389.128C359.318 387.073 358.978 384.333 357.277 382.963ZM225.595 100.043C330.736 100.043 416.483 236.022 416.483 402.829C416.483 569.635 330.736 705.615 225.595 705.615C120.113 705.615 34.707 569.635 34.707 402.829C34.707 236.022 120.453 100.043 225.595 100.043ZM339.243 529.56C340.264 528.875 340.264 527.505 339.583 526.82C338.902 525.793 337.541 525.793 336.861 526.478L193.95 635.741C192.929 636.426 192.929 637.796 193.61 638.481C193.95 638.824 194.631 639.166 195.311 639.166C195.652 639.166 196.332 639.166 196.672 638.824L339.243 529.56ZM289.564 613.135C290.585 612.45 290.585 611.08 289.905 610.395C289.224 609.367 287.863 609.367 287.182 610.052L250.774 637.111C249.753 637.796 249.753 639.166 250.434 639.851C250.774 640.536 251.455 640.879 252.135 640.879C252.476 640.879 252.816 640.536 253.156 640.536L289.564 613.135ZM279.356 146.625C280.377 145.94 280.377 144.57 279.697 143.885C279.016 142.858 277.655 142.858 276.975 143.543L134.064 252.463C133.043 253.148 133.043 254.518 133.724 255.204C134.064 255.546 134.744 255.889 135.425 255.889C135.765 255.889 136.446 255.889 136.446 255.546L279.356 146.625ZM263.364 257.944C264.385 257.259 264.385 255.889 263.704 255.204C263.024 254.176 261.663 254.176 260.982 254.861L224.574 281.577C223.553 282.262 223.553 283.633 224.234 284.318C224.574 285.003 225.255 285.003 225.935 285.003C226.275 285.003 226.616 285.003 226.956 284.66L263.364 257.944ZM261.322 504.557C262.343 503.872 262.343 502.502 261.663 501.816C260.982 500.789 259.621 500.789 258.941 501.474L181.701 560.73C180.68 561.415 180.68 562.785 181.361 563.47C181.701 563.812 182.381 564.155 183.062 564.155C183.402 564.155 183.742 564.155 184.083 563.812L261.322 504.557ZM252.135 477.155C253.156 476.47 253.156 475.1 252.476 474.415C251.795 473.387 250.434 473.387 249.753 474.072L213.345 501.131C212.324 501.816 212.324 503.187 213.005 503.872C213.345 504.557 214.026 504.899 214.706 504.899C215.047 504.899 215.727 504.557 215.727 504.557L252.135 477.155ZM237.504 148.338C238.525 147.653 238.525 146.283 237.844 145.598C237.164 144.57 235.803 144.57 235.122 145.255L157.882 204.853C156.862 205.538 156.862 206.908 157.542 207.594C157.882 207.936 158.563 208.279 159.243 208.279C159.584 208.279 160.264 208.279 160.604 207.936L237.504 148.338ZM211.644 392.211C213.686 389.813 213.345 386.73 213.345 385.703C212.665 378.51 210.623 371.317 207.561 364.809C206.54 362.754 204.158 362.069 202.117 363.097C200.075 364.124 199.394 366.522 200.415 368.577C203.137 373.715 204.839 379.538 205.519 385.018C198.033 380.565 190.888 374.057 184.083 365.494C178.638 358.301 173.875 350.424 169.792 343.231L168.09 340.49C166.729 338.435 165.708 336.038 164.347 333.983C162.646 331.243 160.945 327.817 158.563 324.392C158.563 324.392 158.563 324.392 158.563 324.05C156.862 321.309 154.48 318.227 152.098 315.487C146.313 308.636 136.786 300.073 123.856 297.333C111.266 294.936 98.3363 299.731 91.8713 308.979C90.5102 310.691 91.1907 313.432 92.8921 314.459C94.5934 315.829 97.3155 315.144 98.3363 313.432C103.1 306.581 112.968 303.156 122.155 304.869C130.661 306.581 137.467 311.719 142.571 316.514C137.126 315.487 131.682 316.172 126.578 317.884C116.37 321.995 109.565 331.928 106.843 345.971C104.461 359.329 106.503 374.742 112.287 389.471C113.648 392.553 115.009 395.636 116.37 398.376C111.607 394.266 107.183 389.813 103.44 385.018C102.079 383.305 99.3571 382.963 97.6557 384.333C95.9544 385.703 95.6142 388.443 96.9752 390.156C106.503 401.801 118.412 411.734 131.342 418.927C140.529 427.833 151.077 432.628 161.285 432.628C164.688 432.628 168.431 431.943 171.493 430.573C186.124 424.407 193.61 406.596 191.909 384.675C194.971 387.073 197.693 389.128 201.096 390.841C202.797 391.868 204.498 392.211 206.2 392.211C208.922 394.266 210.623 393.581 211.644 392.211Z" fill="#E4E3FD"/>
<path d="M397.428 177.109C431.794 240.133 450.509 319.939 450.509 403.171C450.509 547.371 393.345 677.186 307.258 728.906C307.938 731.304 308.619 734.044 308.619 736.784C308.619 751.17 296.71 763.158 282.419 763.158C277.315 763.158 272.211 761.788 268.128 759.047C268.468 760.418 268.468 762.13 268.468 763.5C268.468 787.134 249.413 806.315 225.935 806.315C202.457 806.315 183.402 787.134 183.402 763.5C183.402 762.13 183.402 760.418 183.742 759.047C179.659 761.788 174.555 763.158 169.451 763.158C155.16 763.158 143.251 751.512 143.251 736.784C143.251 734.044 143.591 731.304 144.612 728.906C58.1852 676.843 0.680664 547.029 0.680664 403.171C0.680664 319.254 19.7354 238.763 54.7825 175.397C53.0812 174.369 52.0604 172.999 50.6994 171.629C39.1304 158.613 32.6654 140.803 30.9641 121.964C30.2836 108.606 31.9849 94.9051 36.7486 82.5744C37.4291 80.5193 39.8109 74.6965 45.5954 74.0115C51.7202 73.3264 55.4631 78.4642 58.8657 83.2595C60.2267 84.9721 61.5878 86.6846 62.2683 87.7122C68.7333 93.8775 76.8996 99.0153 87.4478 103.811C92.5518 106.208 97.996 108.263 103.1 109.976C116.03 96.9602 129.64 85.9996 143.932 77.4367C143.251 74.6965 142.57 72.2989 142.57 69.5587C142.57 55.173 154.48 43.1849 168.771 43.1849C173.875 43.1849 178.979 44.5549 183.062 47.2951C183.062 45.925 182.722 44.2124 182.722 42.8423C182.722 19.2086 201.776 0.0275879 225.254 0.0275879C248.733 0.0275879 267.787 19.2086 267.787 42.8423C267.787 44.2124 267.787 45.925 267.447 47.2951C271.53 44.5549 276.634 43.1849 281.738 43.1849C296.37 43.1849 307.938 55.173 307.938 69.5587C307.938 72.2989 307.598 75.039 306.577 77.4367C321.209 86.3421 335.5 97.6452 348.77 111.346C354.214 109.633 359.318 107.578 364.762 105.181C375.311 100.385 383.477 95.2476 389.942 89.0823C390.963 88.0547 392.324 86.3421 393.345 84.6295C396.747 79.8343 400.49 74.6965 406.615 75.3816C412.399 76.0666 414.781 81.8894 415.462 83.9445C420.225 96.2752 421.927 109.976 420.906 123.334C419.545 141.83 412.74 159.984 401.171 172.999C400.83 174.027 399.469 175.739 397.428 177.109ZM416.482 403.171C416.482 236.022 330.736 100.385 225.595 100.385C120.113 100.385 34.707 236.365 34.707 403.171C34.707 569.978 120.453 705.957 225.595 705.957C331.076 705.957 416.482 569.978 416.482 403.171Z" fill="black"/>
<path d="M287.183 610.052C288.204 609.367 289.224 609.71 289.905 610.395C290.585 611.422 290.245 612.45 289.565 613.135L253.157 640.194C252.816 640.536 252.476 640.536 252.136 640.536C251.455 640.536 250.775 640.194 250.434 639.509C249.754 638.481 250.094 637.454 250.775 636.769L287.183 610.052Z" fill="black"/>
<path d="M318.827 410.707C323.931 405.569 328.694 398.719 332.778 390.841C325.292 388.786 317.125 374.742 313.723 356.246C313.383 354.876 313.042 353.506 313.042 351.794H314.063L328.694 350.081L315.764 342.546L312.021 340.49C312.021 334.668 312.362 328.16 314.744 322.68C311.001 323.365 306.918 324.735 303.175 327.132C301.133 329.872 299.432 332.955 298.071 335.353C296.71 337.75 295.349 339.805 294.328 341.861L292.967 344.258C288.543 351.794 283.78 360.014 277.995 367.549C276.294 369.947 274.252 372.002 272.551 374.057C267.787 396.321 273.572 415.844 286.502 421.325C296.029 425.092 307.258 420.982 317.466 411.734C317.466 411.734 318.146 411.049 318.827 410.707ZM363.741 307.266C365.103 308.979 364.762 311.719 362.721 312.747C361.019 314.117 358.297 313.774 356.936 311.719C352.173 304.869 342.305 301.443 333.118 303.156C324.611 304.869 317.806 310.006 312.702 314.802C318.146 313.774 323.59 314.459 328.694 316.172C338.902 320.282 346.048 330.215 348.43 344.258C350.811 357.616 348.77 373.03 342.985 387.758C341.624 390.841 340.263 393.923 338.902 396.663C343.666 392.553 348.089 388.1 351.832 383.305C353.193 381.593 355.915 381.25 357.617 382.62C359.318 383.99 359.658 386.73 358.297 388.443C348.77 400.431 336.861 410.022 323.931 417.215C314.744 426.12 304.195 431.258 294.328 431.258C290.585 431.258 287.182 430.573 284.12 429.203C269.489 423.037 262.003 405.226 263.704 383.305C260.642 385.703 257.579 387.758 254.517 389.471C252.816 390.498 250.774 391.183 249.413 391.183C247.712 391.183 246.01 390.498 244.649 389.128C242.608 386.73 242.948 383.648 242.948 382.62C243.629 375.427 245.67 368.577 249.073 362.069C250.094 360.014 252.475 359.329 254.517 360.357C256.559 361.384 257.239 363.782 256.218 365.837C253.496 370.975 251.795 376.797 251.114 382.278C258.6 377.825 265.746 371.317 272.551 362.754C277.995 355.561 282.759 348.026 286.842 340.49L288.203 338.093C289.564 335.695 290.925 333.64 291.946 331.585C293.647 328.845 295.349 325.42 297.73 321.995C299.772 319.254 301.814 316.172 304.195 313.432C309.98 306.581 319.848 298.018 332.437 295.278C344.346 292.88 357.276 297.676 363.741 307.266Z" fill="black"/>
<path d="M263.364 257.944L226.615 285.003C226.275 285.345 225.935 285.345 225.595 285.345C224.914 285.345 224.234 285.003 223.893 284.66C223.213 283.632 223.553 282.605 224.234 281.92L260.642 254.861C261.663 254.176 262.683 254.518 263.364 255.203C264.725 255.889 264.385 257.259 263.364 257.944Z" fill="black"/>
<path d="M249.753 473.73C250.774 473.045 251.795 473.387 252.475 474.072C253.156 475.1 252.816 476.128 252.135 476.813L215.727 503.872C215.387 504.214 215.046 504.214 214.706 504.214C214.026 504.214 213.345 503.872 213.005 503.187C212.324 502.159 212.664 501.131 213.345 500.446L249.753 473.73Z" fill="black"/>
<path d="M336.861 526.478C337.882 525.793 338.903 526.135 339.583 526.82C340.264 527.848 339.924 528.875 339.243 529.561L196.333 638.824C195.992 639.166 195.652 639.166 194.971 639.166C194.291 639.166 193.61 638.824 193.27 638.481C192.59 637.454 192.59 636.426 193.61 635.741L336.861 526.478Z" fill="black"/>
<path d="M258.94 501.131C259.961 500.446 260.982 500.789 261.662 501.474C262.343 502.502 262.343 503.529 261.322 504.214L184.082 563.812C183.742 564.155 183.402 564.155 183.061 564.155C182.381 564.155 181.7 563.812 181.36 563.47C180.679 562.442 180.68 561.415 181.7 560.73L258.94 501.131Z" fill="black"/>
<path d="M235.122 145.255C236.143 144.57 237.163 144.913 237.844 145.598C238.525 146.625 238.525 147.653 237.504 148.338L160.604 207.936C160.264 208.279 159.924 208.279 159.243 208.279C158.563 208.279 158.222 207.936 157.542 207.594C156.861 206.566 157.202 205.538 157.882 204.853L235.122 145.255Z" fill="black"/>
<path d="M134.064 252.463L276.974 143.2C277.655 142.515 279.016 142.858 279.696 143.543C280.377 144.57 280.037 145.598 279.356 146.283L136.445 255.546C136.105 255.888 135.765 255.888 135.425 255.888C134.744 255.888 134.064 255.546 133.723 255.203C133.043 254.518 133.043 253.148 134.064 252.463Z" fill="black"/>
<path d="M169.452 424.75C182.382 419.612 188.166 399.746 183.402 377.482C183.062 377.14 182.722 376.797 182.382 376.455C184.764 394.951 181.021 410.364 173.535 411.734C165.028 413.447 155.161 397.691 151.418 377.14C151.077 375.77 151.077 374.4 150.737 373.03H151.758L166.389 371.317L153.459 363.782L149.716 361.727C149.716 350.081 152.439 341.175 157.202 338.093C155.841 335.695 154.48 333.298 152.779 330.9C144.612 326.105 136.786 325.077 130.321 327.817C122.836 330.9 117.391 338.778 115.35 349.738C113.308 361.384 115.01 375.427 120.454 388.785C124.537 399.061 130.321 407.966 136.786 414.474C136.786 414.474 137.127 414.474 137.127 414.817C137.807 415.159 138.488 415.844 138.828 416.187C148.355 424.407 159.924 428.518 169.452 424.75ZM123.856 298.361C136.786 300.758 146.314 309.664 152.098 316.514C154.48 319.254 156.522 322.337 158.563 325.077C158.563 325.077 158.563 325.077 158.563 325.42C160.945 328.845 162.646 331.927 164.348 335.01C165.709 337.065 166.73 339.12 168.091 341.518L169.792 344.258C174.215 351.794 178.639 359.329 184.083 366.522C190.888 375.085 197.694 381.593 205.52 386.045C204.839 380.223 203.138 374.742 200.416 369.604C199.395 367.549 200.075 365.152 202.117 364.124C204.159 363.097 206.54 363.782 207.561 365.837C210.964 372.345 213.005 379.195 213.346 386.73C213.346 387.758 213.686 390.841 211.644 393.238C210.283 394.608 208.582 395.293 206.881 395.293C205.179 395.293 203.478 394.608 201.777 393.923C198.714 392.211 195.652 390.156 192.59 387.758C194.631 409.337 186.805 427.49 172.174 433.655C168.771 435.025 165.369 435.71 161.966 435.71C152.098 435.71 141.55 430.573 132.023 422.01C118.752 414.817 106.843 404.884 97.6561 393.238C96.2951 391.526 96.6353 388.785 98.3366 387.415C100.038 386.045 102.76 386.388 104.121 388.1C107.864 392.896 112.287 397.348 117.051 401.459C115.69 398.718 113.989 395.636 112.968 392.553C107.183 377.825 105.142 362.412 107.524 349.053C109.906 335.01 117.051 325.077 127.259 320.967C132.023 318.912 137.467 318.569 143.251 319.597C138.147 314.459 131.342 309.321 122.836 307.951C113.308 306.239 103.441 309.664 99.0172 316.514C97.6561 318.227 95.2743 318.912 93.573 317.542C91.8716 316.172 91.1911 313.774 92.5522 312.061C98.3366 300.416 111.267 295.963 123.856 298.361Z" fill="black"/>
</svg>
