<svg id="Layer_1" data-name="Layer 1" xmlns="http://www.w3.org/2000/svg" viewBox="0 0 1980.92 2096.55"><defs><style>.cls-1{fill:#001b31;}.cls-2{fill:#f1f0f0;}.cls-3{fill:#f59448;opacity:0.5;}.cls-4{fill:#f06b24;}.cls-5{fill:#aae8ee;}.cls-6{fill:#d7f7fa;}.cls-7{fill:#bcc9c2;}.cls-8{fill:#fde1c7;}.cls-9{fill:#5e9c95;}.cls-10{fill:#298c82;}.cls-11{fill:#fff;}.cls-12{fill:#83aeaa;}.cls-13{fill:#575960;}.cls-14{fill:#b3b3b3;}.cls-15{fill:#f58649;}.cls-16{fill:#818288;}.cls-17{fill:#9ca7d0;}.cls-18{fill:#bebfc1;}.cls-19{fill:#0d1c24;}.cls-20{fill:#323940;}.cls-21{opacity:0.25;}.cls-22,.cls-25{fill:#adbeb6;}.cls-23,.cls-24,.cls-26,.cls-27{fill:none;}.cls-23,.cls-25{stroke:#adbeb6;stroke-width:6px;}.cls-23,.cls-24,.cls-25,.cls-26,.cls-27{stroke-miterlimit:10;}.cls-23{stroke-dasharray:12.01 12.01;}.cls-24,.cls-26{stroke:#298c82;stroke-width:4px;}.cls-24{stroke-dasharray:12;}.cls-27{stroke:#f1f0f0;stroke-linecap:round;stroke-width:7px;}.cls-28{fill:#bf4200;}.cls-29{fill:#ff7d33;}</style></defs><path class="cls-1" d="M237.75,633.19l.07,0-.1,0Z"/><path class="cls-2" d="M1272.81,615A153.34,153.34,0,0,1,1130.47,767.9h0c-3.64.25-7.29.42-11,.42s-7.37-.17-11-.42h-731l-.87.06c-84.15,5.86-159.6-55.85-169.9-139.58A160.43,160.43,0,0,1,316,455.54,160.47,160.47,0,0,1,516.81,354.23c19-103.29,109.47-181.53,218.24-181.53,102.53,0,188.77,69.49,214.27,164a160,160,0,0,1,186.51,125.77A153.36,153.36,0,0,1,1272.81,615Z"/><ellipse class="cls-3" cx="1721.01" cy="1288.12" rx="171.4" ry="3.61"/><path class="cls-4" d="M1896.15,869.7V735.49a36.77,36.77,0,0,0-36.77-36.77h0a36.77,36.77,0,0,0-36.77,36.77V828.1a41.6,41.6,0,0,1-41.6,41.6m0,0h-79.1A155.28,155.28,0,0,0,1546.65,1025V1138.1a150,150,0,0,0,150,150h22.54a176.94,176.94,0,0,0,176.94-176.95V869.7m-180.77,69.73h0a107.23,107.23,0,0,1,107.23,107.23v63a108,108,0,0,1-108,108h0a96,96,0,0,1-96-96v-85.46A96.75,96.75,0,0,1,1715.38,939.43Z"/><path class="cls-5" d="M1651.32,1220.72c15.55,7.68,35.08,11.57,58.32,11.57h1L1829,1107.88v-68.75Zm124.79,11.57h28.54a24.37,24.37,0,0,0,24.37-24.37v-32.15Zm-65.33-306.76c-67.9,0-105,34.71-106.59,106.58a5.69,5.69,0,0,0,0,1.24l112.09-107.82Zm37.55,0-144.23,139.2v50l196.57-189.18Z"/><path class="cls-6" d="M1709.64,1232.29h65.43l54-57.66v-67.89Zm95-306.76h-5.21l-195.34,188v14.51q0,69,46.46,92.26L1829,1038V949.9A24.3,24.3,0,0,0,1804.65,925.53Zm-89.51,0-111,106.58a5.69,5.69,0,0,0,0,1.24c-.09,1.23-.09,2.46-.09,3.79v26.46l143.09-138.07Z"/><path class="cls-4" d="M1895.37,869.7V735.49a36.77,36.77,0,0,0-36.77-36.77h0a36.77,36.77,0,0,0-36.77,36.77V828.1a41.61,41.61,0,0,1-41.6,41.6m0,0h-79.1A155.28,155.28,0,0,0,1545.87,1025V1138.1a150,150,0,0,0,150,150h22.53a177,177,0,0,0,176.95-176.95V869.7M1714.6,939.43h0a107.23,107.23,0,0,1,107.23,107.23v63a108,108,0,0,1-108,108h0a96,96,0,0,1-96-96v-85.46A96.75,96.75,0,0,1,1714.6,939.43Z"/><rect class="cls-7" x="380.14" y="1709.54" width="52.13" height="270.26" rx="5.47" transform="translate(-1438.46 2250.88) rotate(-90)"/><rect class="cls-8" x="381.69" y="1818.61" width="27.01" height="52.13"/><path class="cls-9" d="M627.18,1378.52a2.19,2.19,0,0,1-.3.16,41.56,41.56,0,0,1-8.59,3c-15.34,3.81-28.14,10.7-35,21.07a1.88,1.88,0,0,1-.12.18c-4.62,7.07-6.49,15.74-4.53,26.14,4.86,25.77-14,37.33-31.46,29.55-6.94-3.09-16.66-6.09-26.7-6h-.59a38.51,38.51,0,0,0-22,6.87c-.2.13-.39.27-.59.42-6.62,4.91-12.41,12.69-16.45,24.49-13.92,40.75,3.54,81.7-36.57,97.09a55.64,55.64,0,0,0-18.58,11.86,77.26,77.26,0,0,0-15.78,22.15c-.4.79-.77,1.58-1.12,2.38a123.8,123.8,0,0,0-9.58,32.87c-.21,1.54-.29,2.39-.29,2.39l-3.15-2.39-25-18.93c-1.14-1.09-1.82-5.26-1.84-11.67,0-.73,0-1.49,0-2.27s0-1.56.08-2.38c.16-4.27.56-9.23,1.24-14.72.1-.8.2-1.62.31-2.44.2-1.46.42-3,.65-4.49,0-.17.05-.34.07-.5.77-5,1.75-10.27,2.94-15.78,7.18-33.13,22.38-74.5,50.18-103.65q9.45-9.92,18.69-18.79a501,501,0,0,1,54.15-45.64l.59-.43a340,340,0,0,1,50.33-30.41c.12-.07.22-.11.32-.16,24-11.57,44.22-16.93,59.32-18C632.75,1358.68,641.67,1371,627.18,1378.52Z"/><path class="cls-10" d="M364.53,1620.4c-3.35-2.71-26.57-49.12-26.57-96.48,0-58.42,32.84-84,72.2-118.82,25.48-22.54-21.52-78.6,9-92s75.14,36.62,66.24,66.1-39.75,24.12-48.11,55.38c-4,15,24.06,34.68,8.36,59.78-14.31,22.88-60.45-1.33-56.16,65.53,3,47.36,10.13,58.81,10.13,58.81Z"/><path class="cls-11" d="M379.4,1620.66a.91.91,0,0,0,.39-.08,1,1,0,0,0,.51-1.3c-.33-.77-33.23-77.71-14.84-127.92,11.24-30.68,33.5-51.93,55-72.47,9.13-8.72,17.76-17,25.47-25.79,23.47-26.88-7.61-64.4-7.92-64.78a1,1,0,0,0-1.52,1.27c.31.37,30.3,36.61,7.95,62.21-7.65,8.77-16.24,17-25.34,25.66-21.68,20.7-44.1,42.11-55.5,73.22-18.67,51,14.54,128.61,14.88,129.39A1,1,0,0,0,379.4,1620.66Z"/><path class="cls-9" d="M364.53,1620.4s23.76-64-1.12-86.76-44.85-15.44-41.94-69.75c2.62-48.79-19.57-47.56-24.56-35.08-3.12,7.82-16,63.36-1.75,87.4s44.47,23.35,42.8,67.24,0,56.9,0,56.9Z"/><path class="cls-12" d="M364.32,1599.05c1.09-6,.07-52.12-55.43-92.18-46.09-33.28-58.61-38.61-62.95-97.15s-22.58-79.61-51.06-69.16c-21.47,7.88-32.42,54.31-1,101.31s51.79,56.09,45.53,89.23c-8,42.42,7.11,64,34.58,54.76,37.59-12.7,41.27-18.25,60.79,15.55Z"/><path class="cls-11" d="M357.39,1606.07a1,1,0,0,0,.38-.08,1,1,0,0,0,.53-1.29c-14.59-35.2-26.87-46.13-37-52.19-11.14-6.68-18.86-4-27-1.08-4.44,1.55-9,3.16-14.57,3.55-4.77.34-8.47-.71-11.3-3.2-5.36-4.72-6.55-14.07-7-21.69-1.55-26.94-15.15-50.29-28.3-72.87-16.9-29-32.87-56.43-25.89-91.13a1,1,0,0,0-1.93-.39c-7.13,35.43,9.77,64.45,26.12,92.51,13,22.38,26.51,45.52,28,72,.46,8,1.75,17.85,7.66,23,3.19,2.82,7.46,4.06,12.73,3.69,5.82-.4,10.54-2.06,15.09-3.66,8.07-2.84,15-5.28,25.37.92,9.82,5.89,21.79,16.58,36.16,51.25A1,1,0,0,0,357.39,1606.07Z"/><path class="cls-11" d="M415.42,1595.7a1,1,0,0,0,1-.86c12.1-90.17,64.77-146.1,106.82-177.14,45.6-33.65,88.84-46.11,89.28-46.23a1,1,0,0,0,.68-1.22,1,1,0,0,0-1.22-.68c-.44.12-44,12.68-89.91,46.54-42.36,31.27-95.42,87.61-107.6,178.47a1,1,0,0,0,.84,1.11Z"/><rect class="cls-13" x="318.69" y="1593.37" width="120.8" height="226.42"/><rect class="cls-14" x="318.69" y="1615.53" width="120.8" height="2.38"/><rect class="cls-14" x="318.69" y="1650.79" width="120.8" height="2.38"/><rect class="cls-14" x="318.69" y="1686.04" width="120.8" height="2.38"/><rect class="cls-14" x="318.69" y="1721.3" width="120.8" height="2.38"/><rect class="cls-14" x="318.69" y="1756.56" width="120.8" height="2.38"/><rect class="cls-14" x="318.69" y="1791.82" width="120.8" height="2.38"/><path class="cls-15" d="M1252.8,1789.25v57.56a6.06,6.06,0,0,1-6.06,6.06H936a6.08,6.08,0,0,1-6-4.93,5.88,5.88,0,0,1-.11-1.11v-57.58a6.08,6.08,0,0,1,6.08-6.07h310.72A6.07,6.07,0,0,1,1252.8,1789.25Z"/><path class="cls-16" d="M1185.63,1743.2v36.24a3.73,3.73,0,0,1-3.74,3.74H932.82a3.73,3.73,0,0,1-3.73-3.4,1.88,1.88,0,0,1,0-.34V1743.2a3.75,3.75,0,0,1,3.75-3.75h249.07A3.74,3.74,0,0,1,1185.63,1743.2Z"/><rect class="cls-17" x="1137.78" y="1739.45" width="20.04" height="43.73"/><rect class="cls-11" x="1193.67" y="1783.18" width="29.02" height="69.59"/><rect class="cls-12" x="1048.46" y="1470.81" width="48.29" height="269.96" rx="5.06"/><rect class="cls-11" x="1048.46" y="1685.15" width="48.29" height="22.38"/><path class="cls-18" d="M578.88,1985.47a23,23,0,0,1-3.67-.27,14,14,0,0,1-2.85-.74,4.71,4.71,0,0,1-1.75-1.11,1.37,1.37,0,0,1-.37-1.35l18.42-65.2a2,2,0,0,1,1-1,8.31,8.31,0,0,1,2-.86,19.85,19.85,0,0,1,2.85-.58,27.33,27.33,0,0,1,3.34-.21l275.26,0h0a25.52,25.52,0,0,1,3.35.21,17.41,17.41,0,0,1,2.83.58,8.24,8.24,0,0,1,2,.85,2,2,0,0,1,1,1l18.68,65.2a1.41,1.41,0,0,1-.37,1.34,4.71,4.71,0,0,1-1.75,1.1,13.17,13.17,0,0,1-2.85.75,23,23,0,0,1-3.68.27l-313.49.07Zm354.7-77.26a8.64,8.64,0,0,1-1-.06,5.6,5.6,0,0,1-.89-.18,2.66,2.66,0,0,1-.65-.26.71.71,0,0,1-.33-.31l-1.86-4.83a.29.29,0,0,1,.08-.31,1.33,1.33,0,0,1,.45-.25,3.88,3.88,0,0,1,.74-.17,7.37,7.37,0,0,1,1-.06H966a8.35,8.35,0,0,1,1,.06,6.41,6.41,0,0,1,.89.17,3.16,3.16,0,0,1,.67.25.8.8,0,0,1,.34.31l2.25,4.83a.28.28,0,0,1-.06.32,1.06,1.06,0,0,1-.43.25,3,3,0,0,1-.74.18,7.26,7.26,0,0,1-1,.06Zm46,0a8.69,8.69,0,0,1-1-.06,5.51,5.51,0,0,1-.9-.18,3.5,3.5,0,0,1-.68-.25.89.89,0,0,1-.36-.32l-2.29-4.83a.28.28,0,0,1,.05-.31,1.08,1.08,0,0,1,.42-.25,3.94,3.94,0,0,1,.73-.17,7.21,7.21,0,0,1,1-.06h34.92a8.47,8.47,0,0,1,1,.06,5.86,5.86,0,0,1,.91.18,3,3,0,0,1,.68.25.82.82,0,0,1,.38.31l2.67,4.82a.26.26,0,0,1,0,.32,1.16,1.16,0,0,1-.41.26,3.76,3.76,0,0,1-.73.17,6.86,6.86,0,0,1-1,.07Zm45.41,0a8.69,8.69,0,0,1-1-.06,6,6,0,0,1-.92-.18,3.74,3.74,0,0,1-.7-.25.9.9,0,0,1-.38-.32l-2.75-4.82a.26.26,0,0,1,0-.31.83.83,0,0,1,.4-.25,3,3,0,0,1,.72-.18,6.8,6.8,0,0,1,1-.06h34.91a8.69,8.69,0,0,1,1,.06,6.9,6.9,0,0,1,.92.17,3.86,3.86,0,0,1,.71.25,1,1,0,0,1,.4.31l3.13,4.82a.27.27,0,0,1,0,.32.88.88,0,0,1-.39.26,3.53,3.53,0,0,1-.71.17,7,7,0,0,1-1,.06Zm-611.92.12a8.66,8.66,0,0,1-1.21-.08,4.94,4.94,0,0,1-.9-.22,1,1,0,0,1-.49-.32.33.33,0,0,1,0-.4L417,1897a1.23,1.23,0,0,1,.5-.38,4.46,4.46,0,0,1,.88-.31,8.61,8.61,0,0,1,1.14-.21,10.91,10.91,0,0,1,1.29-.07h33.09a8.46,8.46,0,0,1,1.19.08,5.09,5.09,0,0,1,.9.2,1.31,1.31,0,0,1,.51.31.33.33,0,0,1,0,.38l-5.76,10.25a1.17,1.17,0,0,1-.48.4,4.32,4.32,0,0,1-.87.32,9,9,0,0,1-1.15.22c-.42,0-.86.08-1.31.09Zm45.37,0a8.92,8.92,0,0,1-1.22-.08,4.34,4.34,0,0,1-.91-.22,1.15,1.15,0,0,1-.51-.32.33.33,0,0,1,0-.4l5.64-10.25a1.11,1.11,0,0,1,.45-.38,5.13,5.13,0,0,1,.85-.31,9.88,9.88,0,0,1,1.12-.2,10.3,10.3,0,0,1,1.27-.08h33.11a8.72,8.72,0,0,1,1.2.08,4.72,4.72,0,0,1,.91.21,1.26,1.26,0,0,1,.53.31.31.31,0,0,1,.06.37l-4.81,10.26a1,1,0,0,1-.44.39,4.1,4.1,0,0,1-.85.32,7.07,7.07,0,0,1-1.13.22,10.8,10.8,0,0,1-1.3.08Zm45.22,0a9.18,9.18,0,0,1-1.23-.08,4.11,4.11,0,0,1-.93-.22,1.33,1.33,0,0,1-.55-.32.34.34,0,0,1-.08-.39l4.72-10.26a1.1,1.1,0,0,1,.43-.38,4.55,4.55,0,0,1,.83-.31,7.85,7.85,0,0,1,1.11-.21,10.35,10.35,0,0,1,1.27-.07h33.09a8.72,8.72,0,0,1,1.2.08,4.66,4.66,0,0,1,.92.21,1.4,1.4,0,0,1,.56.31.35.35,0,0,1,.1.38l-3.91,10.25a.83.83,0,0,1-.4.39,3.57,3.57,0,0,1-.82.33,7.58,7.58,0,0,1-1.11.21,8.94,8.94,0,0,1-1.29.08Zm45.18,0a7.7,7.7,0,0,1-1.23-.08,5,5,0,0,1-1-.21,1.5,1.5,0,0,1-.57-.33.35.35,0,0,1-.11-.39l3.81-10.25a.8.8,0,0,1,.39-.38,3,3,0,0,1,.79-.31,7.54,7.54,0,0,1,1.09-.21,10,10,0,0,1,1.26-.08h43.15a8.88,8.88,0,0,1,1.21.08,5,5,0,0,1,1,.21,1.7,1.7,0,0,1,.59.3.36.36,0,0,1,.14.38l-2.78,10.25a.77.77,0,0,1-.37.4,3.44,3.44,0,0,1-.78.33,8.36,8.36,0,0,1-1.09.22,10.34,10.34,0,0,1-1.28.08Zm55.33,0a9.34,9.34,0,0,1-1.24-.08,5,5,0,0,1-1-.22,1.72,1.72,0,0,1-.61-.32.4.4,0,0,1-.15-.4l2.69-10.25a.77.77,0,0,1,.35-.38,3.08,3.08,0,0,1,.76-.3,7.1,7.1,0,0,1,1.06-.21,9.85,9.85,0,0,1,1.25-.08L820,1896a9.85,9.85,0,0,1,1.25.08,8.2,8.2,0,0,1,1,.2,3.29,3.29,0,0,1,.74.31.69.69,0,0,1,.32.38l1.83,10.25a.43.43,0,0,1-.18.4,2.07,2.07,0,0,1-.65.32,5.63,5.63,0,0,1-1,.22,9.77,9.77,0,0,1-1.26.08l-217.93,0Zm229.32,0a10.3,10.3,0,0,1-1.27-.08,8.35,8.35,0,0,1-1.07-.22,3,3,0,0,1-.76-.32.75.75,0,0,1-.33-.4L828.09,1897a.4.4,0,0,1,.18-.38,1.91,1.91,0,0,1,.61-.31,6.57,6.57,0,0,1,1-.2,9.14,9.14,0,0,1,1.22-.08h43.14a9.85,9.85,0,0,1,1.25.08,7,7,0,0,1,1.07.21,2.72,2.72,0,0,1,.76.31.74.74,0,0,1,.36.37l3,10.25a.37.37,0,0,1-.14.4,1.61,1.61,0,0,1-.59.32,5.38,5.38,0,0,1-1,.22,9.34,9.34,0,0,1-1.24.08Zm56.34,0a10.51,10.51,0,0,1-1.29-.08,7.36,7.36,0,0,1-1.1-.22,3.4,3.4,0,0,1-.8-.32.77.77,0,0,1-.37-.4L883.18,1897a.34.34,0,0,1,.13-.38,1.71,1.71,0,0,1,.58-.31,5.92,5.92,0,0,1,1-.21,9,9,0,0,1,1.21-.07h33.21a10,10,0,0,1,1.26.08,7.54,7.54,0,0,1,1.09.21,3.51,3.51,0,0,1,.79.31.8.8,0,0,1,.39.38l3.89,10.25a.35.35,0,0,1-.11.39,1.42,1.42,0,0,1-.57.32,4.07,4.07,0,0,1-.94.22,9.3,9.3,0,0,1-1.23.08Zm86.65-6.45a8.64,8.64,0,0,1-1-.06,7,7,0,0,1-.89-.17,3.24,3.24,0,0,1-.66-.26.73.73,0,0,1-.34-.3l-2.27-4.71a.26.26,0,0,1,.06-.3,1.06,1.06,0,0,1,.43-.25,3.54,3.54,0,0,1,.72-.16,6.8,6.8,0,0,1,.95-.06h34.47a8.19,8.19,0,0,1,1,.06,6.88,6.88,0,0,1,.9.17,3.42,3.42,0,0,1,.67.24.91.91,0,0,1,.37.3l2.64,4.71a.27.27,0,0,1,0,.31,1,1,0,0,1-.41.25,3.64,3.64,0,0,1-.72.17,6.8,6.8,0,0,1-.95.06Zm-554.8-7.09a8.21,8.21,0,0,1-1.18-.08,4,4,0,0,1-.87-.21,1.07,1.07,0,0,1-.48-.3.31.31,0,0,1,0-.38l6.2-9.71a1.13,1.13,0,0,1,.48-.36,4.08,4.08,0,0,1,.84-.29,8.32,8.32,0,0,1,1.1-.2,10.13,10.13,0,0,1,1.25-.07l84.72,0a8.36,8.36,0,0,1,1.17.07,5.26,5.26,0,0,1,.88.2,1.37,1.37,0,0,1,.53.29.35.35,0,0,1,.08.37l-4.38,9.7a.88.88,0,0,1-.42.38,4.05,4.05,0,0,1-.81.31,9.2,9.2,0,0,1-1.09.21c-.4,0-.83.07-1.27.07l-86.75,0Zm99.59,0a8.32,8.32,0,0,1-1.18-.08,4.28,4.28,0,0,1-.9-.21,1.48,1.48,0,0,1-.54-.3.35.35,0,0,1-.09-.38l4.27-9.71a.84.84,0,0,1,.4-.36,3.38,3.38,0,0,1,.79-.29,7.16,7.16,0,0,1,1.06-.2,9.7,9.7,0,0,1,1.23-.07h32.36a10.37,10.37,0,0,1,1.17.07,5.68,5.68,0,0,1,.91.2,1.53,1.53,0,0,1,.56.29.33.33,0,0,1,.12.36l-3.49,9.72a.83.83,0,0,1-.39.37,3.24,3.24,0,0,1-.78.31,7.39,7.39,0,0,1-1.08.21,10,10,0,0,1-1.25.07H521.23Zm44.25,0a8.72,8.72,0,0,1-1.2-.08,5.72,5.72,0,0,1-.93-.2,1.5,1.5,0,0,1-.57-.31.33.33,0,0,1-.11-.37l3.38-9.72a.73.73,0,0,1,.36-.36,3.36,3.36,0,0,1,.77-.29,8.37,8.37,0,0,1,1-.2,12,12,0,0,1,1.23-.07h32.37a8.42,8.42,0,0,1,1.18.08,5.06,5.06,0,0,1,.93.19,1.76,1.76,0,0,1,.57.3.35.35,0,0,1,.15.36l-2.61,9.71a.65.65,0,0,1-.34.37,3.06,3.06,0,0,1-.76.31,7.1,7.1,0,0,1-1.06.21,12.22,12.22,0,0,1-1.25.07Zm44.23,0a11.28,11.28,0,0,1-1.21-.07,5.19,5.19,0,0,1-1-.21,1.66,1.66,0,0,1-.6-.31.36.36,0,0,1-.16-.37l2.54-9.71a.6.6,0,0,1,.32-.36,3.53,3.53,0,0,1,.74-.3,6.78,6.78,0,0,1,1-.19,9.49,9.49,0,0,1,1.22-.08H645a8.76,8.76,0,0,1,1.19.07,5.12,5.12,0,0,1,.94.2,1.83,1.83,0,0,1,.61.29.37.37,0,0,1,.17.36l-1.73,9.71a.69.69,0,0,1-.32.38,2.82,2.82,0,0,1-.73.3,6.67,6.67,0,0,1-1,.21,9.91,9.91,0,0,1-1.25.07Zm44.21,0a9.17,9.17,0,0,1-1.21-.07,5.44,5.44,0,0,1-1-.21,1.88,1.88,0,0,1-.62-.3.42.42,0,0,1-.18-.38l1.64-9.71a.58.58,0,0,1,.31-.36,2.93,2.93,0,0,1,.7-.3,8.2,8.2,0,0,1,1-.2,11.63,11.63,0,0,1,1.22-.07h32.35a8.79,8.79,0,0,1,1.19.08,4.72,4.72,0,0,1,1,.2,2.13,2.13,0,0,1,.64.29.41.41,0,0,1,.21.36l-.87,9.71a.55.55,0,0,1-.28.38,2.82,2.82,0,0,1-.71.31,7.68,7.68,0,0,1-1,.2,9.37,9.37,0,0,1-1.22.08Zm44.24,0a9.41,9.41,0,0,1-1.23-.08,5.9,5.9,0,0,1-1-.21,2.14,2.14,0,0,1-.66-.31.44.44,0,0,1-.22-.37l.8-9.71c0-.13.1-.25.26-.36a2.43,2.43,0,0,1,.68-.29,5.36,5.36,0,0,1,1-.2A9.22,9.22,0,0,1,699,1883h32.35a9,9,0,0,1,1.2.07,7,7,0,0,1,1,.2,2.2,2.2,0,0,1,.65.29.45.45,0,0,1,.24.36v9.71a.51.51,0,0,1-.25.38,2.56,2.56,0,0,1-.68.31,7,7,0,0,1-1,.2,9.3,9.3,0,0,1-1.23.08Zm44.2,0a9.53,9.53,0,0,1-1.23-.08,7.67,7.67,0,0,1-1-.2,2.64,2.64,0,0,1-.67-.31.51.51,0,0,1-.25-.38l-.1-9.71a.48.48,0,0,1,.24-.36,2.16,2.16,0,0,1,.66-.29,5.49,5.49,0,0,1,1-.2,9,9,0,0,1,1.2-.07h32.35a11.43,11.43,0,0,1,1.21.07,7.67,7.67,0,0,1,1,.2,2.51,2.51,0,0,1,.69.29.52.52,0,0,1,.28.36l.87,9.71a.46.46,0,0,1-.22.38,2,2,0,0,1-.65.31,5.56,5.56,0,0,1-1,.21,9.64,9.64,0,0,1-1.24.07Zm44.23,0a9.81,9.81,0,0,1-1.24-.08,8.2,8.2,0,0,1-1-.2,3.2,3.2,0,0,1-.71-.31.55.55,0,0,1-.28-.38l-1-9.71a.44.44,0,0,1,.21-.36,2.13,2.13,0,0,1,.64-.29,6.57,6.57,0,0,1,1-.2,10.89,10.89,0,0,1,1.19-.07h32.35a9.22,9.22,0,0,1,1.21.08,6.28,6.28,0,0,1,1,.19,2.85,2.85,0,0,1,.71.3.58.58,0,0,1,.31.36l1.74,9.71a.4.4,0,0,1-.18.37,1.88,1.88,0,0,1-.62.31,4.72,4.72,0,0,1-1,.2,9.1,9.1,0,0,1-1.21.08Zm44.21,0a9.85,9.85,0,0,1-1.25-.08,5.7,5.7,0,0,1-1-.2,2.74,2.74,0,0,1-.74-.31.59.59,0,0,1-.31-.37l-1.83-9.71a.35.35,0,0,1,.17-.36,2,2,0,0,1,.6-.3,5.36,5.36,0,0,1,.94-.19,8.68,8.68,0,0,1,1.19-.08h32.35a9.54,9.54,0,0,1,1.22.07,6.72,6.72,0,0,1,1,.2,3,3,0,0,1,.75.29.68.68,0,0,1,.34.36l2.61,9.71a.39.39,0,0,1-.15.38,2,2,0,0,1-.6.3,5.31,5.31,0,0,1-1,.21,9,9,0,0,1-1.21.07Zm44.22,0a10,10,0,0,1-1.25-.07,7.51,7.51,0,0,1-1.07-.21,3.53,3.53,0,0,1-.76-.3.72.72,0,0,1-.35-.38l-2.71-9.71a.35.35,0,0,1,.15-.36,1.94,1.94,0,0,1,.58-.3,6.23,6.23,0,0,1,.93-.2,10.74,10.74,0,0,1,1.19-.07h32.38a11.59,11.59,0,0,1,1.21.07,8.37,8.37,0,0,1,1,.2,3.68,3.68,0,0,1,.75.29.85.85,0,0,1,.37.36l3.47,9.71a.34.34,0,0,1-.11.38,1.53,1.53,0,0,1-.56.3,5,5,0,0,1-.93.21,8.83,8.83,0,0,1-1.2.08Zm44.21,0a10,10,0,0,1-1.26-.08,7.39,7.39,0,0,1-1.08-.21,4,4,0,0,1-.78-.3.89.89,0,0,1-.39-.38l-3.57-9.71a.34.34,0,0,1,.11-.36,1.56,1.56,0,0,1,.55-.29,4.11,4.11,0,0,1,.91-.2,8.27,8.27,0,0,1,1.17-.08h32.35a9.81,9.81,0,0,1,1.23.07,8.92,8.92,0,0,1,1.07.2,3.19,3.19,0,0,1,.8.3.88.88,0,0,1,.41.36l4.34,9.7a.35.35,0,0,1-.08.38,1.4,1.4,0,0,1-.55.3,4.72,4.72,0,0,1-.91.21,8.83,8.83,0,0,1-1.2.08Zm44.22,0a10.3,10.3,0,0,1-1.27-.08,8,8,0,0,1-1.1-.21,3.65,3.65,0,0,1-.82-.3.93.93,0,0,1-.42-.38l-4.44-9.71a.3.3,0,0,1,.08-.36,1.37,1.37,0,0,1,.53-.29,4.49,4.49,0,0,1,.9-.2,8.36,8.36,0,0,1,1.17-.07l85.41,0a10.1,10.1,0,0,1,1.25.08,8.25,8.25,0,0,1,1.11.19,5,5,0,0,1,.86.3,1.09,1.09,0,0,1,.47.36l6.29,9.71a.31.31,0,0,1,0,.37,1.12,1.12,0,0,1-.49.31,4.7,4.7,0,0,1-.87.2,8.46,8.46,0,0,1-1.19.08l-87.46,0Zm-533.63-12.82a9.59,9.59,0,0,1-1.15-.07,4.45,4.45,0,0,1-.85-.2,1,1,0,0,1-.47-.29.26.26,0,0,1,0-.35l5.89-9.22a1,1,0,0,1,.45-.35,4.87,4.87,0,0,1,.82-.28,9.83,9.83,0,0,1,1.07-.19,12,12,0,0,1,1.22-.07H498.4a7.69,7.69,0,0,1,1.13.07,4.15,4.15,0,0,1,.86.18,1.32,1.32,0,0,1,.51.28.28.28,0,0,1,.06.34l-4.56,9.22a1,1,0,0,1-.42.36,3.66,3.66,0,0,1-.8.29,7.62,7.62,0,0,1-1.07.19,9.81,9.81,0,0,1-1.23.07l-63.06,0Zm73.16,0a8.31,8.31,0,0,1-1.16-.07,4.43,4.43,0,0,1-.89-.19,1.25,1.25,0,0,1-.52-.29.31.31,0,0,1-.07-.36l4.49-9.22a.91.91,0,0,1,.41-.34,4.07,4.07,0,0,1,.78-.28,9,9,0,0,1,1.05-.19,11.76,11.76,0,0,1,1.21-.07h31.53a8,8,0,0,1,1.14.07,4.26,4.26,0,0,1,.87.18,1.52,1.52,0,0,1,.53.28.33.33,0,0,1,.1.35l-3.76,9.22a.82.82,0,0,1-.38.35,3.46,3.46,0,0,1-.78.29,8.94,8.94,0,0,1-1,.2,12,12,0,0,1-1.23.07Zm43.06,0a10.37,10.37,0,0,1-1.17-.07,5.4,5.4,0,0,1-.89-.2,1.48,1.48,0,0,1-.54-.29.32.32,0,0,1-.1-.36l3.66-9.21a.82.82,0,0,1,.38-.35,3.71,3.71,0,0,1,.75-.28,6.85,6.85,0,0,1,1-.18,9.07,9.07,0,0,1,1.19-.07h31.53a8.16,8.16,0,0,1,1.15.07,4.7,4.7,0,0,1,.9.19,1.53,1.53,0,0,1,.56.28.31.31,0,0,1,.13.34l-2.93,9.21a.69.69,0,0,1-.36.36,3.18,3.18,0,0,1-.75.29,8.56,8.56,0,0,1-1.05.2,9.54,9.54,0,0,1-1.22.07Zm43.08,0a8.71,8.71,0,0,1-1.18-.07,6.08,6.08,0,0,1-.92-.2,1.58,1.58,0,0,1-.57-.29.34.34,0,0,1-.13-.36l2.84-9.22c0-.12.16-.23.34-.34a3.6,3.6,0,0,1,.74-.28,8,8,0,0,1,1-.18,9.22,9.22,0,0,1,1.2-.07H624a10.19,10.19,0,0,1,1.16.07,6,6,0,0,1,.91.19,1.59,1.59,0,0,1,.57.28.33.33,0,0,1,.16.34l-2.1,9.22a.67.67,0,0,1-.33.35,2.75,2.75,0,0,1-.72.29,5.59,5.59,0,0,1-1,.2,9.34,9.34,0,0,1-1.21.08Zm43.06,0a10.41,10.41,0,0,1-1.18-.07,6,6,0,0,1-.93-.2,1.76,1.76,0,0,1-.6-.29.35.35,0,0,1-.16-.35l2-9.22a.55.55,0,0,1,.31-.34,2.6,2.6,0,0,1,.7-.28,7.93,7.93,0,0,1,1-.19,11,11,0,0,1,1.19-.07H666a8.56,8.56,0,0,1,1.17.07,5.29,5.29,0,0,1,.93.18,2.19,2.19,0,0,1,.61.28.36.36,0,0,1,.19.34l-1.28,9.22a.53.53,0,0,1-.29.35,2.82,2.82,0,0,1-.71.29,6.22,6.22,0,0,1-1,.2,9.17,9.17,0,0,1-1.21.07Zm43.07,0a9,9,0,0,1-1.19-.07,5.44,5.44,0,0,1-.95-.2,2,2,0,0,1-.63-.29.37.37,0,0,1-.19-.35l1.19-9.22a.49.49,0,0,1,.28-.34,3,3,0,0,1,.68-.28,6.28,6.28,0,0,1,1-.18,8.81,8.81,0,0,1,1.18-.07h31.52a10.52,10.52,0,0,1,1.17.07,5.18,5.18,0,0,1,.94.19,2.08,2.08,0,0,1,.63.27.43.43,0,0,1,.22.35l-.46,9.21c0,.13-.1.25-.26.36a2.35,2.35,0,0,1-.67.29,5.88,5.88,0,0,1-1,.19,9.06,9.06,0,0,1-1.2.08Zm43.06,0a9,9,0,0,1-1.2-.08,5.62,5.62,0,0,1-1-.19,2.09,2.09,0,0,1-.65-.29.43.43,0,0,1-.22-.36l.36-9.21a.51.51,0,0,1,.25-.35,2.61,2.61,0,0,1,.66-.28,6.79,6.79,0,0,1,1-.19,10.52,10.52,0,0,1,1.17-.07H750.2a8.81,8.81,0,0,1,1.18.07,5.62,5.62,0,0,1,1,.19,2.17,2.17,0,0,1,.66.28.44.44,0,0,1,.25.34l.37,9.22c0,.12-.07.24-.23.35a2.09,2.09,0,0,1-.65.29,7.17,7.17,0,0,1-1,.2,11.24,11.24,0,0,1-1.2.07Zm43.07,0a11.24,11.24,0,0,1-1.2-.07,7.18,7.18,0,0,1-1-.2,2.6,2.6,0,0,1-.68-.29c-.16-.11-.26-.23-.26-.36l-.46-9.21a.42.42,0,0,1,.22-.34,2.14,2.14,0,0,1,.64-.28,5.49,5.49,0,0,1,1-.19,8.56,8.56,0,0,1,1.17-.07h31.52a10.86,10.86,0,0,1,1.18.07,7.25,7.25,0,0,1,1,.19,2.44,2.44,0,0,1,.68.28.54.54,0,0,1,.28.34l1.19,9.21a.39.39,0,0,1-.19.36,1.89,1.89,0,0,1-.62.29,5.44,5.44,0,0,1-.95.2,8.76,8.76,0,0,1-1.19.07Zm43,0a9.12,9.12,0,0,1-1.2-.07,6.22,6.22,0,0,1-1-.2,2.65,2.65,0,0,1-.69-.29.57.57,0,0,1-.29-.36l-1.28-9.21a.36.36,0,0,1,.19-.34,1.77,1.77,0,0,1,.6-.28,6.16,6.16,0,0,1,.92-.19,10.48,10.48,0,0,1,1.16-.07h31.53a11.09,11.09,0,0,1,1.18.06,7.76,7.76,0,0,1,1,.19,2.83,2.83,0,0,1,.71.28.55.55,0,0,1,.31.34l2,9.22a.35.35,0,0,1-.16.35,2.08,2.08,0,0,1-.6.3,5.36,5.36,0,0,1-.94.19,8.68,8.68,0,0,1-1.19.08Zm43.07,0a11.59,11.59,0,0,1-1.21-.07,8.2,8.2,0,0,1-1-.2,2.84,2.84,0,0,1-.73-.29.65.65,0,0,1-.32-.35l-2.11-9.22a.33.33,0,0,1,.16-.34,1.71,1.71,0,0,1,.59-.28,5.76,5.76,0,0,1,.91-.19,10.44,10.44,0,0,1,1.16-.06h31.52a9,9,0,0,1,1.19.07,8.38,8.38,0,0,1,1,.18,3.72,3.72,0,0,1,.73.28.73.73,0,0,1,.34.34l2.84,9.22a.34.34,0,0,1-.13.36,1.58,1.58,0,0,1-.57.29,5.68,5.68,0,0,1-.91.2,10.56,10.56,0,0,1-1.18.07Zm43,0a9.54,9.54,0,0,1-1.22-.07,8.84,8.84,0,0,1-1-.19,4.23,4.23,0,0,1-.74-.29.7.7,0,0,1-.35-.36l-2.94-9.22a.32.32,0,0,1,.13-.34,1.75,1.75,0,0,1,.55-.28,5.7,5.7,0,0,1,.9-.18,8,8,0,0,1,1.14-.07H918.5a11.4,11.4,0,0,1,1.2.07,8.84,8.84,0,0,1,1,.19,3.2,3.2,0,0,1,.75.28.76.76,0,0,1,.38.34l3.67,9.21a.31.31,0,0,1-.11.36,1.4,1.4,0,0,1-.55.29,4.54,4.54,0,0,1-.9.19,8.38,8.38,0,0,1-1.17.08Zm43.07,0a9.65,9.65,0,0,1-1.23-.08,7.22,7.22,0,0,1-1.06-.19,3.46,3.46,0,0,1-.78-.29.81.81,0,0,1-.39-.36l-3.76-9.21a.31.31,0,0,1,.1-.34,1.29,1.29,0,0,1,.54-.28,4.47,4.47,0,0,1,.88-.19,8.07,8.07,0,0,1,1.15-.07h31.56a8.91,8.91,0,0,1,1.18.07,6.85,6.85,0,0,1,1,.18,4,4,0,0,1,.77.28.93.93,0,0,1,.4.34l4.49,9.22a.3.3,0,0,1-.07.35,1.27,1.27,0,0,1-.51.29,5.26,5.26,0,0,1-.88.2,10.23,10.23,0,0,1-1.17.07Zm43.84,0a12.36,12.36,0,0,1-1.24-.07,9.51,9.51,0,0,1-1.08-.2,3.66,3.66,0,0,1-.8-.29.94.94,0,0,1-.43-.36l-4.59-9.21a.28.28,0,0,1,.07-.34,1.27,1.27,0,0,1,.51-.28,4.21,4.21,0,0,1,.87-.19,9.51,9.51,0,0,1,1.13-.07h63.7a9.65,9.65,0,0,1,1.22.07,7.78,7.78,0,0,1,1.08.19,4,4,0,0,1,.83.28,1.1,1.1,0,0,1,.46.34l5.94,9.21a.29.29,0,0,1,0,.36,1,1,0,0,1-.47.29,4.1,4.1,0,0,1-.86.19,7.78,7.78,0,0,1-1.15.08Zm-540-12.16a9.33,9.33,0,0,1-1.12-.07,4.47,4.47,0,0,1-.83-.19,1,1,0,0,1-.46-.28.26.26,0,0,1,0-.34l5.6-8.75a1,1,0,0,1,.43-.33,4.18,4.18,0,0,1,.8-.26,7.38,7.38,0,0,1,1-.18,11,11,0,0,1,1.18-.07H494.4a9.11,9.11,0,0,1,1.1.06,3.94,3.94,0,0,1,.84.18,1.17,1.17,0,0,1,.49.26.26.26,0,0,1,.06.33l-4.53,8.76a.91.91,0,0,1-.41.34,4.12,4.12,0,0,1-.78.27,8.84,8.84,0,0,1-1,.19,11.76,11.76,0,0,1-1.21.07Zm62.76,0a9.64,9.64,0,0,1-1.13-.07,5.29,5.29,0,0,1-.86-.19,1.35,1.35,0,0,1-.5-.27.3.3,0,0,1-.08-.34l4.45-8.76a.86.86,0,0,1,.4-.33,3.53,3.53,0,0,1,.76-.26,6.93,6.93,0,0,1,1-.18,8.86,8.86,0,0,1,1.17-.07h30.75a9.29,9.29,0,0,1,1.11.07,4.46,4.46,0,0,1,.86.18,1.56,1.56,0,0,1,.52.27.28.28,0,0,1,.09.32l-3.75,8.76a.76.76,0,0,1-.38.34,3.61,3.61,0,0,1-.76.28,8.56,8.56,0,0,1-1,.18,11.56,11.56,0,0,1-1.2.07Zm42,0a9.68,9.68,0,0,1-1.14-.07,4.36,4.36,0,0,1-.87-.19,1.37,1.37,0,0,1-.53-.28.29.29,0,0,1-.09-.33l3.64-8.76a.81.81,0,0,1,.37-.32,3.64,3.64,0,0,1,.74-.27,6.42,6.42,0,0,1,1-.18,10.82,10.82,0,0,1,1.17-.07h30.76a9.59,9.59,0,0,1,1.12.06,6.93,6.93,0,0,1,.87.18,1.62,1.62,0,0,1,.53.27.29.29,0,0,1,.12.33l-2.94,8.75a.76.76,0,0,1-.35.34,3.72,3.72,0,0,1-.73.28,6.93,6.93,0,0,1-1,.18,9,9,0,0,1-1.19.07Zm42,0a8,8,0,0,1-1.14-.07,4.76,4.76,0,0,1-.9-.18,1.75,1.75,0,0,1-.55-.28.32.32,0,0,1-.13-.34l2.88-8.76c0-.12.15-.22.33-.32a3.42,3.42,0,0,1,.72-.27,9.67,9.67,0,0,1,1-.18,10.84,10.84,0,0,1,1.16-.06h30.75a9.61,9.61,0,0,1,1.12.07,4.64,4.64,0,0,1,.89.18,1.6,1.6,0,0,1,.57.26.32.32,0,0,1,.15.32l-2.18,8.76a.6.6,0,0,1-.32.34,2.83,2.83,0,0,1-.71.28,7.93,7.93,0,0,1-1,.19,11,11,0,0,1-1.19.07Zm42,0a8.26,8.26,0,0,1-1.15-.07,4.76,4.76,0,0,1-.9-.18,1.84,1.84,0,0,1-.58-.28.34.34,0,0,1-.15-.34l2.08-8.76c0-.11.13-.22.3-.32a2.7,2.7,0,0,1,.69-.26,6,6,0,0,1,1-.18,10.48,10.48,0,0,1,1.16-.07H659.3a9.89,9.89,0,0,1,1.13.06,4.93,4.93,0,0,1,.9.18,1.75,1.75,0,0,1,.58.26.36.36,0,0,1,.18.33l-1.38,8.76a.53.53,0,0,1-.29.33,2.44,2.44,0,0,1-.68.28,7.11,7.11,0,0,1-1,.19,10.82,10.82,0,0,1-1.18.06Zm42,0a10.44,10.44,0,0,1-1.16-.06,6.32,6.32,0,0,1-.93-.19,1.77,1.77,0,0,1-.6-.28c-.14-.1-.21-.21-.19-.33l1.31-8.76a.54.54,0,0,1,.28-.33,2.4,2.4,0,0,1,.67-.26,5.74,5.74,0,0,1,.95-.18,10.52,10.52,0,0,1,1.15-.06h30.74a8.11,8.11,0,0,1,1.14.07,6.34,6.34,0,0,1,.92.17,2.43,2.43,0,0,1,.62.27.42.42,0,0,1,.21.32l-.62,8.76a.48.48,0,0,1-.26.34,2.19,2.19,0,0,1-.66.27,5.62,5.62,0,0,1-1,.19,10.52,10.52,0,0,1-1.17.07Zm42,0a10.19,10.19,0,0,1-1.16-.07,5.18,5.18,0,0,1-.94-.19,2.08,2.08,0,0,1-.63-.27.41.41,0,0,1-.21-.34l.51-8.76a.46.46,0,0,1,.25-.32,2.45,2.45,0,0,1,.64-.27,5.61,5.61,0,0,1,.94-.18,10.11,10.11,0,0,1,1.14-.07h30.8a9.93,9.93,0,0,1,1.13.07,5.36,5.36,0,0,1,.92.18,2.14,2.14,0,0,1,.62.26.42.42,0,0,1,.23.33l.19,8.75a.43.43,0,0,1-.23.34,2.07,2.07,0,0,1-.63.28,5.55,5.55,0,0,1-1,.18,8.41,8.41,0,0,1-1.16.07Zm42,0a8.66,8.66,0,0,1-1.17-.07,7.18,7.18,0,0,1-1-.18,2.52,2.52,0,0,1-.65-.28.44.44,0,0,1-.25-.34l-.25-8.75c0-.12.07-.23.22-.33a2.2,2.2,0,0,1,.61-.27,8.56,8.56,0,0,1,.93-.18,9.89,9.89,0,0,1,1.13-.06h30.74a10.3,10.3,0,0,1,1.15.07,6,6,0,0,1,1,.18,2.37,2.37,0,0,1,.65.26.52.52,0,0,1,.27.33l1,8.75a.39.39,0,0,1-.2.34,1.93,1.93,0,0,1-.61.28,6.32,6.32,0,0,1-.93.19,10.19,10.19,0,0,1-1.16.07Zm42,0a10.52,10.52,0,0,1-1.17-.07,7.11,7.11,0,0,1-1-.19,2.37,2.37,0,0,1-.67-.28.5.5,0,0,1-.27-.34l-1.06-8.76a.36.36,0,0,1,.19-.32,1.92,1.92,0,0,1,.59-.26,5.23,5.23,0,0,1,.91-.18,9.93,9.93,0,0,1,1.13-.07h30.76a10.2,10.2,0,0,1,1.14.06,6,6,0,0,1,1,.18,2.61,2.61,0,0,1,.68.26c.17.1.28.21.3.33l1.75,8.76a.32.32,0,0,1-.16.33,1.71,1.71,0,0,1-.59.28,4.82,4.82,0,0,1-.91.19,10.15,10.15,0,0,1-1.15.07Zm42,0a8.91,8.91,0,0,1-1.18-.07,6.42,6.42,0,0,1-1-.18,2.6,2.6,0,0,1-.7-.28.6.6,0,0,1-.31-.33L831,1859.8a.32.32,0,0,1,.16-.33,1.6,1.6,0,0,1,.57-.26,4.81,4.81,0,0,1,.89-.18,10,10,0,0,1,1.13-.06h30.74a8.71,8.71,0,0,1,1.16.07,7.93,7.93,0,0,1,1,.17,3.42,3.42,0,0,1,.7.27.65.65,0,0,1,.32.32l2.54,8.76a.34.34,0,0,1-.14.34,1.71,1.71,0,0,1-.56.28,4.64,4.64,0,0,1-.89.18,8.16,8.16,0,0,1-1.15.07Zm41.95,0a11,11,0,0,1-1.18-.07,8.29,8.29,0,0,1-1-.19,3.42,3.42,0,0,1-.72-.27c-.18-.11-.3-.22-.33-.34l-2.63-8.76a.31.31,0,0,1,.14-.32,1.58,1.58,0,0,1,.54-.27,5.51,5.51,0,0,1,.88-.17,7.73,7.73,0,0,1,1.12-.07h30.76a10.6,10.6,0,0,1,1.15.07,6.88,6.88,0,0,1,1,.18,3.23,3.23,0,0,1,.73.26.71.71,0,0,1,.35.33l3.32,8.75a.29.29,0,0,1-.1.34,1.42,1.42,0,0,1-.54.28,4.49,4.49,0,0,1-.89.18,8.07,8.07,0,0,1-1.15.07Zm42,0a9.22,9.22,0,0,1-1.2-.07,7.08,7.08,0,0,1-1-.18,3.2,3.2,0,0,1-.75-.28.78.78,0,0,1-.37-.34l-3.41-8.75a.3.3,0,0,1,.11-.33,1.52,1.52,0,0,1,.53-.27,6.57,6.57,0,0,1,.87-.18,9.41,9.41,0,0,1,1.11-.06h30.78a10.52,10.52,0,0,1,1.15.06,10.14,10.14,0,0,1,1,.18,3.64,3.64,0,0,1,.74.27.79.79,0,0,1,.38.32l4.11,8.76a.3.3,0,0,1-.08.34,1.4,1.4,0,0,1-.51.27,5.06,5.06,0,0,1-.86.19,9.82,9.82,0,0,1-1.14.06Zm42,0a11.47,11.47,0,0,1-1.2-.06,8.84,8.84,0,0,1-1-.19,4,4,0,0,1-.77-.27.93.93,0,0,1-.4-.34l-4.19-8.76a.28.28,0,0,1,.08-.33,1.22,1.22,0,0,1,.5-.26,3.94,3.94,0,0,1,.84-.18,9.16,9.16,0,0,1,1.11-.07H987.5a11.22,11.22,0,0,1,1.18.06c.38,0,.73.11,1,.18a4.68,4.68,0,0,1,.78.27,1,1,0,0,1,.41.32l4.89,8.76a.28.28,0,0,1,0,.33,1.11,1.11,0,0,1-.49.28,4.72,4.72,0,0,1-.85.19,9.68,9.68,0,0,1-1.14.07Zm41.54,0a11.59,11.59,0,0,1-1.21-.07,8.84,8.84,0,0,1-1.06-.19,3.79,3.79,0,0,1-.81-.28,1,1,0,0,1-.43-.33l-5-8.76a.26.26,0,0,1,.05-.32,1.24,1.24,0,0,1,.48-.27,6,6,0,0,1,.84-.18,9.11,9.11,0,0,1,1.1-.06h30.73a8.91,8.91,0,0,1,1.18.07,9.61,9.61,0,0,1,1,.17,4.51,4.51,0,0,1,.79.27,1.08,1.08,0,0,1,.44.32l5.67,8.76a.29.29,0,0,1,0,.34,1,1,0,0,1-.46.27,3.79,3.79,0,0,1-.83.19,7.64,7.64,0,0,1-1.12.07Zm-558.55-11.55a9,9,0,0,1-1.1-.06,3.63,3.63,0,0,1-.81-.18,1,1,0,0,1-.46-.26.26.26,0,0,1,0-.32l5.33-8.34a1.06,1.06,0,0,1,.42-.31,4.65,4.65,0,0,1,.77-.25,9,9,0,0,1,1-.17,10.76,10.76,0,0,1,1.15-.07h30a8.77,8.77,0,0,1,1.08.06,4.68,4.68,0,0,1,.82.17,1.19,1.19,0,0,1,.47.26.23.23,0,0,1,.05.31L478.9,1857a1,1,0,0,1-.42.32,3.55,3.55,0,0,1-.78.26,7.08,7.08,0,0,1-1,.18,11,11,0,0,1-1.18.07Zm40.94,0a9,9,0,0,1-1.1-.07,4.08,4.08,0,0,1-.84-.18,1.12,1.12,0,0,1-.48-.26.25.25,0,0,1-.06-.32l4.58-8.33a.92.92,0,0,1,.4-.32,4.23,4.23,0,0,1,.76-.25,8.65,8.65,0,0,1,1-.17,10.79,10.79,0,0,1,1.15-.06h30a8.64,8.64,0,0,1,1.08.07,3.89,3.89,0,0,1,.83.17,1.24,1.24,0,0,1,.49.25.26.26,0,0,1,.08.31l-3.92,8.33a.79.79,0,0,1-.38.32,3.76,3.76,0,0,1-.75.27c-.29.07-.64.13-1,.18a10.84,10.84,0,0,1-1.16.06Zm40.89,0a9.23,9.23,0,0,1-1.1-.06,4.12,4.12,0,0,1-.83-.18,1.17,1.17,0,0,1-.49-.26.27.27,0,0,1-.08-.32l3.84-8.33a.76.76,0,0,1,.36-.31,3.8,3.8,0,0,1,.73-.26,8,8,0,0,1,1-.16,10.42,10.42,0,0,1,1.14-.07h30a9.06,9.06,0,0,1,1.09.06,5.09,5.09,0,0,1,.85.17,1.57,1.57,0,0,1,.52.25.27.27,0,0,1,.11.31l-3.17,8.33a.71.71,0,0,1-.35.33,4.44,4.44,0,0,1-.74.26,10.14,10.14,0,0,1-1,.18,10.84,10.84,0,0,1-1.16.06h-30.7Zm41,0a7.59,7.59,0,0,1-1.11-.07,5.36,5.36,0,0,1-.87-.17,1.73,1.73,0,0,1-.53-.26.28.28,0,0,1-.11-.33l3.09-8.33a.7.7,0,0,1,.34-.31,3.39,3.39,0,0,1,.71-.25,7.93,7.93,0,0,1,1-.17,10.15,10.15,0,0,1,1.13-.06h30a9.06,9.06,0,0,1,1.09.06,5.45,5.45,0,0,1,.86.17,1.71,1.71,0,0,1,.54.25.31.31,0,0,1,.13.31l-2.43,8.34a.61.61,0,0,1-.32.32,2.64,2.64,0,0,1-.7.26,5.94,5.94,0,0,1-1,.18,10.52,10.52,0,0,1-1.15.06Zm40.92,0a9.71,9.71,0,0,1-1.12-.06,4.57,4.57,0,0,1-.87-.18,1.57,1.57,0,0,1-.55-.26.31.31,0,0,1-.14-.32l2.35-8.34c0-.11.14-.21.31-.31a3.06,3.06,0,0,1,.68-.25,7.41,7.41,0,0,1,.95-.17,10.28,10.28,0,0,1,1.13-.06h30a9.36,9.36,0,0,1,1.1.06,5.74,5.74,0,0,1,.88.17,1.7,1.7,0,0,1,.57.25.33.33,0,0,1,.16.31l-1.68,8.33c0,.12-.13.22-.3.32a3,3,0,0,1-.68.27,7.44,7.44,0,0,1-1,.17,10.45,10.45,0,0,1-1.15.07Zm40.94,0a9.93,9.93,0,0,1-1.13-.07,6.29,6.29,0,0,1-.9-.17,2,2,0,0,1-.58-.27c-.13-.1-.19-.2-.16-.32l1.59-8.33a.56.56,0,0,1,.29-.31,2.93,2.93,0,0,1,.67-.26,6.82,6.82,0,0,1,1-.17,10,10,0,0,1,1.12-.06h30a9.4,9.4,0,0,1,1.1.07,5.89,5.89,0,0,1,.89.17,2,2,0,0,1,.58.25c.13.1.2.2.19.31l-.94,8.34a.47.47,0,0,1-.26.32,2.32,2.32,0,0,1-.66.26,8.78,8.78,0,0,1-.94.18,10.39,10.39,0,0,1-1.15.06Zm40.92,0a9.77,9.77,0,0,1-1.13-.06,7.71,7.71,0,0,1-.91-.18,2.12,2.12,0,0,1-.6-.27.39.39,0,0,1-.19-.32l.85-8.33c0-.11.11-.21.26-.31a2.51,2.51,0,0,1,.64-.25,6.34,6.34,0,0,1,.92-.17,9.75,9.75,0,0,1,1.12-.07h30a9.53,9.53,0,0,1,1.11.06,5.94,5.94,0,0,1,.91.17,2.24,2.24,0,0,1,.61.25c.15.1.23.2.22.31L724,1857a.46.46,0,0,1-.24.33,2.29,2.29,0,0,1-.64.26,5.61,5.61,0,0,1-.94.18,10.11,10.11,0,0,1-1.14.07Zm40.9,0a8.06,8.06,0,0,1-1.13-.07,6.34,6.34,0,0,1-.92-.17,2.43,2.43,0,0,1-.62-.27.4.4,0,0,1-.22-.32l.11-8.33c0-.11.08-.21.23-.31a2.48,2.48,0,0,1,.62-.25,6.34,6.34,0,0,1,.92-.17,9.66,9.66,0,0,1,1.11-.06h30a9.57,9.57,0,0,1,1.11.07,6.44,6.44,0,0,1,.92.16,2.72,2.72,0,0,1,.63.26.43.43,0,0,1,.24.31l.56,8.33a.42.42,0,0,1-.21.32,2.2,2.2,0,0,1-.61.27,6.45,6.45,0,0,1-.91.17,8.11,8.11,0,0,1-1.14.07H731.31Zm41,0a10.07,10.07,0,0,1-1.14-.06,5.42,5.42,0,0,1-.94-.18,2.37,2.37,0,0,1-.65-.26.48.48,0,0,1-.25-.32l-.64-8.33a.39.39,0,0,1,.21-.31,1.94,1.94,0,0,1,.59-.26,6,6,0,0,1,.89-.16,9.43,9.43,0,0,1,1.11-.07h30a10,10,0,0,1,1.12.06,6.94,6.94,0,0,1,.94.17,2.86,2.86,0,0,1,.66.25c.16.1.26.2.27.31l1.31,8.33a.34.34,0,0,1-.19.32,1.92,1.92,0,0,1-.59.27,6,6,0,0,1-.9.17,9.93,9.93,0,0,1-1.13.07Zm40.93,0a10.45,10.45,0,0,1-1.15-.07,7.27,7.27,0,0,1-1-.17,2.72,2.72,0,0,1-.67-.27.49.49,0,0,1-.29-.32l-1.38-8.33c0-.11,0-.21.18-.31a1.93,1.93,0,0,1,.57-.25,5.89,5.89,0,0,1,.89-.17,9.36,9.36,0,0,1,1.1-.06h30a10,10,0,0,1,1.13.06,7.41,7.41,0,0,1,.95.17,3.16,3.16,0,0,1,.67.25.62.62,0,0,1,.3.31l2,8.34a.3.3,0,0,1-.15.32,1.54,1.54,0,0,1-.56.26,5.42,5.42,0,0,1-.88.18,9.71,9.71,0,0,1-1.12.06Zm40.91,0a10.52,10.52,0,0,1-1.15-.06,7.34,7.34,0,0,1-1-.18,2.7,2.7,0,0,1-.69-.26.62.62,0,0,1-.31-.32l-2.13-8.34c0-.11,0-.21.15-.31a1.71,1.71,0,0,1,.54-.25,5.36,5.36,0,0,1,.87-.17,9.18,9.18,0,0,1,1.09-.06h30a10.33,10.33,0,0,1,1.14.06,8.09,8.09,0,0,1,1,.17,3.45,3.45,0,0,1,.7.26.63.63,0,0,1,.33.31l2.79,8.33a.29.29,0,0,1-.12.32,1.57,1.57,0,0,1-.55.26,4.41,4.41,0,0,1-.87.18,9.61,9.61,0,0,1-1.12.07Zm40.94,0a10.82,10.82,0,0,1-1.17-.07,6.5,6.5,0,0,1-1-.18,3,3,0,0,1-.72-.26.63.63,0,0,1-.34-.32l-2.88-8.33a.29.29,0,0,1,.12-.31,1.74,1.74,0,0,1,.53-.26,5.45,5.45,0,0,1,.86-.17,9.18,9.18,0,0,1,1.09-.06h30a10.26,10.26,0,0,1,1.14.07,7.93,7.93,0,0,1,1,.17,3.39,3.39,0,0,1,.71.25.76.76,0,0,1,.36.31l3.54,8.33a.28.28,0,0,1-.1.32,1.4,1.4,0,0,1-.51.27,5.09,5.09,0,0,1-.85.17,7.59,7.59,0,0,1-1.11.07Zm40.9,0a8.71,8.71,0,0,1-1.16-.07,8,8,0,0,1-1-.17,3.64,3.64,0,0,1-.74-.27.81.81,0,0,1-.37-.32l-3.62-8.33a.27.27,0,0,1,.09-.31,1.37,1.37,0,0,1,.5-.25,4.13,4.13,0,0,1,.84-.17,8.77,8.77,0,0,1,1.08-.07h30a10.79,10.79,0,0,1,1.15.06,8.65,8.65,0,0,1,1,.17,4,4,0,0,1,.74.25.87.87,0,0,1,.39.31l4.28,8.33a.27.27,0,0,1-.07.33,1.36,1.36,0,0,1-.49.26,4.87,4.87,0,0,1-.84.18,9.41,9.41,0,0,1-1.11.06Zm40,0a10.82,10.82,0,0,1-1.17-.07,8.66,8.66,0,0,1-1-.17,4.13,4.13,0,0,1-.76-.27.8.8,0,0,1-.4-.32l-4.34-8.33a.25.25,0,0,1,.06-.31,1.32,1.32,0,0,1,.48-.25,4.68,4.68,0,0,1,.82-.17,8.77,8.77,0,0,1,1.08-.06H1021a10.79,10.79,0,0,1,1.15.06,9,9,0,0,1,1,.17,3.63,3.63,0,0,1,.77.26.92.92,0,0,1,.42.31l5.39,8.32a.26.26,0,0,1,0,.32,1.09,1.09,0,0,1-.45.27,5.54,5.54,0,0,1-.81.18,9.23,9.23,0,0,1-1.1.06Zm-525.62-10.85a8.43,8.43,0,0,1-1.06-.06,4.18,4.18,0,0,1-.78-.17,1.16,1.16,0,0,1-.44-.25.24.24,0,0,1,0-.31l2.71-4.23a.91.91,0,0,1,.42-.3,3.56,3.56,0,0,1,.76-.25,8.84,8.84,0,0,1,1-.17,10.47,10.47,0,0,1,1.14-.06h32.59a8.43,8.43,0,0,1,1.06.06,4.32,4.32,0,0,1,.8.16,1.19,1.19,0,0,1,.47.25.22.22,0,0,1,.05.29l-2.35,4.25a.86.86,0,0,1-.39.3,3.46,3.46,0,0,1-.75.25,8,8,0,0,1-1,.17,10.47,10.47,0,0,1-1.14.06H450.29Zm42.79,0a8.55,8.55,0,0,1-1.06-.06,5.33,5.33,0,0,1-.79-.17,1.21,1.21,0,0,1-.46-.25.23.23,0,0,1,0-.3l2.31-4.25a.85.85,0,0,1,.39-.29,3.18,3.18,0,0,1,.74-.25,8.21,8.21,0,0,1,1-.16,10.28,10.28,0,0,1,1.13-.06h32.59a8.72,8.72,0,0,1,1.07.06,4.68,4.68,0,0,1,.82.17,1.24,1.24,0,0,1,.49.24.24.24,0,0,1,.08.3l-1.94,4.24a.8.8,0,0,1-.37.31,4.71,4.71,0,0,1-.73.25,8.21,8.21,0,0,1-1,.16,10.42,10.42,0,0,1-1.14.07H493.08Zm42.86,0a8.77,8.77,0,0,1-1.08-.07,5.1,5.1,0,0,1-.83-.16,1.57,1.57,0,0,1-.49-.25.26.26,0,0,1-.09-.31l1.91-4.24a.67.67,0,0,1,.35-.3,3.26,3.26,0,0,1,.71-.24,8.09,8.09,0,0,1,1-.17,10,10,0,0,1,1.12-.06h32.62a8.72,8.72,0,0,1,1.07.06,4.22,4.22,0,0,1,.83.16,1.52,1.52,0,0,1,.51.24c.11.1.15.2.11.3l-1.53,4.24a.7.7,0,0,1-.34.31,3.49,3.49,0,0,1-.7.25,7.93,7.93,0,0,1-1,.17,10.28,10.28,0,0,1-1.13.06Zm42.81,0a9.18,9.18,0,0,1-1.09-.06,5.09,5.09,0,0,1-.85-.17,1.75,1.75,0,0,1-.53-.25.27.27,0,0,1-.11-.31l1.51-4.24a.7.7,0,0,1,.33-.3,3.21,3.21,0,0,1,.69-.24,7.41,7.41,0,0,1,.95-.17,10,10,0,0,1,1.12-.06h32.61a8.91,8.91,0,0,1,1.08.07,4.33,4.33,0,0,1,.84.16,1.71,1.71,0,0,1,.54.25.28.28,0,0,1,.14.3l-1.15,4.23a.52.52,0,0,1-.3.31,3,3,0,0,1-.67.25,7.58,7.58,0,0,1-1,.17,10,10,0,0,1-1.13.06Zm42.81,0a9.23,9.23,0,0,1-1.1-.06,5.59,5.59,0,0,1-.87-.17,1.78,1.78,0,0,1-.55-.25.29.29,0,0,1-.14-.31l1.11-4.23c0-.11.13-.21.29-.3a3.16,3.16,0,0,1,.67-.25,5.73,5.73,0,0,1,.94-.16,9.57,9.57,0,0,1,1.11-.07h32.59a9,9,0,0,1,1.08.06,5.83,5.83,0,0,1,.88.16,2,2,0,0,1,.56.25c.13.09.19.19.17.3l-.74,4.24c0,.11-.12.21-.28.3a2.38,2.38,0,0,1-.65.25,6.77,6.77,0,0,1-.93.17,10,10,0,0,1-1.12.06Zm42.8,0a9.48,9.48,0,0,1-1.1-.06,5.51,5.51,0,0,1-.88-.17,1.76,1.76,0,0,1-.58-.25c-.13-.09-.19-.19-.17-.3l.7-4.24a.48.48,0,0,1,.27-.3,2.85,2.85,0,0,1,.64-.25,7,7,0,0,1,.92-.16,9.66,9.66,0,0,1,1.11-.06h32.59c.38,0,.75,0,1.09.06a6.41,6.41,0,0,1,.89.17,2,2,0,0,1,.58.24.35.35,0,0,1,.2.3l-.33,4.24c0,.11-.1.21-.25.31a2.42,2.42,0,0,1-.63.25,6.45,6.45,0,0,1-.91.17,9.84,9.84,0,0,1-1.12.06Zm42.81,0a9.53,9.53,0,0,1-1.11-.06,7.66,7.66,0,0,1-.9-.17,2.51,2.51,0,0,1-.6-.25c-.14-.1-.21-.2-.2-.31l.29-4.24a.44.44,0,0,1,.24-.3,2.51,2.51,0,0,1,.62-.24,6.57,6.57,0,0,1,.9-.17c.34,0,.71-.06,1.1-.06H740.1a9.48,9.48,0,0,1,1.1.06,6.13,6.13,0,0,1,.9.16,2.15,2.15,0,0,1,.62.25c.14.09.22.19.22.3l.08,4.23c0,.11-.08.21-.22.31a2.24,2.24,0,0,1-.61.25,6,6,0,0,1-.9.17,9.53,9.53,0,0,1-1.11.06Zm42.78,0a9.53,9.53,0,0,1-1.11-.06,6.19,6.19,0,0,1-.91-.17,2.48,2.48,0,0,1-.62-.25c-.14-.1-.23-.2-.23-.31l-.13-4.23c0-.11.08-.21.22-.3a1.9,1.9,0,0,1,.6-.25,6.14,6.14,0,0,1,.89-.17,9.48,9.48,0,0,1,1.1-.06h32.59a9.48,9.48,0,0,1,1.1.06,6.44,6.44,0,0,1,.92.16,2.85,2.85,0,0,1,.64.25c.15.09.24.19.25.3l.48,4.24a.34.34,0,0,1-.19.3,1.76,1.76,0,0,1-.58.25,6,6,0,0,1-.88.17c-.34,0-.71.06-1.11.07Zm42.8,0a9.84,9.84,0,0,1-1.12-.06,6.61,6.61,0,0,1-.92-.17,2.18,2.18,0,0,1-.64-.25.45.45,0,0,1-.26-.3l-.54-4.24a.33.33,0,0,1,.19-.3,2,2,0,0,1,.58-.25,5.68,5.68,0,0,1,.87-.16,9.48,9.48,0,0,1,1.1-.06h32.58a9.66,9.66,0,0,1,1.11.06,7.07,7.07,0,0,1,.93.17,3,3,0,0,1,.65.24c.16.09.26.19.28.3l.91,4.24a.33.33,0,0,1-.16.31,2.3,2.3,0,0,1-.56.25,5.68,5.68,0,0,1-.87.16,9.12,9.12,0,0,1-1.1.07Zm42.8,0a9.93,9.93,0,0,1-1.13-.07,7.64,7.64,0,0,1-.94-.16,3.41,3.41,0,0,1-.66-.25.6.6,0,0,1-.29-.31l-.94-4.24c0-.11,0-.21.16-.3a1.79,1.79,0,0,1,.55-.24,5.45,5.45,0,0,1,.86-.17,9.18,9.18,0,0,1,1.09-.06h32.59a9.92,9.92,0,0,1,1.11.06,7,7,0,0,1,.94.16,3.1,3.1,0,0,1,.68.24.64.64,0,0,1,.31.3l1.31,4.24a.31.31,0,0,1-.13.31,1.82,1.82,0,0,1-.54.25,5.45,5.45,0,0,1-.86.17,9.23,9.23,0,0,1-1.1.06Zm42.8,0a10,10,0,0,1-1.13-.06,7.27,7.27,0,0,1-1-.17,4.1,4.1,0,0,1-.69-.25.68.68,0,0,1-.32-.31l-1.35-4.24c0-.1,0-.2.13-.3a1.58,1.58,0,0,1,.52-.24,5.39,5.39,0,0,1,.84-.17,9,9,0,0,1,1.08-.06h32.61a9.92,9.92,0,0,1,1.11.06,7.37,7.37,0,0,1,1,.16,3.28,3.28,0,0,1,.7.25.64.64,0,0,1,.34.3l1.72,4.23a.28.28,0,0,1-.1.31,1.57,1.57,0,0,1-.52.25,5.16,5.16,0,0,1-.84.17,9.18,9.18,0,0,1-1.09.06Zm42.79,0a10.15,10.15,0,0,1-1.13-.06,7.93,7.93,0,0,1-1-.17,3.73,3.73,0,0,1-.72-.25.82.82,0,0,1-.36-.31l-1.73-4.23a.25.25,0,0,1,.1-.3,1.36,1.36,0,0,1,.5-.25,4.76,4.76,0,0,1,.82-.16,8.72,8.72,0,0,1,1.07-.06h32.61a10,10,0,0,1,1.12.06,7.93,7.93,0,0,1,1,.17,4,4,0,0,1,.72.24.83.83,0,0,1,.37.3l2.1,4.24a.23.23,0,0,1-.06.3,1.24,1.24,0,0,1-.49.25,4.68,4.68,0,0,1-.82.17,9.06,9.06,0,0,1-1.09.06Zm42.8,0a10.33,10.33,0,0,1-1.14-.06,8.11,8.11,0,0,1-1-.17,3.18,3.18,0,0,1-.74-.25.73.73,0,0,1-.37-.3l-2.17-4.24a.25.25,0,0,1,.07-.3,1.32,1.32,0,0,1,.48-.25,4.63,4.63,0,0,1,.81-.16A8.43,8.43,0,0,1,961,1841h32.61c.39,0,.77,0,1.13.06a8.46,8.46,0,0,1,1,.17,4.3,4.3,0,0,1,.74.24.9.9,0,0,1,.4.3l2.53,4.24a.25.25,0,0,1-.05.31,1.21,1.21,0,0,1-.46.25,4.68,4.68,0,0,1-.82.17c-.31,0-.68.06-1.07.06Zm41.26,0c-.32,0-.63,0-.93,0a6.19,6.19,0,0,1-.81-.14,2.57,2.57,0,0,1-.61-.2.65.65,0,0,1-.32-.24l-2.73-4.55a.19.19,0,0,1,0-.24.85.85,0,0,1,.36-.2,4,4,0,0,1,.64-.13,7,7,0,0,1,.84,0h15.53a8.92,8.92,0,0,1,.91,0,5.82,5.82,0,0,1,.8.13,3.4,3.4,0,0,1,.61.19,1,1,0,0,1,.34.24l2.93,4.55a.19.19,0,0,1,0,.25,1,1,0,0,1-.36.2,3.12,3.12,0,0,1-.64.13,7.21,7.21,0,0,1-.85,0Zm21.36-14.14-582.49.09a69.85,69.85,0,0,0-7.35.39,56.17,56.17,0,0,0-6.53,1,27.33,27.33,0,0,0-5,1.57,6.82,6.82,0,0,0-2.82,1.93L319.83,1981.33a3.33,3.33,0,0,0-.52,3.44,6.58,6.58,0,0,0,3.27,2.84,24.26,24.26,0,0,0,6.52,1.93,54,54,0,0,0,9.15.71h.05l794.58-.17a55.31,55.31,0,0,0,9.17-.71,24.49,24.49,0,0,0,6.52-1.94,6.58,6.58,0,0,0,3.27-2.84,3.29,3.29,0,0,0-.53-3.44l-103-143.54a6.92,6.92,0,0,0-2.82-1.94,28.3,28.3,0,0,0-5-1.56,58.39,58.39,0,0,0-6.53-1,69.89,69.89,0,0,0-7.35-.38Z"/><path class="cls-11" d="M873.16,1914.05h0l-275.26,0a27.33,27.33,0,0,0-3.34.21,19.85,19.85,0,0,0-2.85.58,8.31,8.31,0,0,0-2,.86,2,2,0,0,0-1,1L570.24,1982a1.37,1.37,0,0,0,.37,1.35,4.71,4.71,0,0,0,1.75,1.11,14,14,0,0,0,2.85.74,23,23,0,0,0,3.67.27l313.49-.07a23,23,0,0,0,3.68-.27,13.17,13.17,0,0,0,2.85-.75,4.71,4.71,0,0,0,1.75-1.1,1.41,1.41,0,0,0,.37-1.34l-18.68-65.2a2,2,0,0,0-1-1,8.24,8.24,0,0,0-2-.85,17.41,17.41,0,0,0-2.83-.58,25.52,25.52,0,0,0-3.35-.21Z"/><path class="cls-19" d="M951.32,1841H918.71a8.72,8.72,0,0,0-1.07.06,4.76,4.76,0,0,0-.82.16,1.36,1.36,0,0,0-.5.25.25.25,0,0,0-.1.3L918,1846a.82.82,0,0,0,.36.31,3.73,3.73,0,0,0,.72.25,7.93,7.93,0,0,0,1,.17,10.15,10.15,0,0,0,1.13.06h33a9.06,9.06,0,0,0,1.09-.06,4.68,4.68,0,0,0,.82-.17,1.24,1.24,0,0,0,.49-.25.23.23,0,0,0,.06-.3l-2.1-4.24a.83.83,0,0,0-.37-.3,4,4,0,0,0-.72-.24,7.93,7.93,0,0,0-1-.17,10,10,0,0,0-1.12-.06Z"/><path class="cls-19" d="M909.08,1841H876.47a9,9,0,0,0-1.08.06,5.39,5.39,0,0,0-.84.17,1.58,1.58,0,0,0-.52.24c-.11.1-.16.2-.13.3l1.35,4.24a.68.68,0,0,0,.32.31,4.1,4.1,0,0,0,.69.25,7.27,7.27,0,0,0,1,.17,10,10,0,0,0,1.13.06h33a9.18,9.18,0,0,0,1.09-.06,5.16,5.16,0,0,0,.84-.17,1.57,1.57,0,0,0,.52-.25.28.28,0,0,0,.1-.31l-1.72-4.23a.64.64,0,0,0-.34-.3,3.28,3.28,0,0,0-.7-.25,7.37,7.37,0,0,0-1-.16,9.92,9.92,0,0,0-1.11-.06Z"/><path class="cls-19" d="M866.84,1841.05H834.25a9.18,9.18,0,0,0-1.09.06,5.45,5.45,0,0,0-.86.17,1.79,1.79,0,0,0-.55.24c-.13.09-.19.19-.16.3l.94,4.24a.6.6,0,0,0,.29.31,3.41,3.41,0,0,0,.66.25,7.64,7.64,0,0,0,.94.16,9.93,9.93,0,0,0,1.13.07h33a9.23,9.23,0,0,0,1.1-.06,5.45,5.45,0,0,0,.86-.17,1.82,1.82,0,0,0,.54-.25.31.31,0,0,0,.13-.31l-1.31-4.24a.64.64,0,0,0-.31-.3,3.1,3.1,0,0,0-.68-.24,7,7,0,0,0-.94-.16,9.92,9.92,0,0,0-1.11-.06Z"/><path class="cls-19" d="M824.59,1841.05H792a9.48,9.48,0,0,0-1.1.06,5.68,5.68,0,0,0-.87.16,2,2,0,0,0-.58.25.33.33,0,0,0-.19.3l.54,4.24a.45.45,0,0,0,.26.3,2.18,2.18,0,0,0,.64.25,6.61,6.61,0,0,0,.92.17,9.84,9.84,0,0,0,1.12.06h33a9.12,9.12,0,0,0,1.1-.07,5.68,5.68,0,0,0,.87-.16,2.3,2.3,0,0,0,.56-.25.33.33,0,0,0,.16-.31l-.91-4.24c0-.11-.12-.21-.28-.3a3,3,0,0,0-.65-.24,7.07,7.07,0,0,0-.93-.17,9.66,9.66,0,0,0-1.11-.06Z"/><path class="cls-19" d="M782.35,1841.06H749.76a9.48,9.48,0,0,0-1.1.06,6.14,6.14,0,0,0-.89.17,1.9,1.9,0,0,0-.6.25c-.14.09-.22.19-.22.3l.13,4.23c0,.11.09.21.23.31a2.48,2.48,0,0,0,.62.25,6.19,6.19,0,0,0,.91.17,9.53,9.53,0,0,0,1.11.06h33c.4,0,.77,0,1.11-.07a6,6,0,0,0,.88-.17,1.76,1.76,0,0,0,.58-.25.34.34,0,0,0,.19-.3l-.48-4.24c0-.11-.1-.21-.25-.3a2.85,2.85,0,0,0-.64-.25,6.44,6.44,0,0,0-.92-.16,9.48,9.48,0,0,0-1.1-.06Z"/><path class="cls-19" d="M740.1,1841.07H707.51c-.39,0-.76,0-1.1.06a6.57,6.57,0,0,0-.9.17,2.51,2.51,0,0,0-.62.24.44.44,0,0,0-.24.3l-.29,4.24c0,.11.06.21.2.31a2.51,2.51,0,0,0,.6.25,7.66,7.66,0,0,0,.9.17,9.53,9.53,0,0,0,1.11.06h33a9.53,9.53,0,0,0,1.11-.06,6,6,0,0,0,.9-.17,2.24,2.24,0,0,0,.61-.25c.14-.1.22-.2.22-.31l-.08-4.23c0-.11-.08-.21-.22-.3a2.15,2.15,0,0,0-.62-.25,6.13,6.13,0,0,0-.9-.16,9.48,9.48,0,0,0-1.1-.06Z"/><path class="cls-19" d="M697.86,1841.07H665.27a9.66,9.66,0,0,0-1.11.06,7,7,0,0,0-.92.16,2.85,2.85,0,0,0-.64.25.48.48,0,0,0-.27.3l-.7,4.24c0,.11,0,.21.17.3a1.76,1.76,0,0,0,.58.25,5.51,5.51,0,0,0,.88.17,9.48,9.48,0,0,0,1.1.06h33a9.84,9.84,0,0,0,1.12-.06,6.45,6.45,0,0,0,.91-.17,2.42,2.42,0,0,0,.63-.25c.15-.1.24-.2.25-.31l.33-4.24a.35.35,0,0,0-.2-.3,2,2,0,0,0-.58-.24,6.41,6.41,0,0,0-.89-.17c-.34,0-.71-.06-1.09-.06Z"/><path class="cls-19" d="M655.61,1841.08H623a9.57,9.57,0,0,0-1.11.07,5.73,5.73,0,0,0-.94.16,3.16,3.16,0,0,0-.67.25c-.16.09-.27.19-.29.3l-1.11,4.23a.29.29,0,0,0,.14.31,1.78,1.78,0,0,0,.55.25,5.59,5.59,0,0,0,.87.17,9.23,9.23,0,0,0,1.1.06h33a10,10,0,0,0,1.12-.06,6.77,6.77,0,0,0,.93-.17,2.38,2.38,0,0,0,.65-.25c.16-.09.26-.19.28-.3l.74-4.24c0-.11,0-.21-.17-.3a2,2,0,0,0-.56-.25,5.83,5.83,0,0,0-.88-.16,9,9,0,0,0-1.08-.06Z"/><path class="cls-19" d="M613.38,1841.08H580.77a10,10,0,0,0-1.12.06,7.41,7.41,0,0,0-.95.17,3.21,3.21,0,0,0-.69.24.7.7,0,0,0-.33.3l-1.51,4.24a.27.27,0,0,0,.11.31,1.75,1.75,0,0,0,.53.25,5.09,5.09,0,0,0,.85.17,9.18,9.18,0,0,0,1.09.06h33a10,10,0,0,0,1.13-.06,7.58,7.58,0,0,0,1-.17,3,3,0,0,0,.67-.25.52.52,0,0,0,.3-.31l1.15-4.23a.28.28,0,0,0-.14-.3,1.71,1.71,0,0,0-.54-.25,4.33,4.33,0,0,0-.84-.16,8.91,8.91,0,0,0-1.08-.07Z"/><path class="cls-19" d="M493.08,1846.9h0Zm35.94,0h0Z"/><path class="cls-19" d="M486.62,1841.11H454a10.47,10.47,0,0,0-1.14.06,8.84,8.84,0,0,0-1,.17,3.56,3.56,0,0,0-.76.25.91.91,0,0,0-.42.3l-2.71,4.23a.24.24,0,0,0,0,.31,1.16,1.16,0,0,0,.44.25,4.18,4.18,0,0,0,.78.17,8.43,8.43,0,0,0,1.06.06h33.08a10.47,10.47,0,0,0,1.14-.06,8,8,0,0,0,1-.17,3.46,3.46,0,0,0,.75-.25.86.86,0,0,0,.39-.3l2.35-4.25a.22.22,0,0,0-.05-.29,1.19,1.19,0,0,0-.47-.25,4.32,4.32,0,0,0-.8-.16,8.43,8.43,0,0,0-1.06-.06Z"/><path class="cls-19" d="M961.55,1847.81h-30a8.77,8.77,0,0,0-1.08.07,4.13,4.13,0,0,0-.84.17,1.37,1.37,0,0,0-.5.25.27.27,0,0,0-.09.31l3.62,8.33a.81.81,0,0,0,.37.32,3.64,3.64,0,0,0,.74.27,8,8,0,0,0,1,.17,8.71,8.71,0,0,0,1.16.07H966.6a9.41,9.41,0,0,0,1.11-.06,4.87,4.87,0,0,0,.84-.18,1.36,1.36,0,0,0,.49-.26.27.27,0,0,0,.07-.33l-4.28-8.33a.87.87,0,0,0-.39-.31,4,4,0,0,0-.74-.25,8.65,8.65,0,0,0-1-.17,10.79,10.79,0,0,0-1.15-.06Z"/><path class="cls-19" d="M1021,1847.8H970.66a8.77,8.77,0,0,0-1.08.06,4.68,4.68,0,0,0-.82.17,1.32,1.32,0,0,0-.48.25.25.25,0,0,0-.06.31l4.34,8.33a.8.8,0,0,0,.4.32,4.13,4.13,0,0,0,.76.27,8.66,8.66,0,0,0,1,.17,10.82,10.82,0,0,0,1.17.07h51.45a9.23,9.23,0,0,0,1.1-.06,5.54,5.54,0,0,0,.81-.18,1.09,1.09,0,0,0,.45-.27.26.26,0,0,0,0-.32l-5.39-8.32a.92.92,0,0,0-.42-.31,3.63,3.63,0,0,0-.77-.26,9,9,0,0,0-1-.17,10.79,10.79,0,0,0-1.15-.06Z"/><path class="cls-19" d="M921.53,1847.81h-30a9.18,9.18,0,0,0-1.09.06,5.45,5.45,0,0,0-.86.17,1.74,1.74,0,0,0-.53.26.29.29,0,0,0-.12.31l2.88,8.33a.63.63,0,0,0,.34.32,3,3,0,0,0,.72.26,6.5,6.5,0,0,0,1,.18,10.82,10.82,0,0,0,1.17.07h30.65a7.59,7.59,0,0,0,1.11-.07,5.09,5.09,0,0,0,.85-.17,1.4,1.4,0,0,0,.51-.27.28.28,0,0,0,.1-.32l-3.54-8.33a.76.76,0,0,0-.36-.31,3.39,3.39,0,0,0-.71-.25,7.93,7.93,0,0,0-1-.17,10.26,10.26,0,0,0-1.14-.07Z"/><path class="cls-19" d="M881.49,1847.82h-30a9.18,9.18,0,0,0-1.09.06,5.36,5.36,0,0,0-.87.17,1.71,1.71,0,0,0-.54.25c-.12.1-.18.2-.15.31L851,1857a.62.62,0,0,0,.31.32,2.7,2.7,0,0,0,.69.26,7.34,7.34,0,0,0,1,.18,10.52,10.52,0,0,0,1.15.06h30.66a9.61,9.61,0,0,0,1.12-.07,4.41,4.41,0,0,0,.87-.18,1.57,1.57,0,0,0,.55-.26.29.29,0,0,0,.12-.32l-2.79-8.33a.63.63,0,0,0-.33-.31,3.45,3.45,0,0,0-.7-.26,8.09,8.09,0,0,0-1-.17,10.33,10.33,0,0,0-1.14-.06Z"/><path class="cls-19" d="M841.47,1847.83h-30a9.36,9.36,0,0,0-1.1.06,5.89,5.89,0,0,0-.89.17,1.93,1.93,0,0,0-.57.25c-.14.1-.2.2-.18.31l1.38,8.33a.49.49,0,0,0,.29.32,2.72,2.72,0,0,0,.67.27,7.27,7.27,0,0,0,1,.17,10.45,10.45,0,0,0,1.15.07h30.66a9.71,9.71,0,0,0,1.12-.06,5.42,5.42,0,0,0,.88-.18,1.54,1.54,0,0,0,.56-.26.3.3,0,0,0,.15-.32l-2-8.34a.62.62,0,0,0-.3-.31,3.16,3.16,0,0,0-.67-.25,7.41,7.41,0,0,0-.95-.17,10,10,0,0,0-1.13-.06Z"/><path class="cls-19" d="M801.43,1847.84h-30a9.43,9.43,0,0,0-1.11.07,6,6,0,0,0-.89.16,1.94,1.94,0,0,0-.59.26.39.39,0,0,0-.21.31l.64,8.33a.48.48,0,0,0,.25.32,2.37,2.37,0,0,0,.65.26,5.42,5.42,0,0,0,.94.18,10.07,10.07,0,0,0,1.14.06h30.66a9.93,9.93,0,0,0,1.13-.07,6,6,0,0,0,.9-.17,1.92,1.92,0,0,0,.59-.27.34.34,0,0,0,.19-.32l-1.31-8.33c0-.11-.11-.21-.27-.31a2.86,2.86,0,0,0-.66-.25,6.94,6.94,0,0,0-.94-.17,10,10,0,0,0-1.12-.06Z"/><path class="cls-19" d="M761.41,1847.84h-30a9.66,9.66,0,0,0-1.11.06,6.34,6.34,0,0,0-.92.17,2.48,2.48,0,0,0-.62.25c-.15.1-.23.2-.23.31l-.11,8.33a.4.4,0,0,0,.22.32,2.43,2.43,0,0,0,.62.27,6.34,6.34,0,0,0,.92.17,8.06,8.06,0,0,0,1.13.07H762a8.11,8.11,0,0,0,1.14-.07,6.45,6.45,0,0,0,.91-.17,2.2,2.2,0,0,0,.61-.27.42.42,0,0,0,.21-.32l-.56-8.33a.43.43,0,0,0-.24-.31,2.72,2.72,0,0,0-.63-.26,6.44,6.44,0,0,0-.92-.16,9.57,9.57,0,0,0-1.11-.07Z"/><path class="cls-19" d="M721.36,1847.85h-30a9.75,9.75,0,0,0-1.12.07,6.34,6.34,0,0,0-.92.17,2.51,2.51,0,0,0-.64.25c-.15.1-.25.2-.26.31l-.85,8.33a.39.39,0,0,0,.19.32,2.12,2.12,0,0,0,.6.27,7.71,7.71,0,0,0,.91.18,9.77,9.77,0,0,0,1.13.06h30.66a10.11,10.11,0,0,0,1.14-.07,5.61,5.61,0,0,0,.94-.18,2.29,2.29,0,0,0,.64-.26.46.46,0,0,0,.24-.33l.18-8.33c0-.11-.07-.21-.22-.31a2.24,2.24,0,0,0-.61-.25,5.94,5.94,0,0,0-.91-.17,9.53,9.53,0,0,0-1.11-.06Z"/><path class="cls-19" d="M681.34,1847.85h-30a10,10,0,0,0-1.12.06,6.82,6.82,0,0,0-1,.17,2.93,2.93,0,0,0-.67.26.56.56,0,0,0-.29.31l-1.59,8.33c0,.12,0,.22.16.32a2,2,0,0,0,.58.27,6.29,6.29,0,0,0,.9.17,9.93,9.93,0,0,0,1.13.07h30.66a10.39,10.39,0,0,0,1.15-.06,8.78,8.78,0,0,0,.94-.18,2.32,2.32,0,0,0,.66-.26.47.47,0,0,0,.26-.32l.94-8.34c0-.11-.06-.21-.19-.31a2,2,0,0,0-.58-.25,5.89,5.89,0,0,0-.89-.17,9.4,9.4,0,0,0-1.1-.07Z"/><path class="cls-19" d="M641.29,1847.87h-30a10.28,10.28,0,0,0-1.13.06,7.41,7.41,0,0,0-.95.17,3.06,3.06,0,0,0-.68.25c-.17.1-.28.2-.31.31l-2.35,8.34a.31.31,0,0,0,.14.32,1.57,1.57,0,0,0,.55.26,4.57,4.57,0,0,0,.87.18,9.71,9.71,0,0,0,1.12.06h30.67a10.45,10.45,0,0,0,1.15-.07,7.44,7.44,0,0,0,1-.17,3,3,0,0,0,.68-.27c.17-.1.28-.2.3-.32l1.68-8.33a.33.33,0,0,0-.16-.31,1.7,1.7,0,0,0-.57-.25,5.74,5.74,0,0,0-.88-.17,9.36,9.36,0,0,0-1.1-.06Z"/><path class="cls-19" d="M601.26,1847.87h-30a10.15,10.15,0,0,0-1.13.06,7.93,7.93,0,0,0-1,.17,3.39,3.39,0,0,0-.71.25.7.7,0,0,0-.34.31L565,1857a.28.28,0,0,0,.11.33,1.73,1.73,0,0,0,.53.26,5.36,5.36,0,0,0,.87.17,7.59,7.59,0,0,0,1.11.07H598.3a10.52,10.52,0,0,0,1.15-.06,5.94,5.94,0,0,0,1-.18,2.64,2.64,0,0,0,.7-.26.61.61,0,0,0,.32-.32l2.43-8.34a.31.31,0,0,0-.13-.31,1.71,1.71,0,0,0-.54-.25,5.45,5.45,0,0,0-.86-.17,9.06,9.06,0,0,0-1.09-.06Z"/><path class="cls-19" d="M561.21,1847.88h-30a10.42,10.42,0,0,0-1.14.07,8,8,0,0,0-1,.16,3.8,3.8,0,0,0-.73.26.76.76,0,0,0-.36.31l-3.84,8.33a.27.27,0,0,0,.08.32,1.17,1.17,0,0,0,.49.26,4.12,4.12,0,0,0,.83.18,9.23,9.23,0,0,0,1.1.06h30.7a10.84,10.84,0,0,0,1.16-.06,10.14,10.14,0,0,0,1-.18,4.44,4.44,0,0,0,.74-.26.71.71,0,0,0,.35-.33l3.17-8.33a.27.27,0,0,0-.11-.31,1.57,1.57,0,0,0-.52-.25,5.09,5.09,0,0,0-.85-.17,9.06,9.06,0,0,0-1.09-.06Z"/><path class="cls-19" d="M521.18,1847.88h-30a10.79,10.79,0,0,0-1.15.06,8.65,8.65,0,0,0-1,.17,4.23,4.23,0,0,0-.76.25.92.92,0,0,0-.4.32l-4.58,8.33a.25.25,0,0,0,.06.32,1.12,1.12,0,0,0,.48.26,4.08,4.08,0,0,0,.84.18,9,9,0,0,0,1.1.07h30.67a10.84,10.84,0,0,0,1.16-.06c.37,0,.72-.11,1-.18a3.76,3.76,0,0,0,.75-.27.79.79,0,0,0,.38-.32l3.92-8.33a.26.26,0,0,0-.08-.31,1.24,1.24,0,0,0-.49-.25,3.89,3.89,0,0,0-.83-.17,8.64,8.64,0,0,0-1.08-.07Z"/><path class="cls-19" d="M987.5,1858.94H956.77a9.16,9.16,0,0,0-1.11.07,3.94,3.94,0,0,0-.84.18,1.22,1.22,0,0,0-.5.26.28.28,0,0,0-.08.33l4.19,8.76a.93.93,0,0,0,.4.34,4,4,0,0,0,.77.27,8.84,8.84,0,0,0,1,.19,11.47,11.47,0,0,0,1.2.06h31.43a9.68,9.68,0,0,0,1.14-.07,4.72,4.72,0,0,0,.85-.19,1.11,1.11,0,0,0,.49-.28.28.28,0,0,0,0-.33l-4.89-8.76a1,1,0,0,0-.41-.32,4.68,4.68,0,0,0-.78-.27c-.31-.07-.66-.13-1-.18a11.22,11.22,0,0,0-1.18-.06Z"/><path class="cls-19" d="M1028.11,1858.93H997.38a9.11,9.11,0,0,0-1.1.06,6,6,0,0,0-.84.18,1.24,1.24,0,0,0-.48.27.26.26,0,0,0-.05.32l5,8.76a1,1,0,0,0,.43.33,3.79,3.79,0,0,0,.81.28,8.84,8.84,0,0,0,1.06.19,11.59,11.59,0,0,0,1.21.07h31.43a7.64,7.64,0,0,0,1.12-.07,3.79,3.79,0,0,0,.83-.19,1,1,0,0,0,.46-.27.29.29,0,0,0,0-.34l-5.67-8.76a1.08,1.08,0,0,0-.44-.32,4.51,4.51,0,0,0-.79-.27,9.61,9.61,0,0,0-1-.17,8.91,8.91,0,0,0-1.18-.07Z"/><path class="cls-19" d="M946.53,1859H915.75a9.41,9.41,0,0,0-1.11.06,6.57,6.57,0,0,0-.87.18,1.52,1.52,0,0,0-.53.27.3.3,0,0,0-.11.33l3.41,8.75a.78.78,0,0,0,.37.34,3.2,3.2,0,0,0,.75.28,7.08,7.08,0,0,0,1,.18,9.22,9.22,0,0,0,1.2.07h31.43a9.82,9.82,0,0,0,1.14-.06,5.06,5.06,0,0,0,.86-.19,1.4,1.4,0,0,0,.51-.27.3.3,0,0,0,.08-.34l-4.11-8.76a.79.79,0,0,0-.38-.32,3.64,3.64,0,0,0-.74-.27,10.14,10.14,0,0,0-1-.18,10.52,10.52,0,0,0-1.15-.06Z"/><path class="cls-19" d="M905.48,1859H874.72a7.73,7.73,0,0,0-1.12.07,5.51,5.51,0,0,0-.88.17,1.58,1.58,0,0,0-.54.27.31.31,0,0,0-.14.32l2.63,8.76c0,.12.15.23.33.34a3.42,3.42,0,0,0,.72.27,8.29,8.29,0,0,0,1,.19,11,11,0,0,0,1.18.07h31.44a8.07,8.07,0,0,0,1.15-.07,4.49,4.49,0,0,0,.89-.18,1.42,1.42,0,0,0,.54-.28.29.29,0,0,0,.1-.34l-3.32-8.75a.71.71,0,0,0-.35-.33,3.23,3.23,0,0,0-.73-.26,6.88,6.88,0,0,0-1-.18,10.6,10.6,0,0,0-1.15-.07Z"/><path class="cls-19" d="M864.44,1859H833.7a10,10,0,0,0-1.13.06,4.81,4.81,0,0,0-.89.18,1.6,1.6,0,0,0-.57.26.32.32,0,0,0-.16.33l1.82,8.76a.6.6,0,0,0,.31.33,2.6,2.6,0,0,0,.7.28,6.42,6.42,0,0,0,1,.18,8.91,8.91,0,0,0,1.18.07H867.4a8.16,8.16,0,0,0,1.15-.07,4.64,4.64,0,0,0,.89-.18,1.71,1.71,0,0,0,.56-.28.34.34,0,0,0,.14-.34l-2.54-8.76a.65.65,0,0,0-.32-.32,3.42,3.42,0,0,0-.7-.27,7.93,7.93,0,0,0-1-.17,8.71,8.71,0,0,0-1.16-.07Z"/><path class="cls-19" d="M823.42,1859H792.66a9.93,9.93,0,0,0-1.13.07,5.23,5.23,0,0,0-.91.18,1.92,1.92,0,0,0-.59.26.36.36,0,0,0-.19.32l1.06,8.76a.5.5,0,0,0,.27.34,2.37,2.37,0,0,0,.67.28,7.11,7.11,0,0,0,1,.19,10.52,10.52,0,0,0,1.17.07h31.46a10.15,10.15,0,0,0,1.15-.07,4.82,4.82,0,0,0,.91-.19,1.71,1.71,0,0,0,.59-.28.32.32,0,0,0,.16-.33l-1.75-8.76c0-.12-.13-.23-.3-.33a2.61,2.61,0,0,0-.68-.26,6,6,0,0,0-1-.18,10.2,10.2,0,0,0-1.14-.06Z"/><path class="cls-19" d="M782.38,1859H751.64a9.89,9.89,0,0,0-1.13.06,8.56,8.56,0,0,0-.93.18,2.2,2.2,0,0,0-.61.27c-.15.1-.23.21-.22.33l.25,8.75a.44.44,0,0,0,.25.34,2.52,2.52,0,0,0,.65.28,7.18,7.18,0,0,0,1,.18,8.66,8.66,0,0,0,1.17.07h31.44a10.19,10.19,0,0,0,1.16-.07,6.32,6.32,0,0,0,.93-.19,1.93,1.93,0,0,0,.61-.28.39.39,0,0,0,.2-.34l-1-8.75a.52.52,0,0,0-.27-.33,2.37,2.37,0,0,0-.65-.26,6,6,0,0,0-1-.18,10.3,10.3,0,0,0-1.15-.07Z"/><path class="cls-19" d="M741.4,1859H710.6a10.11,10.11,0,0,0-1.14.07,5.61,5.61,0,0,0-.94.18,2.45,2.45,0,0,0-.64.27.46.46,0,0,0-.25.32l-.51,8.76a.41.41,0,0,0,.21.34,2.08,2.08,0,0,0,.63.27,5.18,5.18,0,0,0,.94.19,10.19,10.19,0,0,0,1.16.07h31.46a8.41,8.41,0,0,0,1.16-.07,5.55,5.55,0,0,0,1-.18,2.07,2.07,0,0,0,.63-.28.43.43,0,0,0,.23-.34l-.19-8.75a.42.42,0,0,0-.23-.33,2.14,2.14,0,0,0-.62-.26,5.36,5.36,0,0,0-.92-.18,9.93,9.93,0,0,0-1.13-.07Z"/><path class="cls-19" d="M700.32,1859H669.58a10.52,10.52,0,0,0-1.15.06,5.74,5.74,0,0,0-.95.18,2.4,2.4,0,0,0-.67.26.54.54,0,0,0-.28.33l-1.31,8.76c0,.12,0,.23.19.33a1.77,1.77,0,0,0,.6.28,6.32,6.32,0,0,0,.93.19,10.44,10.44,0,0,0,1.16.06h31.44a10.52,10.52,0,0,0,1.17-.07,5.62,5.62,0,0,0,1-.19,2.19,2.19,0,0,0,.66-.27.48.48,0,0,0,.26-.34l.62-8.76a.42.42,0,0,0-.21-.32,2.43,2.43,0,0,0-.62-.27,6.34,6.34,0,0,0-.92-.17,8.11,8.11,0,0,0-1.14-.07Z"/><path class="cls-19" d="M659.3,1859H628.54a10.48,10.48,0,0,0-1.16.07,6,6,0,0,0-1,.18,2.7,2.7,0,0,0-.69.26c-.17.1-.28.21-.3.32l-2.08,8.76a.34.34,0,0,0,.15.34,1.84,1.84,0,0,0,.58.28,4.76,4.76,0,0,0,.9.18,8.26,8.26,0,0,0,1.15.07h31.46a10.82,10.82,0,0,0,1.18-.06,7.11,7.11,0,0,0,1-.19,2.44,2.44,0,0,0,.68-.28.53.53,0,0,0,.29-.33l1.38-8.76a.36.36,0,0,0-.18-.33,1.75,1.75,0,0,0-.58-.26,4.93,4.93,0,0,0-.9-.18,9.89,9.89,0,0,0-1.13-.06Z"/><path class="cls-19" d="M618.26,1859H587.51a10.84,10.84,0,0,0-1.16.06,9.67,9.67,0,0,0-1,.18,3.42,3.42,0,0,0-.72.27c-.18.1-.3.2-.33.32l-2.88,8.76a.32.32,0,0,0,.13.34,1.75,1.75,0,0,0,.55.28,4.76,4.76,0,0,0,.9.18,8,8,0,0,0,1.14.07H615.6a11,11,0,0,0,1.19-.07,7.93,7.93,0,0,0,1-.19,2.83,2.83,0,0,0,.71-.28.6.6,0,0,0,.32-.34l2.18-8.76a.32.32,0,0,0-.15-.32,1.6,1.6,0,0,0-.57-.26,4.64,4.64,0,0,0-.89-.18,9.61,9.61,0,0,0-1.12-.07Z"/><path class="cls-19" d="M577.23,1859H546.47a10.82,10.82,0,0,0-1.17.07,6.42,6.42,0,0,0-1,.18,3.64,3.64,0,0,0-.74.27.81.81,0,0,0-.37.32l-3.64,8.76a.29.29,0,0,0,.09.33,1.37,1.37,0,0,0,.53.28,4.36,4.36,0,0,0,.87.19,9.68,9.68,0,0,0,1.14.07h31.46a9,9,0,0,0,1.19-.07,6.93,6.93,0,0,0,1-.18,3.72,3.72,0,0,0,.73-.28.76.76,0,0,0,.35-.34l2.94-8.75a.29.29,0,0,0-.12-.33,1.62,1.62,0,0,0-.53-.27,6.93,6.93,0,0,0-.87-.18,9.59,9.59,0,0,0-1.12-.06Z"/><path class="cls-19" d="M536.19,1859H505.44a8.86,8.86,0,0,0-1.17.07,6.93,6.93,0,0,0-1,.18,3.53,3.53,0,0,0-.76.26.86.86,0,0,0-.4.33l-4.45,8.76a.3.3,0,0,0,.08.34,1.35,1.35,0,0,0,.5.27,5.29,5.29,0,0,0,.86.19,9.64,9.64,0,0,0,1.13.07h31.45a11.56,11.56,0,0,0,1.2-.07,8.56,8.56,0,0,0,1-.18,3.61,3.61,0,0,0,.76-.28.76.76,0,0,0,.38-.34l3.75-8.76a.28.28,0,0,0-.09-.32,1.56,1.56,0,0,0-.52-.27,4.46,4.46,0,0,0-.86-.18,9.29,9.29,0,0,0-1.11-.07Z"/><path class="cls-19" d="M494.4,1859H444.08a11,11,0,0,0-1.18.07,7.38,7.38,0,0,0-1,.18,4.18,4.18,0,0,0-.8.26,1,1,0,0,0-.43.33l-5.6,8.75a.26.26,0,0,0,0,.34,1,1,0,0,0,.46.28,4.47,4.47,0,0,0,.83.19,9.33,9.33,0,0,0,1.12.07h51.47a11.76,11.76,0,0,0,1.21-.07,8.84,8.84,0,0,0,1-.19,4.12,4.12,0,0,0,.78-.27.91.91,0,0,0,.41-.34l4.53-8.76a.26.26,0,0,0-.06-.33,1.17,1.17,0,0,0-.49-.26,3.94,3.94,0,0,0-.84-.18,9.11,9.11,0,0,0-1.1-.06Z"/><path class="cls-19" d="M960.63,1870.66H929.07a8.07,8.07,0,0,0-1.15.07,4.47,4.47,0,0,0-.88.19,1.29,1.29,0,0,0-.54.28.31.31,0,0,0-.1.34l3.76,9.21a.81.81,0,0,0,.39.36,3.46,3.46,0,0,0,.78.29,7.22,7.22,0,0,0,1.06.19,9.65,9.65,0,0,0,1.23.08h32.25a10.23,10.23,0,0,0,1.17-.07,5.26,5.26,0,0,0,.88-.2,1.27,1.27,0,0,0,.51-.29.3.3,0,0,0,.07-.35l-4.49-9.22a.93.93,0,0,0-.4-.34,4,4,0,0,0-.77-.28,6.85,6.85,0,0,0-1-.18,8.91,8.91,0,0,0-1.18-.07Z"/><path class="cls-19" d="M1035.6,1870.64H971.9a9.51,9.51,0,0,0-1.13.07,4.21,4.21,0,0,0-.87.19,1.27,1.27,0,0,0-.51.28.28.28,0,0,0-.07.34l4.59,9.21a.94.94,0,0,0,.43.36,3.66,3.66,0,0,0,.8.29,9.51,9.51,0,0,0,1.08.2,12.36,12.36,0,0,0,1.24.07h65.19a7.78,7.78,0,0,0,1.15-.08,4.1,4.1,0,0,0,.86-.19,1,1,0,0,0,.47-.29.29.29,0,0,0,0-.36l-5.94-9.21a1.1,1.1,0,0,0-.46-.34,4,4,0,0,0-.83-.28,7.78,7.78,0,0,0-1.08-.19,9.65,9.65,0,0,0-1.22-.07Z"/><path class="cls-19" d="M918.5,1870.66H887a8,8,0,0,0-1.14.07,5.7,5.7,0,0,0-.9.18,1.75,1.75,0,0,0-.55.28.32.32,0,0,0-.13.34l2.94,9.22a.7.7,0,0,0,.35.36,4.23,4.23,0,0,0,.74.29,8.84,8.84,0,0,0,1,.19,9.54,9.54,0,0,0,1.22.07h32.26a8.38,8.38,0,0,0,1.17-.08,4.54,4.54,0,0,0,.9-.19,1.4,1.4,0,0,0,.55-.29.31.31,0,0,0,.11-.36l-3.67-9.21a.76.76,0,0,0-.38-.34,3.2,3.2,0,0,0-.75-.28,8.84,8.84,0,0,0-1-.19,11.4,11.4,0,0,0-1.2-.07Z"/><path class="cls-19" d="M876.44,1870.67H844.92a10.44,10.44,0,0,0-1.16.06,5.76,5.76,0,0,0-.91.19,1.71,1.71,0,0,0-.59.28.33.33,0,0,0-.16.34l2.11,9.22a.65.65,0,0,0,.32.35,2.84,2.84,0,0,0,.73.29,8.2,8.2,0,0,0,1,.2,11.59,11.59,0,0,0,1.21.07h32.26a10.56,10.56,0,0,0,1.18-.07,5.68,5.68,0,0,0,.91-.2,1.58,1.58,0,0,0,.57-.29.34.34,0,0,0,.13-.36l-2.84-9.22a.73.73,0,0,0-.34-.34,3.72,3.72,0,0,0-.73-.28,8.38,8.38,0,0,0-1-.18,9,9,0,0,0-1.19-.07Z"/><path class="cls-19" d="M834.36,1870.68H802.83a10.48,10.48,0,0,0-1.16.07,6.16,6.16,0,0,0-.92.19,1.77,1.77,0,0,0-.6.28.36.36,0,0,0-.19.34l1.28,9.21a.57.57,0,0,0,.29.36,2.65,2.65,0,0,0,.69.29,6.22,6.22,0,0,0,1,.2,9.12,9.12,0,0,0,1.2.07h32.26a8.68,8.68,0,0,0,1.19-.08,5.36,5.36,0,0,0,.94-.19,2.08,2.08,0,0,0,.6-.3.35.35,0,0,0,.16-.35l-2-9.22a.55.55,0,0,0-.31-.34,2.83,2.83,0,0,0-.71-.28,7.76,7.76,0,0,0-1-.19,11.09,11.09,0,0,0-1.18-.06Z"/><path class="cls-19" d="M792.29,1870.68H760.77a8.56,8.56,0,0,0-1.17.07,5.49,5.49,0,0,0-1,.19,2.14,2.14,0,0,0-.64.28.42.42,0,0,0-.22.34l.46,9.21c0,.13.1.25.26.36a2.6,2.6,0,0,0,.68.29,7.18,7.18,0,0,0,1,.2,11.24,11.24,0,0,0,1.2.07h32.26a8.76,8.76,0,0,0,1.19-.07,5.44,5.44,0,0,0,.95-.2,1.89,1.89,0,0,0,.62-.29.39.39,0,0,0,.19-.36l-1.19-9.21a.54.54,0,0,0-.28-.34,2.44,2.44,0,0,0-.68-.28,7.25,7.25,0,0,0-1-.19,10.86,10.86,0,0,0-1.18-.07Z"/><path class="cls-19" d="M750.2,1870.69H718.68a10.52,10.52,0,0,0-1.17.07,6.79,6.79,0,0,0-1,.19,2.61,2.61,0,0,0-.66.28.51.51,0,0,0-.25.35l-.36,9.21a.43.43,0,0,0,.22.36,2.09,2.09,0,0,0,.65.29,5.62,5.62,0,0,0,1,.19,9,9,0,0,0,1.2.08h32.26a11.24,11.24,0,0,0,1.2-.07,7.17,7.17,0,0,0,1-.2,2.09,2.09,0,0,0,.65-.29c.16-.11.24-.23.23-.35l-.37-9.22a.44.44,0,0,0-.25-.34,2.17,2.17,0,0,0-.66-.28,5.62,5.62,0,0,0-1-.19,8.81,8.81,0,0,0-1.18-.07Z"/><path class="cls-19" d="M708.13,1870.7H676.61a8.81,8.81,0,0,0-1.18.07,6.28,6.28,0,0,0-1,.18,3,3,0,0,0-.68.28.49.49,0,0,0-.28.34l-1.19,9.22a.37.37,0,0,0,.19.35,2,2,0,0,0,.63.29,5.44,5.44,0,0,0,.95.2,9,9,0,0,0,1.19.07h32.27a9.06,9.06,0,0,0,1.2-.08,5.88,5.88,0,0,0,1-.19,2.35,2.35,0,0,0,.67-.29c.16-.11.26-.23.26-.36l.46-9.21a.43.43,0,0,0-.22-.35,2.08,2.08,0,0,0-.63-.27,5.18,5.18,0,0,0-.94-.19,10.52,10.52,0,0,0-1.17-.07Z"/><path class="cls-19" d="M666,1870.71H634.52a11,11,0,0,0-1.19.07,7.93,7.93,0,0,0-1,.19,2.6,2.6,0,0,0-.7.28.55.55,0,0,0-.31.34l-2,9.22a.35.35,0,0,0,.16.35,1.76,1.76,0,0,0,.6.29,6,6,0,0,0,.93.2,10.41,10.41,0,0,0,1.18.07h32.26a9.17,9.17,0,0,0,1.21-.07,6.22,6.22,0,0,0,1-.2,2.82,2.82,0,0,0,.71-.29.53.53,0,0,0,.29-.35l1.28-9.22a.36.36,0,0,0-.19-.34,2.19,2.19,0,0,0-.61-.28,5.29,5.29,0,0,0-.93-.18,8.56,8.56,0,0,0-1.17-.07Z"/><path class="cls-19" d="M624,1870.71H592.45a9.22,9.22,0,0,0-1.2.07,8,8,0,0,0-1,.18,3.6,3.6,0,0,0-.74.28c-.18.11-.31.22-.34.34l-2.84,9.22a.34.34,0,0,0,.13.36,1.58,1.58,0,0,0,.57.29,6.08,6.08,0,0,0,.92.2,8.71,8.71,0,0,0,1.18.07h32.27a9.34,9.34,0,0,0,1.21-.08,5.59,5.59,0,0,0,1-.2,2.75,2.75,0,0,0,.72-.29.67.67,0,0,0,.33-.35l2.1-9.22a.33.33,0,0,0-.16-.34,1.59,1.59,0,0,0-.57-.28,6,6,0,0,0-.91-.19,10.19,10.19,0,0,0-1.16-.07Z"/><path class="cls-19" d="M581.88,1870.72H550.35a9.07,9.07,0,0,0-1.19.07,6.85,6.85,0,0,0-1,.18,3.71,3.71,0,0,0-.75.28.82.82,0,0,0-.38.35l-3.66,9.21a.32.32,0,0,0,.1.36,1.48,1.48,0,0,0,.54.29,5.4,5.4,0,0,0,.89.2,10.37,10.37,0,0,0,1.17.07h32.27a9.54,9.54,0,0,0,1.22-.07,8.56,8.56,0,0,0,1.05-.2,3.18,3.18,0,0,0,.75-.29.69.69,0,0,0,.36-.36l2.93-9.21a.31.31,0,0,0-.13-.34,1.53,1.53,0,0,0-.56-.28,4.7,4.7,0,0,0-.9-.19,8.16,8.16,0,0,0-1.15-.07Z"/><path class="cls-19" d="M539.81,1870.73H508.28a11.76,11.76,0,0,0-1.21.07,9,9,0,0,0-1.05.19,4.07,4.07,0,0,0-.78.28.91.91,0,0,0-.41.34l-4.49,9.22a.31.31,0,0,0,.07.36,1.25,1.25,0,0,0,.52.29,4.43,4.43,0,0,0,.89.19,8.31,8.31,0,0,0,1.16.07h32.27a12,12,0,0,0,1.23-.07,8.94,8.94,0,0,0,1-.2,3.46,3.46,0,0,0,.78-.29.82.82,0,0,0,.38-.35l3.76-9.22a.33.33,0,0,0-.1-.35,1.52,1.52,0,0,0-.53-.28,4.26,4.26,0,0,0-.87-.18,8,8,0,0,0-1.14-.07Z"/><path class="cls-19" d="M1043.49,1883l-85.41,0a8.36,8.36,0,0,0-1.17.07,4.49,4.49,0,0,0-.9.2,1.37,1.37,0,0,0-.53.29.3.3,0,0,0-.08.36l4.44,9.71a.93.93,0,0,0,.42.38,3.65,3.65,0,0,0,.82.3,8,8,0,0,0,1.1.21,10.3,10.3,0,0,0,1.27.08l87.46,0a8.46,8.46,0,0,0,1.19-.08,4.7,4.7,0,0,0,.87-.2,1.12,1.12,0,0,0,.49-.31.31.31,0,0,0,0-.37l-6.29-9.71a1.09,1.09,0,0,0-.47-.36,5,5,0,0,0-.86-.3,8.25,8.25,0,0,0-1.11-.19,10.1,10.1,0,0,0-1.25-.08Z"/><path class="cls-19" d="M947.24,1883H914.89a8.27,8.27,0,0,0-1.17.08,4.11,4.11,0,0,0-.91.2,1.56,1.56,0,0,0-.55.29.34.34,0,0,0-.11.36l3.57,9.71a.89.89,0,0,0,.39.38,4,4,0,0,0,.78.3,7.39,7.39,0,0,0,1.08.21,10,10,0,0,0,1.26.08h33.12a8.83,8.83,0,0,0,1.2-.08,4.72,4.72,0,0,0,.91-.21,1.4,1.4,0,0,0,.55-.3.35.35,0,0,0,.08-.38l-4.34-9.7a.88.88,0,0,0-.41-.36,3.19,3.19,0,0,0-.8-.3,8.92,8.92,0,0,0-1.07-.2,9.81,9.81,0,0,0-1.23-.07Z"/><path class="cls-19" d="M904.11,1883H871.73a10.74,10.74,0,0,0-1.19.07,6.23,6.23,0,0,0-.93.2,1.94,1.94,0,0,0-.58.3.35.35,0,0,0-.15.36l2.71,9.71a.72.72,0,0,0,.35.38,3.53,3.53,0,0,0,.76.3,7.51,7.51,0,0,0,1.07.21,10,10,0,0,0,1.25.07h33.13a8.83,8.83,0,0,0,1.2-.08,5,5,0,0,0,.93-.21,1.53,1.53,0,0,0,.56-.3.34.34,0,0,0,.11-.38l-3.47-9.71a.85.85,0,0,0-.37-.36,3.68,3.68,0,0,0-.75-.29,8.37,8.37,0,0,0-1-.2,11.59,11.59,0,0,0-1.21-.07Z"/><path class="cls-19" d="M860.89,1883H828.54a8.68,8.68,0,0,0-1.19.08,5.36,5.36,0,0,0-.94.19,2,2,0,0,0-.6.3.35.35,0,0,0-.17.36l1.83,9.71a.59.59,0,0,0,.31.37,2.74,2.74,0,0,0,.74.31,5.7,5.7,0,0,0,1,.2,9.85,9.85,0,0,0,1.25.08h33.12a9,9,0,0,0,1.21-.07,5.31,5.31,0,0,0,1-.21,2,2,0,0,0,.6-.3.39.39,0,0,0,.15-.38l-2.61-9.71a.68.68,0,0,0-.34-.36,3,3,0,0,0-.75-.29,6.72,6.72,0,0,0-1-.2,9.54,9.54,0,0,0-1.22-.07Z"/><path class="cls-19" d="M817.72,1883H785.37a10.89,10.89,0,0,0-1.19.07,6.57,6.57,0,0,0-1,.2,2.13,2.13,0,0,0-.64.29.44.44,0,0,0-.21.36l1,9.71a.55.55,0,0,0,.28.38,3.2,3.2,0,0,0,.71.31,8.2,8.2,0,0,0,1,.2,9.81,9.81,0,0,0,1.24.08h33.13a9.1,9.1,0,0,0,1.21-.08,4.72,4.72,0,0,0,1-.2,1.88,1.88,0,0,0,.62-.31.4.4,0,0,0,.18-.37l-1.74-9.71a.58.58,0,0,0-.31-.36,2.85,2.85,0,0,0-.71-.3,6.28,6.28,0,0,0-1-.19,9.22,9.22,0,0,0-1.21-.08Z"/><path class="cls-19" d="M774.53,1883H742.18a9,9,0,0,0-1.2.07,5.49,5.49,0,0,0-1,.2,2.16,2.16,0,0,0-.66.29.48.48,0,0,0-.24.36l.1,9.71a.51.51,0,0,0,.25.38,2.64,2.64,0,0,0,.67.31,7.67,7.67,0,0,0,1,.2,9.53,9.53,0,0,0,1.23.08h33.13a9.64,9.64,0,0,0,1.24-.07,5.56,5.56,0,0,0,1-.21,2,2,0,0,0,.65-.31.46.46,0,0,0,.22-.38l-.87-9.71a.52.52,0,0,0-.28-.36,2.51,2.51,0,0,0-.69-.29,7.67,7.67,0,0,0-1-.2,11.43,11.43,0,0,0-1.21-.07Z"/><path class="cls-19" d="M731.36,1883H699a9.22,9.22,0,0,0-1.21.08,5.36,5.36,0,0,0-1,.2,2.43,2.43,0,0,0-.68.29c-.16.11-.26.23-.26.36l-.8,9.71a.44.44,0,0,0,.22.37,2.14,2.14,0,0,0,.66.31,5.9,5.9,0,0,0,1,.21,9.41,9.41,0,0,0,1.23.08h33.12a9.3,9.3,0,0,0,1.23-.08,7,7,0,0,0,1-.2,2.56,2.56,0,0,0,.68-.31.51.51,0,0,0,.25-.38v-9.71a.45.45,0,0,0-.24-.36,2.2,2.2,0,0,0-.65-.29,7,7,0,0,0-1-.2,9,9,0,0,0-1.2-.07Z"/><path class="cls-19" d="M688.17,1883H655.82a11.63,11.63,0,0,0-1.22.07,8.2,8.2,0,0,0-1,.2,2.93,2.93,0,0,0-.7.3.58.58,0,0,0-.31.36l-1.64,9.71a.42.42,0,0,0,.18.38,1.88,1.88,0,0,0,.62.3,5.44,5.44,0,0,0,1,.21,9.17,9.17,0,0,0,1.21.07h33.16a9.37,9.37,0,0,0,1.22-.08,7.68,7.68,0,0,0,1-.2,2.82,2.82,0,0,0,.71-.31.55.55,0,0,0,.28-.38l.87-9.71a.41.41,0,0,0-.21-.36,2.13,2.13,0,0,0-.64-.29,4.72,4.72,0,0,0-1-.2,8.79,8.79,0,0,0-1.19-.08Z"/><path class="cls-19" d="M645,1883H612.64a9.49,9.49,0,0,0-1.22.08,6.78,6.78,0,0,0-1,.19,3.53,3.53,0,0,0-.74.3.6.6,0,0,0-.32.36l-2.54,9.71a.36.36,0,0,0,.16.37,1.66,1.66,0,0,0,.6.31,5.19,5.19,0,0,0,1,.21,11.28,11.28,0,0,0,1.21.07h33.13a9.91,9.91,0,0,0,1.25-.07,6.67,6.67,0,0,0,1-.21,2.82,2.82,0,0,0,.73-.3.69.69,0,0,0,.32-.38l1.73-9.71a.37.37,0,0,0-.17-.36,1.83,1.83,0,0,0-.61-.29,5.12,5.12,0,0,0-.94-.2A8.76,8.76,0,0,0,645,1883Z"/><path class="cls-19" d="M601.82,1883H569.45a12,12,0,0,0-1.23.07,8.37,8.37,0,0,0-1,.2,3.36,3.36,0,0,0-.77.29.73.73,0,0,0-.36.36l-3.38,9.72a.33.33,0,0,0,.11.37,1.5,1.5,0,0,0,.57.31,5.72,5.72,0,0,0,.93.2,8.72,8.72,0,0,0,1.2.08h33.15a12.22,12.22,0,0,0,1.25-.07,7.1,7.1,0,0,0,1.06-.21,3.06,3.06,0,0,0,.76-.31.65.65,0,0,0,.34-.37l2.61-9.71a.35.35,0,0,0-.15-.36,1.76,1.76,0,0,0-.57-.3,5.06,5.06,0,0,0-.93-.19,8.42,8.42,0,0,0-1.18-.08Z"/><path class="cls-19" d="M558.63,1883.05H526.27a9.7,9.7,0,0,0-1.23.07,7.16,7.16,0,0,0-1.06.2,3.38,3.38,0,0,0-.79.29.84.84,0,0,0-.4.36l-4.27,9.71a.35.35,0,0,0,.09.38,1.48,1.48,0,0,0,.54.3,4.28,4.28,0,0,0,.9.21,8.32,8.32,0,0,0,1.18.08H554.4a10,10,0,0,0,1.25-.07,7.39,7.39,0,0,0,1.08-.21,3.24,3.24,0,0,0,.78-.31.83.83,0,0,0,.39-.37l3.49-9.72a.33.33,0,0,0-.12-.36,1.53,1.53,0,0,0-.56-.29,5.68,5.68,0,0,0-.91-.2,10.37,10.37,0,0,0-1.17-.07Z"/><path class="cls-19" d="M498.4,1870.74H436.79a12,12,0,0,0-1.22.07,9.83,9.83,0,0,0-1.07.19,4.87,4.87,0,0,0-.82.28,1,1,0,0,0-.45.35l-5.89,9.22a.26.26,0,0,0,0,.35,1,1,0,0,0,.47.29,4.45,4.45,0,0,0,.85.2,9.59,9.59,0,0,0,1.15.07l63.06,0a9.81,9.81,0,0,0,1.23-.07,7.62,7.62,0,0,0,1.07-.19,3.66,3.66,0,0,0,.8-.29,1,1,0,0,0,.42-.36l4.56-9.22a.28.28,0,0,0-.06-.34,1.32,1.32,0,0,0-.51-.28,4.15,4.15,0,0,0-.86-.18,7.69,7.69,0,0,0-1.13-.07Z"/><path class="cls-19" d="M513.7,1883.06l-84.72,0a10.13,10.13,0,0,0-1.25.07,8.32,8.32,0,0,0-1.1.2,4.08,4.08,0,0,0-.84.29,1.13,1.13,0,0,0-.48.36l-6.2,9.71a.31.31,0,0,0,0,.38,1.07,1.07,0,0,0,.48.3,4,4,0,0,0,.87.21,8.21,8.21,0,0,0,1.18.08l86.75,0c.44,0,.87,0,1.27-.07a9.2,9.2,0,0,0,1.09-.21,4.05,4.05,0,0,0,.81-.31.88.88,0,0,0,.42-.38l4.38-9.7a.35.35,0,0,0-.08-.37,1.37,1.37,0,0,0-.53-.29,5.26,5.26,0,0,0-.88-.2,8.36,8.36,0,0,0-1.17-.07Z"/><path class="cls-19" d="M453.87,1896.06H420.78a10.91,10.91,0,0,0-1.29.07,8.61,8.61,0,0,0-1.14.21,4.46,4.46,0,0,0-.88.31,1.23,1.23,0,0,0-.5.38l-6.55,10.25a.33.33,0,0,0,0,.4,1,1,0,0,0,.49.32,4.94,4.94,0,0,0,.9.22,8.66,8.66,0,0,0,1.21.08h33.91c.45,0,.89,0,1.31-.09a9,9,0,0,0,1.15-.22,4.32,4.32,0,0,0,.87-.32,1.17,1.17,0,0,0,.48-.4l5.76-10.25a.33.33,0,0,0,0-.38,1.31,1.31,0,0,0-.51-.31,5.09,5.09,0,0,0-.9-.2,8.46,8.46,0,0,0-1.19-.08Z"/><path class="cls-19" d="M498.16,1896.05H465.05a10.3,10.3,0,0,0-1.27.08,9.88,9.88,0,0,0-1.12.2,5.13,5.13,0,0,0-.85.31,1.11,1.11,0,0,0-.45.38l-5.64,10.25a.33.33,0,0,0,0,.4,1.15,1.15,0,0,0,.51.32,4.34,4.34,0,0,0,.91.22,8.92,8.92,0,0,0,1.22.08h33.93a10.8,10.8,0,0,0,1.3-.08,7.07,7.07,0,0,0,1.13-.22,4.1,4.1,0,0,0,.85-.32,1,1,0,0,0,.44-.39l4.81-10.26a.31.31,0,0,0-.06-.37,1.26,1.26,0,0,0-.53-.31,4.72,4.72,0,0,0-.91-.21,8.72,8.72,0,0,0-1.2-.08Z"/><path class="cls-19" d="M542.28,1896H509.19a10.35,10.35,0,0,0-1.27.07,7.85,7.85,0,0,0-1.11.21,4.55,4.55,0,0,0-.83.31,1.1,1.1,0,0,0-.43.38l-4.72,10.26a.34.34,0,0,0,.08.39,1.33,1.33,0,0,0,.55.32,4.11,4.11,0,0,0,.93.22,9.18,9.18,0,0,0,1.23.08h33.91a8.94,8.94,0,0,0,1.29-.08,7.58,7.58,0,0,0,1.11-.21,3.57,3.57,0,0,0,.82-.33.83.83,0,0,0,.4-.39l3.91-10.25a.35.35,0,0,0-.1-.38,1.4,1.4,0,0,0-.56-.31,4.66,4.66,0,0,0-.92-.21,8.72,8.72,0,0,0-1.2-.08Z"/><path class="cls-19" d="M596.43,1896H553.28a10,10,0,0,0-1.26.08,7.54,7.54,0,0,0-1.09.21,3,3,0,0,0-.79.31.8.8,0,0,0-.39.38l-3.81,10.25a.35.35,0,0,0,.11.39,1.5,1.5,0,0,0,.57.33,5,5,0,0,0,1,.21,7.7,7.7,0,0,0,1.23.08H593a10.34,10.34,0,0,0,1.28-.08,8.36,8.36,0,0,0,1.09-.22,3.44,3.44,0,0,0,.78-.33.77.77,0,0,0,.37-.4l2.78-10.25a.36.36,0,0,0-.14-.38,1.7,1.7,0,0,0-.59-.3,5,5,0,0,0-1-.21,8.88,8.88,0,0,0-1.21-.08Z"/><path class="cls-19" d="M874.21,1896H831.07a9.14,9.14,0,0,0-1.22.08,6.57,6.57,0,0,0-1,.2,1.91,1.91,0,0,0-.61.31.4.4,0,0,0-.18.38l1.93,10.25a.75.75,0,0,0,.33.4,3,3,0,0,0,.76.32,8.35,8.35,0,0,0,1.07.22,10.3,10.3,0,0,0,1.27.08h44.21a9.34,9.34,0,0,0,1.24-.08,5.38,5.38,0,0,0,1-.22,1.61,1.61,0,0,0,.59-.32.37.37,0,0,0,.14-.4l-3-10.25a.74.74,0,0,0-.36-.37,2.72,2.72,0,0,0-.76-.31,7,7,0,0,0-1.07-.21,9.85,9.85,0,0,0-1.25-.08Z"/><path class="cls-19" d="M919.26,1896H886.05a9,9,0,0,0-1.21.07,5.92,5.92,0,0,0-1,.21,1.71,1.71,0,0,0-.58.31.34.34,0,0,0-.13.38l3.05,10.25a.77.77,0,0,0,.37.4,3.4,3.4,0,0,0,.8.32,7.36,7.36,0,0,0,1.1.22,10.51,10.51,0,0,0,1.29.08h34a9.3,9.3,0,0,0,1.23-.08,4.07,4.07,0,0,0,.94-.22,1.42,1.42,0,0,0,.57-.32.35.35,0,0,0,.11-.39L922.79,1897a.8.8,0,0,0-.39-.38,3.51,3.51,0,0,0-.79-.31,7.54,7.54,0,0,0-1.09-.21,10,10,0,0,0-1.26-.08Z"/><path class="cls-19" d="M820,1896l-212.68,0a9.85,9.85,0,0,0-1.25.08,7.1,7.1,0,0,0-1.06.21,3.08,3.08,0,0,0-.76.3.77.77,0,0,0-.35.38l-2.69,10.25a.4.4,0,0,0,.15.4,1.72,1.72,0,0,0,.61.32,5,5,0,0,0,1,.22,9.34,9.34,0,0,0,1.24.08l217.93,0a9.77,9.77,0,0,0,1.26-.08,5.63,5.63,0,0,0,1-.22,2.07,2.07,0,0,0,.65-.32.43.43,0,0,0,.18-.4L823.31,1897a.69.69,0,0,0-.32-.38,3.29,3.29,0,0,0-.74-.31,8.2,8.2,0,0,0-1-.2A9.85,9.85,0,0,0,820,1896Z"/><path class="cls-19" d="M481.13,1847.89h-30a10.76,10.76,0,0,0-1.15.07,9,9,0,0,0-1,.17,4.65,4.65,0,0,0-.77.25,1.06,1.06,0,0,0-.42.31l-5.33,8.34a.26.26,0,0,0,0,.32,1,1,0,0,0,.46.26,3.63,3.63,0,0,0,.81.18,9,9,0,0,0,1.1.06h30.66a11,11,0,0,0,1.18-.07,7.08,7.08,0,0,0,1-.18,3.55,3.55,0,0,0,.78-.26,1,1,0,0,0,.42-.32l4.65-8.33a.23.23,0,0,0-.05-.31,1.19,1.19,0,0,0-.47-.26,4.68,4.68,0,0,0-.82-.17,8.77,8.77,0,0,0-1.08-.06Z"/><path class="cls-19" d="M993.56,1841H961a8.43,8.43,0,0,0-1.06.06,4.63,4.63,0,0,0-.81.16,1.32,1.32,0,0,0-.48.25.25.25,0,0,0-.07.3l2.17,4.24a.73.73,0,0,0,.37.3,3.18,3.18,0,0,0,.74.25,8.11,8.11,0,0,0,1,.17,10.33,10.33,0,0,0,1.14.06h33c.39,0,.76,0,1.07-.06a4.68,4.68,0,0,0,.82-.17,1.21,1.21,0,0,0,.46-.25.25.25,0,0,0,.05-.31l-2.53-4.24a.9.9,0,0,0-.4-.3,4.3,4.3,0,0,0-.74-.24,8.46,8.46,0,0,0-1-.17c-.36,0-.74-.06-1.13-.06Z"/><path class="cls-19" d="M571.13,1841.1H538.51a10,10,0,0,0-1.12.06,8.09,8.09,0,0,0-1,.17,3.26,3.26,0,0,0-.71.24.67.67,0,0,0-.35.3l-1.91,4.24a.26.26,0,0,0,.09.31,1.57,1.57,0,0,0,.49.25,5.1,5.1,0,0,0,.83.16,8.77,8.77,0,0,0,1.08.07h33a10.28,10.28,0,0,0,1.13-.06,7.93,7.93,0,0,0,1-.17,3.49,3.49,0,0,0,.7-.25.7.7,0,0,0,.34-.31l1.53-4.24c0-.1,0-.2-.11-.3a1.52,1.52,0,0,0-.51-.24,4.22,4.22,0,0,0-.83-.16,8.72,8.72,0,0,0-1.07-.06Z"/><path class="cls-19" d="M528.87,1841.1H496.28a10.28,10.28,0,0,0-1.13.06,8.21,8.21,0,0,0-1,.16,3.18,3.18,0,0,0-.74.25.85.85,0,0,0-.39.29l-2.31,4.25a.23.23,0,0,0,0,.3,1.21,1.21,0,0,0,.46.25,5.33,5.33,0,0,0,.79.17,8.55,8.55,0,0,0,1.06.06h33.08a10.42,10.42,0,0,0,1.14-.07,8.21,8.21,0,0,0,1-.16,4.71,4.71,0,0,0,.73-.25.8.8,0,0,0,.37-.31l1.94-4.24a.24.24,0,0,0-.08-.3,1.24,1.24,0,0,0-.49-.24,4.68,4.68,0,0,0-.82-.17,8.72,8.72,0,0,0-1.07-.06Z"/><path class="cls-19" d="M1017.21,1841h-15.53a7,7,0,0,0-.84,0,4,4,0,0,0-.64.13.85.85,0,0,0-.36.2.19.19,0,0,0,0,.24l2.73,4.55a.65.65,0,0,0,.32.24,2.57,2.57,0,0,0,.61.2,6.19,6.19,0,0,0,.81.14c.3,0,.61,0,.93,0h15.73a7.21,7.21,0,0,0,.85,0,3.12,3.12,0,0,0,.64-.13,1,1,0,0,0,.36-.2.19.19,0,0,0,0-.25l-2.93-4.55a1,1,0,0,0-.34-.24,3.4,3.4,0,0,0-.61-.19,5.82,5.82,0,0,0-.8-.13,8.92,8.92,0,0,0-.91,0Z"/><path class="cls-19" d="M966,1901.77H931.07a7.37,7.37,0,0,0-1,.06,3.88,3.88,0,0,0-.74.17,1.33,1.33,0,0,0-.45.25.29.29,0,0,0-.08.31l1.86,4.83a.71.71,0,0,0,.33.31,2.66,2.66,0,0,0,.65.26,5.6,5.6,0,0,0,.89.18,8.64,8.64,0,0,0,1,.06h35.36a7.26,7.26,0,0,0,1-.06,3,3,0,0,0,.74-.18,1.06,1.06,0,0,0,.43-.25.28.28,0,0,0,.06-.32l-2.25-4.83a.8.8,0,0,0-.34-.31,3.16,3.16,0,0,0-.67-.25,6.41,6.41,0,0,0-.89-.17,8.35,8.35,0,0,0-1-.06Z"/><path class="cls-19" d="M1011.36,1901.76H976.44a7.21,7.21,0,0,0-1,.06,3.94,3.94,0,0,0-.73.17,1.08,1.08,0,0,0-.42.25.28.28,0,0,0-.05.31l2.29,4.83a.89.89,0,0,0,.36.32,3.5,3.5,0,0,0,.68.25,5.51,5.51,0,0,0,.9.18,8.69,8.69,0,0,0,1,.06h35.36a6.86,6.86,0,0,0,1-.07,3.76,3.76,0,0,0,.73-.17,1.16,1.16,0,0,0,.41-.26.26.26,0,0,0,0-.32l-2.67-4.82a.82.82,0,0,0-.38-.31,3,3,0,0,0-.68-.25,5.86,5.86,0,0,0-.91-.18,8.47,8.47,0,0,0-1-.06Z"/><path class="cls-19" d="M1007.88,1895.49H973.41a6.8,6.8,0,0,0-.95.06,3.54,3.54,0,0,0-.72.16,1.06,1.06,0,0,0-.43.25.26.26,0,0,0-.06.3l2.27,4.71a.73.73,0,0,0,.34.3,3.24,3.24,0,0,0,.66.26,7,7,0,0,0,.89.17,8.64,8.64,0,0,0,1,.06h34.92a6.8,6.8,0,0,0,.95-.06,3.64,3.64,0,0,0,.72-.17,1,1,0,0,0,.41-.25.27.27,0,0,0,0-.31l-2.64-4.71a.91.91,0,0,0-.37-.3,3.42,3.42,0,0,0-.67-.24,6.88,6.88,0,0,0-.9-.17,8.19,8.19,0,0,0-1-.06Z"/><path class="cls-19" d="M1056.17,1901.76h-34.91a6.8,6.8,0,0,0-1,.06,3,3,0,0,0-.72.18.83.83,0,0,0-.4.25.26.26,0,0,0,0,.31l2.75,4.82a.9.9,0,0,0,.38.32,3.74,3.74,0,0,0,.7.25,6,6,0,0,0,.92.18,8.69,8.69,0,0,0,1,.06h35.36a7,7,0,0,0,1-.06,3.53,3.53,0,0,0,.71-.17.88.88,0,0,0,.39-.26.27.27,0,0,0,0-.32l-3.13-4.82a1,1,0,0,0-.4-.31,3.86,3.86,0,0,0-.71-.25,6.9,6.9,0,0,0-.92-.17,8.69,8.69,0,0,0-1-.06Z"/><path class="cls-20" d="M1029.38,1399.6H448.84a20.65,20.65,0,0,0-5.7.79l-.55.15a21,21,0,0,0-14.75,20.06v391.55a21,21,0,0,0,16.07,20.42,20.54,20.54,0,0,0,4.93.59h580.54a21.32,21.32,0,0,0,4-.39c.36-.06.72-.15,1.09-.24a21,21,0,0,0,15.9-20.38V1420.6A21,21,0,0,0,1029.38,1399.6Zm-.48,391.73a19.16,19.16,0,0,1-19.16,19.16H468.48a19.35,19.35,0,0,1-5.31-.74l-.38-.11a19.19,19.19,0,0,1-13.47-18.31V1442a18.33,18.33,0,0,1,.31-3.41,18.81,18.81,0,0,1,.77-2.93,19.17,19.17,0,0,1,18.08-12.82h541.26a18.88,18.88,0,0,1,4.79.61l.35.1a19.14,19.14,0,0,1,14,18.45Z"/><path class="cls-2" d="M1028.9,1442v349.3a19.16,19.16,0,0,1-19.16,19.16H468.48a19.35,19.35,0,0,1-5.31-.74l-.38-.11a19.19,19.19,0,0,1-13.47-18.31V1442a18.33,18.33,0,0,1,.31-3.41,18.81,18.81,0,0,1,.77-2.93,19.17,19.17,0,0,1,18.08-12.82h541.26a18.88,18.88,0,0,1,4.79.61l.35.1A19.14,19.14,0,0,1,1028.9,1442Z"/><g class="cls-21"><circle class="cls-22" cx="569.27" cy="1537.45" r="91.73"/><circle class="cls-23" cx="569.27" cy="1537.45" r="91.73" transform="translate(-148.73 63.58) rotate(-5.65)"/></g><circle class="cls-15" cx="728.99" cy="1695.5" r="91.73"/><path class="cls-22" d="M637.23,1618.15l3.4-3.86-7-7.89a1,1,0,0,0-1.7.21c-1.13,2.45-2.94,2.23-1.7,3.64Z"/><path class="cls-15" d="M654.66,1630.21l-3.4,3.85,4.25,4.82a2.34,2.34,0,0,0,3.55,0,3,3,0,0,0-.07-3.78Z"/><polygon class="cls-4" points="646.71 1611.24 651.2 1630.27 634.44 1625.17 646.71 1611.24"/><path class="cls-15" d="M810.58,1632.37l-3.89-3.9-7.87,7.88a2.86,2.86,0,0,0-.31,3.79,2.75,2.75,0,0,0,4.09.21Z"/><path class="cls-10" d="M822.77,1612.39l3.9,3.9,8-8.59a2.75,2.75,0,0,0-3.89-3.9Z"/><polygon class="cls-4" points="803.61 1621.5 822.83 1616.35 817.68 1635.57 803.61 1621.5"/><g class="cls-21"><path class="cls-10" d="M1000.68,1466.21V1595.4a16.47,16.47,0,0,1-16.62,16.32H847.33a16.46,16.46,0,0,1-16.61-16.32V1466.21c0,11.42,38,20.68,85,20.68S1000.68,1477.63,1000.68,1466.21Z"/><path class="cls-24" d="M830.72,1463.65V1595.4a16.46,16.46,0,0,0,16.61,16.32H984.06a16.47,16.47,0,0,0,16.62-16.32V1463.65"/><ellipse class="cls-24" cx="915.7" cy="1466.21" rx="84.98" ry="20.69"/></g><circle class="cls-25" cx="569.27" cy="474.87" r="91.73"/><circle class="cls-15" cx="728.99" cy="632.93" r="91.73"/><path class="cls-22" d="M637.23,555.57l3.4-3.85-7-7.9a1,1,0,0,0-1.7.22c-1.13,2.44-2.94,2.23-1.7,3.63Z"/><path class="cls-15" d="M654.66,567.63l-3.4,3.86,4.25,4.82a2.35,2.35,0,0,0,3.55,0,3,3,0,0,0-.07-3.79Z"/><polygon class="cls-4" points="646.71 548.67 651.2 567.69 634.44 562.6 646.71 548.67"/><path class="cls-15" d="M810.58,569.8l-3.89-3.9-7.87,7.87a2.87,2.87,0,0,0-.31,3.8,2.76,2.76,0,0,0,4.09.21Z"/><path class="cls-10" d="M822.77,549.82l3.9,3.89,8-8.59a2.75,2.75,0,0,0-3.89-3.89Z"/><polygon class="cls-4" points="803.61 558.92 822.83 553.78 817.68 573 803.61 558.92"/><path class="cls-10" d="M1000.68,403.63v129.2a16.47,16.47,0,0,1-16.62,16.31H847.33a16.46,16.46,0,0,1-16.61-16.31V403.63c0,11.42,38,20.69,85,20.69S1000.68,415.05,1000.68,403.63Z"/><path class="cls-26" d="M830.72,401.08V532.83a16.46,16.46,0,0,0,16.61,16.31H984.06a16.47,16.47,0,0,0,16.62-16.31V401.08"/><ellipse class="cls-26" cx="915.7" cy="403.63" rx="84.98" ry="20.69"/><path class="cls-27" d="M993.81,729.6l219.5,153.31,262,199.72a15.42,15.42,0,0,1-.18,24.66L1310.34,1229.2l-308.58,228.25"/><polyline class="cls-27" points="1416.01 1067.01 1251.67 1219.39 1249.56 1221.35 1001.76 1451.38"/><line class="cls-27" x1="1455.45" y1="1030.44" x2="1416.01" y2="1067.01"/><path class="cls-27" d="M1065.47,652.18l244,203.3s119.36,103.79,159.81,138.79a15.39,15.39,0,0,1,.38,23l-14.25,13.22"/><path class="cls-28" d="M1298.31,1206.18a1.37,1.37,0,0,1-1-.47l-28.5-31.47a1.4,1.4,0,0,1-.3-1.39,1.42,1.42,0,0,1,1.06-1L1311,1163a1.1,1.1,0,0,1,.31,0,1.41,1.41,0,0,1,1.14.59,1.38,1.38,0,0,1,.2,1.28l-13,40.41a1.41,1.41,0,0,1-1.36,1Z"/><path class="cls-2" d="M1311.21,1164.44l-12.92,40.17L1270,1173.33l41.25-8.89m.12-3a2.83,2.83,0,0,0-.63.07l-41.5,9a2.92,2.92,0,0,0-1.55,4.82l28.5,31.47a2.92,2.92,0,0,0,4.95-1.07l13-40.42a2.92,2.92,0,0,0-2.77-3.82Z"/><path class="cls-29" d="M1225.89,1292.07a1.39,1.39,0,0,1-1.18-.66,1.41,1.41,0,0,1-.09-1.35l17.74-38.62a1.41,1.41,0,0,1,2.43-.22l24.58,34.66a1.42,1.42,0,0,1-1,2.23l-42.31,4Z"/><path class="cls-2" d="M1243.66,1252.21l24.4,34.42-42,3.92,17.61-38.34m0-3.09a2.89,2.89,0,0,0-2.66,1.7l-17.73,38.62a2.91,2.91,0,0,0,2.63,4.13l.29,0,42.31-4a2.91,2.91,0,0,0,2.1-4.59L1246,1250.35a2.89,2.89,0,0,0-2.37-1.23Z"/><path class="cls-29" d="M1282.17,937.31h-.23L1240.06,931a1.45,1.45,0,0,1-.92-2.34l26.39-33.12a1.46,1.46,0,0,1,2.5.38l15.48,39.42a1.45,1.45,0,0,1-1.34,2Z"/><path class="cls-2" d="M1266.66,896.53l15.42,39.27-41.72-6.28,26.3-33m0-3a2.91,2.91,0,0,0-2.3,1.12L1238,927.71a3,3,0,0,0,1.87,4.77l41.88,6.3.46,0a3,3,0,0,0,2.73-4l-15.48-39.42a2.94,2.94,0,0,0-2.76-1.88Z"/><path class="cls-28" d="M1372.48,941a1.37,1.37,0,0,1-1.33-1l-12.82-40.62a1.38,1.38,0,0,1,1.3-1.8,1.73,1.73,0,0,1,.32,0l41.59,9.21a1.39,1.39,0,0,1,.72,2.29l-28.77,31.41a1.35,1.35,0,0,1-1,.45Z"/><path class="cls-2" d="M1359.82,899.16l41.2,9.12-28.5,31.12-12.7-40.24m-.18-3a2.89,2.89,0,0,0-2.74,3.75l12.82,40.62a2.88,2.88,0,0,0,4.88,1.08l28.77-31.41a2.88,2.88,0,0,0-1.51-4.76l-41.59-9.21a2.76,2.76,0,0,0-.63-.07Z"/></svg>