<svg id="Layer_1" data-name="Layer 1" xmlns="http://www.w3.org/2000/svg" viewBox="0 0 425.2 425.2"><defs><style>.cls-1{fill:#f06b24;}.cls-2{fill:#aae8ee;}.cls-3{fill:#d7f7fa;}.cls-4{fill:#fff;}</style></defs><path class="cls-1" d="M317.31,138.55V58.22a22,22,0,0,0-22-22h0a22,22,0,0,0-22,22v55.43a24.9,24.9,0,0,1-24.9,24.9m0,0H201.05a92.93,92.93,0,0,0-92.93,92.94v67.7A89.8,89.8,0,0,0,197.91,389H211.4A105.91,105.91,0,0,0,317.31,283.08V138.55m-108.2,41.74h0a64.17,64.17,0,0,1,64.18,64.17v37.71a64.64,64.64,0,0,1-64.63,64.63h0a57.47,57.47,0,0,1-57.46-57.46V238.19A57.91,57.91,0,0,1,209.11,180.29Z"/><path class="cls-2" d="M170.77,348.64c9.31,4.6,21,6.93,34.9,6.93h.63l70.83-74.47V240Zm74.69,6.93h17.08A14.59,14.59,0,0,0,277.13,341V321.74ZM206.35,172c-40.63,0-62.83,20.78-63.79,63.8a3.55,3.55,0,0,0,0,.73L209.65,172Zm22.48,0-86.32,83.32v29.91L260.16,172Z"/><path class="cls-3" d="M205.67,355.57h39.16l32.3-34.51V280.42ZM262.54,172h-3.12L142.51,284.51v8.68q0,41.3,27.8,55.23L277.13,239.28V186.55A14.55,14.55,0,0,0,262.54,172ZM209,172l-66.41,63.8a3.55,3.55,0,0,0,0,.73c-.05.74-.05,1.48-.05,2.27V254.6L228.15,172Z"/><path class="cls-1" d="M316.84,138.55V58.22a22,22,0,0,0-22-22h0a22,22,0,0,0-22,22v55.43a24.9,24.9,0,0,1-24.9,24.9m0,0H200.58a92.94,92.94,0,0,0-92.93,92.94v67.7A89.8,89.8,0,0,0,197.44,389h13.49A105.91,105.91,0,0,0,316.84,283.08V138.55m-108.2,41.74h0a64.17,64.17,0,0,1,64.18,64.17v37.71a64.63,64.63,0,0,1-64.63,64.63h0a57.46,57.46,0,0,1-57.45-57.46V238.19A57.9,57.9,0,0,1,208.64,180.29Z"/><path class="cls-4" d="M295.53,36.21a22,22,0,0,1,22,22V283.07A105.91,105.91,0,0,1,211.63,389h-14a89.79,89.79,0,0,1-89.79-89.79V231.48a93,93,0,0,1,92.93-92.94h47.34a24.9,24.9,0,0,0,24.9-24.9V58.22a22,22,0,0,1,22-22h.47m0-4h-.47a26,26,0,0,0-26,26v55.42a20.92,20.92,0,0,1-20.9,20.9H200.81a97,97,0,0,0-96.93,96.94v67.71A93.9,93.9,0,0,0,197.67,393h14A109.9,109.9,0,0,0,321.54,283.07V58.22a26,26,0,0,0-26-26Z"/></svg>