<svg id="Layer_1" data-name="Layer 1" xmlns="http://www.w3.org/2000/svg" viewBox="0 0 960.21 396.74"><defs><style>.cls-1{fill:#fff;}.cls-2{fill:#f06b24;}.cls-3{fill:#aae8ee;}.cls-4{fill:#d7f7fa;}</style></defs><path class="cls-1" d="M48.92,168.25A12.12,12.12,0,0,1,61,156.13H186.62c29,0,49.23,15,49.23,50v77.35a12.12,12.12,0,0,1-12.12,12.12h-1.49a12.12,12.12,0,0,1-12.12-12.12v-74.1c0-19.5-10.75-29.74-28-29.74H162.26a7.37,7.37,0,0,0-7.38,7.37v96.47a12.12,12.12,0,0,1-12.12,12.12h-1.24a12.12,12.12,0,0,1-12.12-12.12V187a7.38,7.38,0,0,0-7.38-7.37H81.79A7.37,7.37,0,0,0,74.41,187v96.47a12.12,12.12,0,0,1-12.12,12.12H61a12.12,12.12,0,0,1-12.12-12.12Z"/><path class="cls-1" d="M298,102.69a12.14,12.14,0,0,0-20.7,8.57V116a12.13,12.13,0,0,0,24.26,0v-4.77A12.07,12.07,0,0,0,298,102.69ZM290,156.63h-1a12.12,12.12,0,0,0-12.13,12.11V283.46A12.12,12.12,0,0,0,289,295.56h1a12.12,12.12,0,0,0,12.13-12.1V168.74A12.12,12.12,0,0,0,290,156.63Z"/><path class="cls-1" d="M403.94,156.13H388.82c-27.25,0-44.73,18.48-44.73,47.73v79.6a12.09,12.09,0,0,0,12.1,12.1h.75a12.1,12.1,0,0,0,12.13-12.1V206.85c0-17.73,8.5-27.48,22.74-27.48h19.5c2.74,0,4.74-.5,4.74-4.76v-6.37A12.11,12.11,0,0,0,403.94,156.13Z"/><path class="cls-1" d="M503,156.13H487.89c-27.22,0-44.73,18.48-44.73,47.73v79.6a12.12,12.12,0,0,0,12.13,12.1H456a12.12,12.12,0,0,0,12.13-12.1V206.85c0-17.73,8.48-27.48,22.74-27.48h19.48c2.76,0,4.76-.5,4.76-4.76v-6.37A12.13,12.13,0,0,0,503,156.13Z"/><path class="cls-1" d="M664.85,200.68a60.66,60.66,0,0,0-6.3-21.22,45.78,45.78,0,0,0-17.62-18.52h0a53.8,53.8,0,0,0-18.62-6.42,70.11,70.11,0,0,0-11.56-.9H597c-31.74,0-54.73,24.25-54.73,57.24v29.48c0,1.33,0,2.65.12,3.94a67.55,67.55,0,0,0,4.48,22.29,46.88,46.88,0,0,0,15.67,20.72,49.59,49.59,0,0,0,17.82,8.3,63.72,63.72,0,0,0,12.08,1.83c1.57.12,3.18.16,4.81.16h13.49c32,0,54.73-23.73,54.73-57.24V210.86A81.43,81.43,0,0,0,664.85,200.68Zm-51.17,72.89a36,36,0,0,1-4.44.28h-10.5a32.1,32.1,0,0,1-19-5.92c-7.09-5.1-11.9-13.33-13-23.69a44.08,44.08,0,0,1-.25-4.65v-28A44.14,44.14,0,0,1,568.22,199c2.86-9.63,9.14-16.46,17.62-19.79a35.13,35.13,0,0,1,12.9-2.31h10.5a31.41,31.41,0,0,1,30.69,23.46,40.45,40.45,0,0,1,1.54,11.27v28c0,1,0,1.95-.09,2.88C640.25,260.29,628.73,271.71,613.68,273.57Z"/><path class="cls-1" d="M762.57,156.13H747.44c-27.23,0-44.73,18.48-44.73,47.73v79.6a12.1,12.1,0,0,0,12.13,12.1h.75a12.1,12.1,0,0,0,12.11-12.1V206.85c0-17.73,8.5-27.48,22.74-27.48h19.49c2.75,0,4.77-.5,4.77-4.76v-6.37A12.13,12.13,0,0,0,762.57,156.13Z"/><path class="cls-2" d="M911.16,160V117.85a11.56,11.56,0,0,0-11.55-11.56h0a11.56,11.56,0,0,0-11.55,11.56V147A13.08,13.08,0,0,1,875,160m0,0H850.11a48.81,48.81,0,0,0-48.81,48.81V244.4a47.16,47.16,0,0,0,47.16,47.16h7.08a55.62,55.62,0,0,0,55.62-55.62V160M854.34,182h0a33.7,33.7,0,0,1,33.71,33.7v19.8a33.94,33.94,0,0,1-33.94,33.94h0a30.18,30.18,0,0,1-30.18-30.17V212.37A30.41,30.41,0,0,1,854.34,182Z"/><path class="cls-3" d="M834.21,270.37c4.88,2.42,11,3.64,18.33,3.64h.32l37.2-39.11V213.29ZM873.43,274h9a7.66,7.66,0,0,0,7.66-7.66v-10.1Zm-20.54-96.42c-21.34,0-33,10.91-33.5,33.5a1.69,1.69,0,0,0,0,.39l35.23-33.89Zm11.81,0-45.34,43.75v15.71l61.79-59.46Z"/><path class="cls-4" d="M852.54,274H873.1l17-18.12V234.55Zm29.86-96.42h-1.64l-61.4,59.1v4.56q0,21.69,14.61,29l56.09-57.31V185.25A7.64,7.64,0,0,0,882.4,177.59Zm-28.13,0-34.88,33.5a1.69,1.69,0,0,0,0,.39c0,.38,0,.77,0,1.19V221l45-43.39Z"/><path class="cls-2" d="M910.92,160V117.85a11.57,11.57,0,0,0-11.56-11.56h0a11.57,11.57,0,0,0-11.56,11.56V147A13.08,13.08,0,0,1,874.73,160m0,0H849.86a48.8,48.8,0,0,0-48.8,48.81V244.4a47.15,47.15,0,0,0,47.15,47.16h7.09a55.62,55.62,0,0,0,55.62-55.62V160M854.1,182h0a33.7,33.7,0,0,1,33.7,33.7v19.8a33.94,33.94,0,0,1-33.94,33.94h0a30.18,30.18,0,0,1-30.18-30.17V212.37A30.41,30.41,0,0,1,854.1,182Z"/><path class="cls-1" d="M899.48,106.65h.6a11.56,11.56,0,0,1,11.21,11.55V236.3a55.64,55.64,0,0,1-53,55.56l-1.41.05h-9.5l-1.19,0a47.17,47.17,0,0,1-45-47.1V209.21a48.79,48.79,0,0,1,47.8-48.8H875.1l.43,0a13.07,13.07,0,0,0,12.4-13.06V118.21a11.55,11.55,0,0,1,11.2-11.55h.35m0-4c-.13,0-.34,0-.59,0a15.54,15.54,0,0,0-15,15.54v29.11a9.08,9.08,0,0,1-8.54,9.07H848.87a52.8,52.8,0,0,0-51.69,52.8v35.56A51.07,51.07,0,0,0,846,295.87h.06l.57,0,.62,0H857l1.52-.06a59.51,59.51,0,0,0,56.81-59.55V118.21a15.47,15.47,0,0,0-15-15.54c-.26,0-.53,0-.78,0Z"/></svg>