<svg id="Layer_1" data-name="Layer 1" xmlns="http://www.w3.org/2000/svg" viewBox="0 0 425.2 425.2"><defs><style>.cls-1{fill:#f06b24;}.cls-2{fill:#aae8ee;}.cls-3{fill:#d7f7fa;}.cls-4{fill:#fff;}</style></defs><path class="cls-1" d="M314.54,135.07V54.75a22,22,0,0,0-22-22h0a22,22,0,0,0-22,22v55.43a24.89,24.89,0,0,1-24.9,24.89m0,0H198.28A92.94,92.94,0,0,0,105.35,228v67.71a89.79,89.79,0,0,0,89.79,89.79h13.49A105.91,105.91,0,0,0,314.54,279.6V135.07m-108.2,41.74h0A64.19,64.19,0,0,1,270.52,241V278.7a64.63,64.63,0,0,1-64.63,64.62h0a57.46,57.46,0,0,1-57.46-57.45V234.72A57.91,57.91,0,0,1,206.34,176.81Z"/><path class="cls-2" d="M168,345.17c9.31,4.6,21,6.92,34.9,6.92h.63l70.83-74.46V236.48Zm74.69,6.92h17.08a14.59,14.59,0,0,0,14.59-14.58V318.27Zm-39.11-183.6c-40.63,0-62.83,20.77-63.79,63.79a3,3,0,0,0,0,.74l67.09-64.53Zm22.48,0-86.33,83.32v29.91L257.39,168.49Z"/><path class="cls-3" d="M202.9,352.09h39.16l32.3-34.5V277Zm56.87-183.6h-3.12L139.73,281v8.68q0,41.29,27.81,55.22L274.36,235.8V183.08A14.55,14.55,0,0,0,259.77,168.49Zm-53.58,0-66.4,63.79a3,3,0,0,0,0,.74c-.06.74-.06,1.48-.06,2.27v15.84l85.65-82.64Z"/><path class="cls-1" d="M314.07,135.07V54.75a22,22,0,0,0-22-22h0a22,22,0,0,0-22,22v55.43a24.89,24.89,0,0,1-24.9,24.89m0,0H197.81A92.94,92.94,0,0,0,104.88,228v67.71a89.79,89.79,0,0,0,89.79,89.79h13.49A105.91,105.91,0,0,0,314.07,279.6V135.07m-108.2,41.74h0A64.18,64.18,0,0,1,270.05,241V278.7a64.62,64.62,0,0,1-64.63,64.62h0A57.46,57.46,0,0,1,148,285.87V234.72A57.91,57.91,0,0,1,205.87,176.81Z"/><path class="cls-4" d="M292.76,32.74a22,22,0,0,1,22,22V279.6A105.91,105.91,0,0,1,208.86,385.51h-14a89.79,89.79,0,0,1-89.79-89.79V228A93,93,0,0,1,198,135.07h47.34a24.9,24.9,0,0,0,24.9-24.9V54.75a22,22,0,0,1,22-22h.47m0-3h-.47a25,25,0,0,0-25,25v55.42a21.92,21.92,0,0,1-21.9,21.9H198A96,96,0,0,0,102.11,228v67.71a92.89,92.89,0,0,0,92.79,92.79h14A109,109,0,0,0,317.77,279.6V54.75a25,25,0,0,0-25-25Z"/></svg>