<svg id="Layer_1" data-name="Layer 1" xmlns="http://www.w3.org/2000/svg" viewBox="0 0 960.21 396.74"><defs><style>.cls-1{fill:#0d1c25;}.cls-2{fill:#f06b24;}.cls-3{fill:#aae8ee;}.cls-4{fill:#d7f7fa;}.cls-5{fill:#fff;}</style></defs><path class="cls-1" d="M47.48,168.25A12.12,12.12,0,0,1,59.6,156.13H185.18c29,0,49.23,15,49.23,50v77.35a12.12,12.12,0,0,1-12.12,12.12h-1.5a12.12,12.12,0,0,1-12.12-12.12v-74.1c0-19.5-10.74-29.74-28-29.74H160.81a7.37,7.37,0,0,0-7.37,7.37v96.47a12.12,12.12,0,0,1-12.12,12.12h-1.25A12.12,12.12,0,0,1,128,283.46V187a7.37,7.37,0,0,0-7.37-7.37H80.34A7.37,7.37,0,0,0,73,187v96.47a12.12,12.12,0,0,1-12.12,12.12H59.6a12.12,12.12,0,0,1-12.12-12.12Z"/><path class="cls-1" d="M296.6,102.69a12.14,12.14,0,0,0-20.7,8.57V116a12.13,12.13,0,0,0,24.26,0v-4.77A12.07,12.07,0,0,0,296.6,102.69Zm-8.07,53.94h-1a12.12,12.12,0,0,0-12.13,12.11V283.46a12.12,12.12,0,0,0,12.13,12.1h1a12.12,12.12,0,0,0,12.13-12.1V168.74A12.13,12.13,0,0,0,288.53,156.63Z"/><path class="cls-1" d="M402.5,156.13H387.38c-27.26,0-44.74,18.48-44.74,47.73v79.6a12.1,12.1,0,0,0,12.11,12.1h.75a12.1,12.1,0,0,0,12.13-12.1V206.85c0-17.73,8.5-27.48,22.74-27.48h19.5c2.74,0,4.74-.5,4.74-4.76v-6.37A12.11,12.11,0,0,0,402.5,156.13Z"/><path class="cls-1" d="M501.57,156.13H486.45c-27.23,0-44.73,18.48-44.73,47.73v79.6a12.12,12.12,0,0,0,12.13,12.1h.75a12.12,12.12,0,0,0,12.13-12.1V206.85c0-17.73,8.48-27.48,22.74-27.48h19.47c2.77,0,4.76-.5,4.76-4.76v-6.37A12.12,12.12,0,0,0,501.57,156.13Z"/><path class="cls-1" d="M663.41,200.68a60.87,60.87,0,0,0-6.31-21.22,45.69,45.69,0,0,0-17.61-18.52h0a53.88,53.88,0,0,0-18.62-6.42,70.11,70.11,0,0,0-11.56-.9H595.55c-31.74,0-54.73,24.25-54.73,57.24v29.48c0,1.33,0,2.65.11,3.94a67.29,67.29,0,0,0,4.49,22.29,46.88,46.88,0,0,0,15.67,20.72,49.59,49.59,0,0,0,17.82,8.3A63.72,63.72,0,0,0,591,297.42c1.57.12,3.18.16,4.81.16h13.49c32,0,54.73-23.73,54.73-57.24V210.86A81.43,81.43,0,0,0,663.41,200.68Zm-51.17,72.89a36,36,0,0,1-4.45.28H597.3a32.1,32.1,0,0,1-19-5.92c-7.1-5.1-11.9-13.33-13-23.69a44.08,44.08,0,0,1-.25-4.65v-28A44.14,44.14,0,0,1,566.78,199c2.86-9.63,9.14-16.46,17.62-19.79a35.13,35.13,0,0,1,12.9-2.31h10.49a31.41,31.41,0,0,1,30.7,23.46A40.45,40.45,0,0,1,640,211.61v28c0,1,0,1.95-.09,2.88C638.81,260.29,627.29,271.71,612.24,273.57Z"/><path class="cls-1" d="M761.12,156.13H746c-27.23,0-44.73,18.48-44.73,47.73v79.6a12.1,12.1,0,0,0,12.13,12.1h.75a12.09,12.09,0,0,0,12.1-12.1V206.85c0-17.73,8.51-27.48,22.74-27.48h19.5c2.75,0,4.76-.5,4.76-4.76v-6.37A12.12,12.12,0,0,0,761.12,156.13Z"/><path class="cls-2" d="M912.6,155.71V111.32a12.16,12.16,0,0,0-12.16-12.16h0a12.16,12.16,0,0,0-12.17,12.16V142a13.76,13.76,0,0,1-13.76,13.76m0,0H848.35A51.37,51.37,0,0,0,797,207.08V244.5a49.63,49.63,0,0,0,49.62,49.62h7.46a58.54,58.54,0,0,0,58.53-58.53V155.71m-59.8,23.07h0a35.47,35.47,0,0,1,35.47,35.47v20.84a35.71,35.71,0,0,1-35.71,35.71h0a31.75,31.75,0,0,1-31.76-31.75V210.78A32,32,0,0,1,852.8,178.78Z"/><path class="cls-3" d="M831.61,271.82c5.15,2.54,11.61,3.83,19.29,3.83h.35l39.14-41.15V211.76Zm41.28,3.83h9.44a8.06,8.06,0,0,0,8.06-8.06V257ZM851.28,174.18c-22.46,0-34.72,11.48-35.26,35.26a1.86,1.86,0,0,0,0,.41l37.08-35.67Zm12.42,0-47.71,46v16.53l65-62.58Z"/><path class="cls-4" d="M850.9,275.65h21.65l17.84-19.07V234.12Zm31.43-101.47h-1.72L816,236.38v4.8c0,15.21,5.15,25.38,15.37,30.52l59-60.32V182.24A8,8,0,0,0,882.33,174.18Zm-29.61,0L816,209.44a1.86,1.86,0,0,0,0,.41c0,.4,0,.81,0,1.25v8.75l47.33-45.67Z"/><path class="cls-2" d="M912.34,155.71V111.32a12.16,12.16,0,0,0-12.16-12.16h0A12.16,12.16,0,0,0,888,111.32V142a13.76,13.76,0,0,1-13.76,13.76m0,0H848.09a51.37,51.37,0,0,0-51.36,51.37V244.5a49.63,49.63,0,0,0,49.63,49.62h7.45a58.53,58.53,0,0,0,58.53-58.53V155.71m-59.8,23.07h0A35.47,35.47,0,0,1,888,214.25v20.84A35.71,35.71,0,0,1,852.3,270.8h0a31.75,31.75,0,0,1-31.76-31.75V210.78A32,32,0,0,1,852.54,178.78Z"/><path class="cls-5" d="M900.3,99.53c.21,0,.43,0,.63,0a12.16,12.16,0,0,1,11.8,12.15V236a58.54,58.54,0,0,1-55.8,58.47l-1.48.06h-10l-1.25,0a49.65,49.65,0,0,1-47.35-49.57V207.46a51.35,51.35,0,0,1,50.3-51.35c.36,0,.71,0,1.07,0H875.1a13.76,13.76,0,0,0,13-13.75V111.7a12.15,12.15,0,0,1,11.79-12.15,2.17,2.17,0,0,1,.36,0m0-3c-.13,0-.32,0-.55,0a15.16,15.16,0,0,0-14.6,15.15v30.63A10.75,10.75,0,0,1,875,153.08H848.23c-.38,0-.77,0-1.15,0a54.34,54.34,0,0,0-53.22,54.35v37.42a52.53,52.53,0,0,0,50.21,52.56l.67,0,.63,0h10.16l1.57-.06A61.42,61.42,0,0,0,915.73,236V111.7a15.08,15.08,0,0,0-14.66-15.15c-.25,0-.52,0-.77,0Z"/></svg>